{
.appVersion = "3099";
.formatVersion = 3;
axes = (
{
name = Ascender;
tag = ASCD;
}
);
classes = (
{
code = "";
name = AllLetters;
},
{
code = "/.*\\.(medi|init)/ kashida-ar";
name = ArabicJoinLeft;
},
{
code = "/.*dot.*.-ar$/";
name = Dots;
}
);
customParameters = (
{
name = "Use Line Breaks";
value = 1;
},
{
name = "Write lastChange";
value = 0;
},
{
name = "Write DisplayStrings";
value = 0;
},
{
name = "Virtual Master";
value = (
{
Axis = Ascender;
Location = 8;
}
);
},
{
name = "Use Typo Metrics";
value = 1;
},
{
name = fsType;
value = (
);
},
{
name = unicodeRanges;
value = (
13
);
},
{
name = codePageRanges;
value = (
1256
);
}
);
date = "2020-02-24 14:21:20 +0000";
familyName = "Rana Kufi";
featurePrefixes = (
{
code = "languagesystem DFLT dflt;
languagesystem arab dflt;";
name = Languagesystems;
},
{
code = "lookup teh_alef_first {
  ignore sub [@AllLetters space space.mark] behDotless-ar.init twodotshorizontalabove-ar' [alef-ar lam-ar lam-ar.init];
  sub behDotless-ar.init twodotshorizontalabove-ar' [alef-ar lam-ar lam-ar.init] by twodotsverticalabove-ar;
} teh_alef_first;

lookup hah_high {
  lookupflag 0;
  sub hah-ar.init by hah-ar.init kashida-ar kashida-ar kashida-ar;
  sub hah-ar.medi by hah-ar.medi kashida-ar kashida-ar kashida-ar;
  sub hah-ar.init.01.03 by hah-ar.init.01.03 kashida-ar kashida-ar kashida-ar kashida-ar.10;
  sub hah-ar.medi.01.03 by hah-ar.medi.01.03 kashida-ar kashida-ar kashida-ar kashida-ar.10;
  sub hah-ar.init.narrow by hah-ar.init.narrow kashida-ar kashida-ar kashida-ar;
} hah_high;

lookup hah_high2 {
  sub hah-ar.init.01.04 by hah-ar.init.01.04 kashida-ar kashida-ar kashida-ar.10;
  sub hah-ar.init.01.05 by hah-ar.init.01.05 kashida-ar kashida-ar kashida-ar.10;
  sub hah-ar.medi.01.04 by hah-ar.medi.01.04 kashida-ar kashida-ar kashida-ar.10;
  sub hah-ar.medi.01.05 by hah-ar.medi.01.05 kashida-ar kashida-ar kashida-ar.10;
} hah_high2;

lookup beh_low {
  sub behDotless-ar      by behDotless-ar.low;

glyphs = (
{
glyphname = "hamza-ar";
layers = (
{
layerId = "299DE00D-7BC2-4DFB-A399-2750234EE670";
shapes = (
{
closed = 1;
nodes = (
(325,252,o),
(313,275,o),
(274,290,c),
(290,323,o),
(287,366,o),
(268,400,c),
(262,358,o),
(243,323,o),
(179,291,cs),
(105,254,o),
(75,179,o),
(100,100,c),
(50,100,l),
(50,0,l),
(438,0,l),
(380,23,o),
(338,85,o),
(338,150,c),
(328,122,o),
(300,100,o),
(268,100,cs),
(227,100,o),
(193,134,o),
(193,175,cs),
(193,216,o),
(227,250,o),
(268,250,cs),
(294,250,o),
(318,236,o),
(331,215,c)
);
}
);
width = 438;
},
{
associatedMasterId = "299DE00D-7BC2-4DFB-A399-2750234EE670";
layerId = "B634354F-84AC-476B-88B7-3B8879B6730D";
name = Short;
shapes = (
{
closed = 1;
nodes = (
(280,210,o),
(270,230,o),
(237,242,c),
(250,270,o),
(248,305,o),
(232,334,c),
(227,299,o),
(211,270,o),
(158,243,cs),
(96,212,o),
(71,150,o),
(92,84,c),
(50,84,l),
(50,0,l),
(374,0,l),
(325,19,o),
(290,71,o),
(290,125,c),
(282,102,o),
(259,84,o),
(232,84,cs),
(198,84,o),
(170,112,o),
(170,146,cs),
(170,180,o),
(198,209,o),
(232,209,cs),
(254,209,o),
(274,197,o),
(285,180,c)
);
}
);
width = 374;
}
);
unicode = 1569;
},
{
glyphname = "hamza-ar.01.01";
layers = (
{
layerId = "299DE00D-7BC2-4DFB-A399-2750234EE670";
shapes = (
{
closed = 1;
nodes = (
(488,0,l),
(430,23,o),
(388,85,o),
(388,150,c),
(378,122,o),
(350,100,o),
(318,100,cs),
(277,100,o),
(243,134,o),
(243,175,cs),
(243,216,o),
(277,250,o),
(318,250,cs),
(344,250,o),
(368,236,o),
(381,215,c),
(375,252,o),
(363,275,o),
(324,290,c),
(340,323,o),
(337,366,o),
(318,400,c),
(312,358,o),
(293,323,o),
(229,291,cs),
(155,254,o),
(125,179,o),
(150,100,c),
(133,100,o),
(110,122,o),
(100,150,c),
(100,85,o),
(58,23,o),
(0,0,c)
);
}
);
width = 488;
},
{
associatedMasterId = "299DE00D-7BC2-4DFB-A399-2750234EE670";
layerId = "34145C23-9A00-4A6D-B910-69202CFAC217";
name = Short;
shapes = (
{
closed = 1;
nodes = (
(406,0,l),
(358,19,o),
(323,71,o),
(323,125,c),
(315,102,o),
(291,84,o),
(265,84,cs),
(231,84,o),
(202,112,o),
(202,146,cs),
(202,180,o),
(231,209,o),
(265,209,cs),
(286,209,o),
(306,197,o),
(317,180,c),
(312,210,o),
(302,230,o),
(270,242,c),
(283,270,o),
(281,305,o),
(265,334,c),
(260,299,o),
(244,270,o),
(191,243,cs),
(129,212,o),
(104,150,o),
(125,84,c),
(111,84,o),
(91,102,o),
(83,125,c),
(83,71,o),
(48,19,o),
(0,0,c)
);
}
);
width = 406;
}
);
},
{
glyphname = "hamza-ar.01.02";
layers = (
{
layerId = "299DE00D-7BC2-4DFB-A399-2750234EE670";
shapes = (
{
closed = 1;
nodes = (
(186,67,l),
(176,24,o),
(129,15,o),
(77,23,c),
(98,0,o),
(127,-14,o),
(161,-14,cs),
(224,-14,o),
(275,37,o),
(275,100,cs),
(275,133,l),
(139,133,l),
(149,176,o),
(196,185,o),
(248,177,c),
(227,200,o),
(198,214,o),
(164,214,cs),
(101,214,o),
(50,163,o),
(50,100,cs),
(50,67,l)
);
}
);
width = 325;
}
);
},
{
glyphname = "alef-ar";
kernLeft = "straight-r";
kernRight = "straight-l";
layers = (
{
anchors = (
{
name = bottom;
pos = (50,0);
},
{
name = top;
pos = (-70,1066);
}
);
layerId = "299DE00D-7BC2-4DFB-A399-2750234EE670";
shapes = (
{
closed = 1;
nodes = (
(100,0,l),
(100,1000,l),
(0,1000,l),
(0,0,l)
);
},
{
angle = 90;
pos = (0,1000);
ref = _zuluf150;
scale = (1,-1);
}
);
width = 100;
},
{
anchors = (
{
name = bottom;
pos = (50,0);
},
{
name = top;
pos = (-70,666);
}
);
associatedMasterId = "299DE00D-7BC2-4DFB-A399-2750234EE670";
layerId = "651FD329-8EE0-4515-A46D-7544EF3E1AE8";
name = Short;
shapes = (
{
closed = 1;
nodes = (
(100,0,l),
(100,600,l),
(0,600,l),
(0,0,l)
);
},
{
angle = 90;
pos = (0,600);
ref = _zuluf150;
scale = (1,-1);
}
);
visible = 1;
width = 100;
}
);
unicode = 1575;
},
{
glyphname = "alef-ar.01.01";
kernLeft = "straight-r";
kernRight = "straight-l";
layers = (
{
anchors = (
{
name = bottom;
pos = (50,0);
},
{
name = top;
pos = (-70,1066);
}
);
layerId = "299DE00D-7BC2-4DFB-A399-2750234EE670";
shapes = (
{
closed = 1;
nodes = (
(100,750,l),
(100,1000,l),
(0,1000,l),
(0,750,l)
);
},
{
closed = 1;
nodes = (
(100,0,l),
(100,350,l),
(0,350,l),
(0,0,l)
);
},
{
pos = (0,400);
ref = _deco.07;
},
{
angle = 90;
pos = (0,1000);
ref = _zuluf150;
scale = (1,-1);
}
);
width = 100;
},
{
anchors = (
{
name = bottom;
pos = (50,0);
},
{
name = top;
pos = (-70,666);
}
);
associatedMasterId = "299DE00D-7BC2-4DFB-A399-2750234EE670";
layerId = "651FD329-8EE0-4515-A46D-7544EF3E1AE8";
name = Short;
shapes = (
{
closed = 1;
nodes = (
(100,0,l),
(100,180,l),
(0,180,l),
(0,0,l)
);
},
{
closed = 1;
nodes = (
(100,440,l),
(100,600,l),
(0,600,l),
(0,440,l)
);
},
{
pos = (0,200);
ref = _deco.07.short;
},
{
angle = 90;
pos = (0,600);
ref = _zuluf150;
scale = (1,-1);
}
);
width = 100;
}
);
},
{
glyphname = "alef-ar.01.02";
kernLeft = "straight-r";
kernRight = "straight-l";
layers = (
{
anchors = (
{
name = bottom;
pos = (50,0);
},
{
name = top;
pos = (-70,1066);
}
);
layerId = "299DE00D-7BC2-4DFB-A399-2750234EE670";
shapes = (
{
closed = 1;
nodes = (
(100,0,l),
(100,420,l),
(0,420,l),
(0,0,l)
);
},
{
closed = 1;
nodes = (
(100,730,l),
(100,1000,l),
(0,1000,l),
(0,730,l)
);
},
{
angle = 90;
pos = (0,1000);
ref = _zuluf150;
scale = (1,-1);
},
{
pos = (0,400);
ref = _deco.09;
}
);
width = 100;
},
{
anchors = (
{
name = bottom;
pos = (50,0);
},
{
name = top;
pos = (-70,666);
}
);
associatedMasterId = "299DE00D-7BC2-4DFB-A399-2750234EE670";
layerId = "651FD329-8EE0-4515-A46D-7544EF3E1AE8";
name = Short;
shapes = (
{
closed = 1;
nodes = (
(100,0,l),
(100,220,l),
(0,220,l),
(0,0,l)
);
},
{
closed = 1;
nodes = (
(100,500,l),
(100,600,l),
(0,600,l),
(0,500,l)
);
},
{
angle = 90;
pos = (0,600);
ref = _zuluf150;
scale = (1,-1);
},
{
pos = (0,200);
ref = _deco.09.short;
}
);
width = 100;
}
);
},
{
glyphname = "alef-ar.01.03";
kernLeft = "straight-r";
kernRight = "straight-l";
layers = (
{
anchors = (
{
name = bottom;
pos = (50,0);
},
{
name = top;
pos = (-70,1066);
}
);
layerId = "299DE00D-7BC2-4DFB-A399-2750234EE670";
shapes = (
{
closed = 1;
nodes = (
(100,850,l),
(100,1000,l),
(0,1000,l),
(0,850,l)
);
},
{
closed = 1;
nodes = (
(100,0,l),
(100,300,l),
(0,300,l),
(0,0,l)
);
},
{
pos = (0,405);
ref = _deco.15;
},
{
angle = 90;
pos = (0,1000);
ref = _zuluf150;
scale = (1,-1);
}
);
width = 100;
}
);
},
{
glyphname = "alef-ar.01.04";
kernLeft = "straight-r";
kernRight = "straight-l";
layers = (
{
anchors = (
{
name = bottom;
pos = (50,0);
},
{
name = top;
pos = (-70,1066);
}
);
layerId = "299DE00D-7BC2-4DFB-A399-2750234EE670";
shapes = (
{
closed = 1;
nodes = (
(100,850,l),
(100,1000,l),
(0,1000,l),
(0,850,l)
);
},
{
closed = 1;
nodes = (
(100,0,l),
(100,300,l),
(0,300,l),
(0,0,l)
);
},
{
pos = (0,224);
ref = _deco.04;
},
{
angle = 90;
pos = (0,1000);
ref = _zuluf150;
scale = (1,-1);
}
);
width = 100;
}
);
},
{
glyphname = "alef-ar.02.01";
kernLeft = "straight-r";
layers = (
{
anchors = (
{
name = bottom;
pos = (170,0);
}
);
layerId = "299DE00D-7BC2-4DFB-A399-2750234EE670";
shapes = (
{
closed = 1;
nodes = (
(0,50,l),
(0,-150,l),
(50,-150,o),
(100,-50,o),
(100,0,c),
(100,50,l)
);
},
{
ref = "alef-ar.02.02";
}
);
width = 250;
}
);
metricLeft = "alef-ar";
},
{
glyphname = "alef-ar.02.03";
kernLeft = "straight-r";
kernRight = "alef-wide";
layers = (
{
layerId = "299DE00D-7BC2-4DFB-A399-2750234EE670";
shapes = (
{
closed = 1;
nodes = (
(50,100,l),
(50,0,l),
(150,0,l),
(150,100,l)
);
},
{
ref = "alef-ar";
},
{
pos = (150,0);
ref = _zuluf100;
}
);
width = 300;
}
);
metricLeft = "alef-ar";
},
{
glyphname = "alef-ar.02.04";
kernLeft = "straight-r";
kernRight = "alef-wide";
layers = (
{
layerId = "299DE00D-7BC2-4DFB-A399-2750234EE670";
shapes = (
{
closed = 1;
nodes = (
(50,100,l),
(50,0,l),
(200,0,l),
(200,100,l)
);
},
{
ref = "alef-ar";
},
{
pos = (200,0);
ref = _zuluf100;
}
);
width = 350;
}
);
metricLeft = "alef-ar";
},
{
glyphname = "alef-ar.02.06";
kernLeft = "straight-r";
layers = (
{
anchors = (
{
name = bottom;
pos = (170,0);
}
);
layerId = "299DE00D-7BC2-4DFB-A399-2750234EE670";
shapes = (
{
closed = 1;
nodes = (
(0,50,l),
(0,-150,l),
(50,-150,o),
(100,-50,o),
(100,0,c),
(100,50,l)
);
},
{
ref = "alef-ar.02.07";
}
);
width = 250;
}
);
metricLeft = "alef-ar";
},
{
glyphname = "alef-ar.02.08";
kernLeft = "straight-r";
kernRight = "alef-wide";
layers = (
{
layerId = "299DE00D-7BC2-4DFB-A399-2750234EE670";
shapes = (
{
closed = 1;
nodes = (
(50,100,l),
(50,0,l),
(150,0,l),
(150,100,l)
);
},
{
ref = "alef-ar.01.01";
},
{
pos = (150,0);
ref = _zuluf100;
}
);
width = 300;
}
);
metricLeft = "alef-ar";
metricRight = "alef-ar.02.00";
},
{
glyphname = "alef-ar.02.09";
kernLeft = "straight-r";
kernRight = "alef-wide";
layers = (
{
layerId = "299DE00D-7BC2-4DFB-A399-2750234EE670";
shapes = (
{
closed = 1;
nodes = (
(50,100,l),
(50,0,l),
(200,0,l),
(200,100,l)
);
},
{
ref = "alef-ar.01.01";
},
{
pos = (200,0);
ref = _zuluf100;
}
);
width = 350;
}
);
metricLeft = "alef-ar";
metricRight = "alef-ar.02.03";
},
{
glyphname = "alef-ar.02.11";
kernLeft = "straight-r";
layers = (
{
anchors = (
{
name = bottom;
pos = (170,0);
}
);
layerId = "299DE00D-7BC2-4DFB-A399-2750234EE670";
shapes = (
{
closed = 1;
nodes = (
(0,50,l),
(0,-150,l),
(50,-150,o),
(100,-50,o),
(100,0,c),
(100,50,l)
);
},
{
ref = "alef-ar.02.12";
}
);
width = 250;
}
);
metricLeft = "alef-ar";
},
{
glyphname = "alef-ar.02.13";
kernLeft = "straight-r";
kernRight = "alef-wide";
layers = (
{
layerId = "299DE00D-7BC2-4DFB-A399-2750234EE670";
shapes = (
{
closed = 1;
nodes = (
(50,100,l),
(50,0,l),
(150,0,l),
(150,100,l)
);
},
{
ref = "alef-ar.01.02";
},
{
pos = (150,0);
ref = _zuluf100;
}
);
width = 300;
}
);
metricLeft = "alef-ar";
metricRight = "alef-ar.02.00";
},
{
glyphname = "alef-ar.02.14";
kernLeft = "straight-r";
kernRight = "alef-wide";
layers = (
{
layerId = "299DE00D-7BC2-4DFB-A399-2750234EE670";
shapes = (
{
closed = 1;
nodes = (
(50,100,l),
(50,0,l),
(200,0,l),
(200,100,l)
);
},
{
ref = "alef-ar.01.02";
},
{
pos = (200,0);
ref = _zuluf100;
}
);
width = 350;
}
);
metricLeft = "alef-ar";
metricRight = "alef-ar.02.03";
},
{
glyphname = "alef-ar.02.16";
kernLeft = "straight-r";
layers = (
{
anchors = (
{
name = bottom;
pos = (200,0);
}
);
layerId = "299DE00D-7BC2-4DFB-A399-2750234EE670";
shapes = (
{
closed = 1;
nodes = (
(0,50,l),
(0,-150,l),
(50,-150,o),
(100,-50,o),
(100,0,c),
(100,50,l)
);
},
{
ref = "alef-ar.02.17";
}
);
width = 250;
}
);
metricLeft = "alef-ar";
},
{
glyphname = "alef-ar.02.18";
kernLeft = "straight-r";
kernRight = "alef-wide";
layers = (
{
layerId = "299DE00D-7BC2-4DFB-A399-2750234EE670";
shapes = (
{
closed = 1;
nodes = (
(50,100,l),
(50,0,l),
(150,0,l),
(150,100,l)
);
},
{
ref = "alef-ar.01.03";
},
{
pos = (150,0);
ref = _zuluf100;
}
);
width = 300;
}
);
metricLeft = "alef-ar";
},
{
glyphname = "alef-ar.02.19";
kernLeft = "straight-r";
kernRight = "alef-wide";
layers = (
{
layerId = "299DE00D-7BC2-4DFB-A399-2750234EE670";
shapes = (
{
closed = 1;
nodes = (
(50,100,l),
(50,0,l),
(200,0,l),
(200,100,l)
);
},
{
pos = (200,0);
ref = _zuluf100;
},
{
ref = "alef-ar.01.03";
}
);
width = 350;
}
);
metricLeft = "alef-ar";
},
{
glyphname = "alef-ar.02.21";
kernLeft = "straight-r";
kernRight = "alef-wide";
layers = (
{
layerId = "299DE00D-7BC2-4DFB-A399-2750234EE670";
shapes = (
{
closed = 1;
nodes = (
(50,100,l),
(50,0,l),
(150,0,l),
(150,100,l)
);
},
{
ref = "alef-ar.01.05";
},
{
pos = (150,0);
ref = _zuluf100;
}
);
width = 300;
}
);
metricLeft = "alef-ar.01.05";
metricRight = "alef-ar.02.00";
},
{
glyphname = "alef-ar.02.22";
kernLeft = "straight-r";
kernRight = "alef-wide";
layers = (
{
layerId = "299DE00D-7BC2-4DFB-A399-2750234EE670";
shapes = (
{
closed = 1;
nodes = (
(50,100,l),
(50,0,l),
(200,0,l),
(200,100,l)
);
},
{
ref = "alef-ar.01.05";
},
{
pos = (200,0);
ref = _zuluf100;
}
);
width = 350;
}
);
metricLeft = "alef-ar.01.05";
metricRight = "alef-ar.02.03";
},
{
glyphname = "alef-ar.02.23";
kernLeft = "straight-r";
kernRight = "alef-wide";
layers = (
{
layerId = "299DE00D-7BC2-4DFB-A399-2750234EE670";
shapes = (
{
closed = 1;
nodes = (
(50,100,l),
(50,0,l),
(200,0,l),
(200,100,l)
);
},
{
pos = (200,0);
ref = _zuluf100;
},
{
ref = "alef-ar.01.04";
}
);
width = 350;
}
);
metricLeft = "alef-ar";
},
{
glyphname = "alef-ar.02.24";
kernLeft = "straight-r";
kernRight = "alef-wide";
layers = (
{
layerId = "299DE00D-7BC2-4DFB-A399-2750234EE670";
shapes = (
{
closed = 1;
nodes = (
(50,100,l),
(50,0,l),
(150,0,l),
(150,100,l)
);
},
{
ref = "alef-ar.01.04";
},
{
pos = (150,0);
ref = _zuluf100;
}
);
width = 300;
}
);
metricLeft = "alef-ar";
},
{
glyphname = "alef-ar.02.26";
kernLeft = "straight-r";
kernRight = "alef-wide";
layers = (
{
anchors = (
{
name = bottom;
pos = (200,0);
}
);
layerId = "299DE00D-7BC2-4DFB-A399-2750234EE670";
shapes = (
{
closed = 1;
nodes = (
(0,50,l),
(0,-150,l),
(50,-150,o),
(100,-50,o),
(100,0,c),
(100,50,l)
);
},
{
ref = "alef-ar.02.25";
}
);
width = 250;
}
);
metricLeft = "alef-ar";
},
{
glyphname = "behDotless-ar";
kernRight = "straight-l";
layers = (
{
anchors = (
{
name = bottom;
pos = (450,-50);
},
{
name = top;
pos = (450,350);
}
);
layerId = "299DE00D-7BC2-4DFB-A399-2750234EE670";
shapes = (
{
closed = 1;
nodes = (
(650,0,l),
(650,100,l),
(150,100,l),
(150,0,l)
);
},
{
closed = 1;
nodes = (
(800,0,l),
(800,250,l),
(700,250,l),
(700,100,l),
(700,0,l)
);
},
{
pos = (150,0);
ref = _zuluf100;
scale = (-1,1);
},
{
angle = 90;
pos = (800,250);
ref = _zuluf100;
},
{
pos = (650,0);
ref = "-beh";
}
);
width = 800;
}
);
unicode = 1646;
},
{
glyphname = "behDotless-ar.low";
kernRight = "straight-l";
layers = (
{
anchors = (
{
name = bottom;
pos = (450,-50);
},
{
name = top;
pos = (450,350);
}
);
layerId = "299DE00D-7BC2-4DFB-A399-2750234EE670";
shapes = (
{
closed = 1;
nodes = (
(650,0,l),
(650,100,l),
(150,100,l),
(150,0,l)
);
},
{
closed = 1;
nodes = (
(800,0,l),
(800,200,l),
(700,200,l),
(700,0,l)
);
},
{
pos = (150,0);
ref = _zuluf100;
scale = (-1,1);
},
{
angle = 90;
pos = (800,200);
ref = _zuluf100;
},
{
pos = (650,0);
ref = "-beh";
}
);
width = 800;
}
);
},
{
glyphname = "behDotless-ar.init";
kernRight = "straight-l";
layers = (
{
anchors = (
{
name = bottom;
pos = (100,-50);
},
{
name = exit;
pos = (-50,0);
},
{
name = top;
pos = (100,450);
},
{
name = topV;
pos = (100,450);
}
);
layerId = "299DE00D-7BC2-4DFB-A399-2750234EE670";
shapes = (
{
closed = 1;
nodes = (
(150,0,l),
(150,250,l),
(50,250,l),
(50,100,l),
(50,0,l)
);
},
{
angle = 90;
pos = (150,250);
ref = _zuluf100;
},
{
ref = "-beh";
}
);
width = 150;
}
);
},
{
glyphname = "behDotless-ar.init.behHeh";
kernRight = "straight-l";
layers = (
{
anchors = (
{
name = bottom;
pos = (-125,-50);
},
{
name = top;
pos = (-146,666);
},
{
name = topV;
pos = (-146,666);
}
);
layerId = "299DE00D-7BC2-4DFB-A399-2750234EE670";
shapes = (
{
closed = 1;
nodes = (
(-96,246,l),
(-96,466,l),
(-196,466,l),
(-196,316,l)
);
},
{
angle = 90;
pos = (-96,466);
ref = _zuluf100;
}
);
width = 0;
}
);
},
{
glyphname = "behDotless-ar.init.low";
kernRight = "straight-l";
layers = (
{
anchors = (
{
name = bottom;
pos = (100,-50);
},
{
name = top;
pos = (100,400);
},
{
name = topV;
pos = (100,400);
}
);
layerId = "299DE00D-7BC2-4DFB-A399-2750234EE670";
shapes = (
{
closed = 1;
nodes = (
(150,0,l),
(150,200,l),
(50,200,l),
(50,0,l)
);
},
{
angle = 90;
pos = (150,200);
ref = _zuluf100;
},
{
ref = "-beh";
}
);
width = 150;
}
);
},
{
glyphname = "hah-ar";
kernLeft = "straight-r";
kernRight = hah;
layers = (
{
anchors = (
{
name = bottom;
pos = (500,-50);
},
{
name = entry;
pos = (176,150);
},
{
name = top;
pos = (50,500);
}
);
layerId = "299DE00D-7BC2-4DFB-A399-2750234EE670";
shapes = (
{
closed = 1;
nodes = (
(300,-150,l),
(300,-50,l),
(124,-50,ls),
(111,-50,o),
(100,-39,o),
(100,-25,cs),
(100,-11,o),
(111,0,o),
(124,0,cs),
(250,0,l),
(250,100,l),
(126,100,ls),
(57,100,o),
(0,45,o),
(0,-25,cs),
(0,-94,o),
(57,-150,o),
(126,-150,cs)
);
},
{
closed = 1;
nodes = (
(-28,398,o),
(-7,365,o),
(0,325,c),
(10,342,o),
(25,350,o),
(39,350,cs),
(61,350,o),
(76,342,o),
(87,319,cs),
(93,307,o),
(118,237,o),
(125,219,cs),
(141,179,o),
(163,137,o),
(187,100,c),
(180,100,l),
(180,0,l),
(550,0,l),
(492,23,o),
(450,85,o),
(450,150,c),
(450,150,o),
(434,100,o),
(369,100,cs),
(290,100,o),
(237,208,o),
(219,255,cs),
(204,295,o),
(192,329,o),
(177,361,cs),
(150,419,o),
(104,449,o),
(44,449,cs),
(17,449,o),
(-28,438,o),
(-58,425,c)
);
},
{
pos = (300,-150);
ref = _zuluf100;
}
);
width = 550;
},
{
associatedMasterId = "299DE00D-7BC2-4DFB-A399-2750234EE670";
layerId = "14731871-79B7-49C2-81D6-77AE47098CE6";
name = "Oct 21 19, 23:20";
shapes = (
{
closed = 0;
nodes = (
(-9,640,l),
(441,-140,l)
);
},
{
closed = 0;
nodes = (
(-124,640,l),
(326,-140,l)
);
},
{
closed = 0;
nodes = (
(-182,640,l),
(268,-140,l)
);
},
{
closed = 0;
nodes = (
(-200,450,l),
(650,450,l)
);
},
{
closed = 0;
nodes = (
(-200,425,l),
(650,425,l)
);
},
{
closed = 0;
nodes = (
(-200,350,l),
(650,350,l)
);
},
{
closed = 0;
nodes = (
(-200,325,l),
(650,325,l)
);
},
{
closed = 0;
nodes = (
(-99,640,l),
(351,-140,l)
);
},
{
closed = 0;
nodes = (
(250,92,l),
(219,131,o),
(188,185,o),
(168,237,cs),
(152,278,o),
(142,310,o),
(128,340,cs),
(109,380,o),
(82,399,o),
(40,399,cs),
(18,399,o),
(-3,393,o),
(-25,383,cs)
);
},
{
closed = 1;
nodes = (
(18,346,o),
(30,349,o),
(44,349,cs),
(66,349,o),
(76,342,o),
(87,319,cs),
(95,302,o),
(100,284,o),
(109,261,cs),
(114,248,o),
(119,234,o),
(125,219,cs),
(147,164,o),
(180,104,o),
(215,61,c),
(293,123,l),
(264,160,o),
(237,208,o),
(219,255,cs),
(204,295,o),
(192,329,o),
(177,361,cs),
(150,419,o),
(104,449,o),
(44,449,cs),
(17,449,o),
(-12,442,o),
(-42,429,c),
(-28,398,o),
(-14,368,o),
(0,337,c)
);
}
);
visible = 1;
width = 550;
}
);
unicode = 1581;
},
{
glyphname = "hah-ar.01.01";
kernLeft = "straight-r";
kernRight = hah;
layers = (
{
anchors = (
{
name = bottom;
pos = (500,-50);
},
{
name = entry;
pos = (176,150);
},
{
name = top;
pos = (50,500);
}
);
layerId = "299DE00D-7BC2-4DFB-A399-2750234EE670";
shapes = (
{
closed = 1;
nodes = (
(300,-150,l),
(300,-50,l),
(124,-50,ls),
(111,-50,o),
(100,-39,o),
(100,-25,cs),
(100,-11,o),
(111,0,o),
(124,0,cs),
(250,0,l),
(250,100,l),
(126,100,ls),
(57,100,o),
(0,45,o),
(0,-25,cs),
(0,-94,o),
(57,-150,o),
(126,-150,cs)
);
},
{
closed = 1;
nodes = (
(-28,398,o),
(-7,365,o),
(0,325,c),
(10,342,o),
(25,350,o),
(39,350,cs),
(61,350,o),
(76,342,o),
(87,319,cs),
(93,307,o),
(118,237,o),
(125,219,cs),
(141,179,o),
(163,137,o),
(187,100,c),
(180,100,l),
(180,0,l),
(695,0,l),
(637,23,o),
(595,85,o),
(595,150,c),
(595,150,o),
(578,95,o),
(445,95,cs),
(271,95,o),
(237,208,o),
(219,255,cs),
(204,295,o),
(192,329,o),
(177,361,cs),
(150,419,o),
(104,449,o),
(44,449,cs),
(17,449,o),
(-28,438,o),
(-58,425,c)
);
},
{
pos = (300,-150);
ref = _zuluf100;
}
);
width = 695;
},
{
associatedMasterId = "299DE00D-7BC2-4DFB-A399-2750234EE670";
layerId = "C8D5D10F-5B8D-400F-8B5E-C2D5A0AF9A9C";
name = "Dec 14 19, 16:14";
shapes = (
{
closed = 1;
nodes = (
(350,-1,l),
(350,-1,o),
(350,-50,o),
(300,-50,c),
(124,-50,l),
(111,-50,o),
(100,-40,o),
(100,-25,c),
(100,-11,o),
(111,-1,o),
(124,-1,c),
(695,-1,l),
(637,23,o),
(595,84,o),
(595,149,c),
(595,149,o),
(569,96,o),
(463,95,c),
(301,94,o),
(258,154,o),
(219,254,c),
(203,293,o),
(192,329,o),
(177,360,c),
(149,418,o),
(104,448,o),
(44,448,c),
(17,448,o),
(-29,438,o),
(-58,424,c),
(-29,398,o),
(-7,365,o),
(0,324,c),
(10,342,o),
(25,350,o),
(39,350,c),
(61,350,o),
(76,342,o),
(86,318,c),
(93,306,o),
(118,236,o),
(125,218,c),
(141,178,o),
(163,136,o),
(187,100,c),
(126,100,l),
(57,100,o),
(0,45,o),
(0,-25,c),
(0,-94,o),
(57,-150,o),
(126,-150,c),
(450,-150,l),
(392,-128,o),
(350,-66,o),
(350,-1,c)
);
}
);
visible = 1;
width = 695;
}
);
},
{
glyphname = "hah-ar.01.02";
kernLeft = hah.alt;
kernRight = hah;
layers = (
{
anchors = (
{
name = bottom;
pos = (147,-50);
},
{
name = entry;
pos = (140,150);
},
{
name = top;
pos = (65,983);
}
);
guides = (
{
angle = 90;
pos = (289,638);
},
{
angle = 90;
pos = (389,638);
},
{
angle = 90;
pos = (339,638);
},
{
angle = 90;
pos = (50,638);
},
{
angle = 90;
pos = (100,638);
}
);
layerId = "299DE00D-7BC2-4DFB-A399-2750234EE670";
shapes = (
{
closed = 1;
nodes = (
(3,66,o),
(96,-233,o),
(339,-129,c),
(158,-150,o),
(170,11,o),
(274,0,c),
(236,86,l)
);
},
{
closed = 1;
nodes = (
(490,0,l),
(432,23,o),
(390,85,o),
(390,150,c),
(390,150,o),
(354,100,o),
(289,100,cs),
(220,100,l),
(220,0,l)
);
},
{
pos = (72,0);
ref = _hah.part.04;
}
);
width = 490;
},
{
associatedMasterId = "299DE00D-7BC2-4DFB-A399-2750234EE670";
layerId = "14731871-79B7-49C2-81D6-77AE47098CE6";
name = "Oct 21 19, 23:20";
shapes = (
{
closed = 1;
nodes = (
(444,100,o),
(506,178,o),
(506,275,cs),
(506,372,o),
(444,450,o),
(369,450,cs),
(293,450,o),
(231,372,o),
(231,275,cs),
(231,178,o),
(293,100,o),
(369,100,cs)
);
}
);
visible = 1;
width = 568;
}
);
},
{
glyphname = "hah-ar.01.03";
kernLeft = hah.alt;
kernRight = hah;
layers = (
{
anchors = (
{
name = bottom;
pos = (147,-50);
},
{
name = entry;
pos = (95,150);
},
{
name = top;
pos = (65,983);
}
);
guides = (
{
angle = 90;
pos = (289,638);
},
{
angle = 90;
pos = (389,638);
},
{
angle = 90;
pos = (339,638);
},
{
angle = 90;
pos = (50,638);
},
{
angle = 90;
pos = (100,638);
}
);
layerId = "299DE00D-7BC2-4DFB-A399-2750234EE670";
shapes = (
{
closed = 1;
nodes = (
(3,66,o),
(96,-233,o),
(339,-129,c),
(158,-150,o),
(170,11,o),
(274,0,c),
(236,86,l)
);
},
{
closed = 1;
nodes = (
(490,0,l),
(432,23,o),
(390,85,o),
(390,150,c),
(390,150,o),
(354,100,o),
(289,100,cs),
(220,100,l),
(220,0,l)
);
},
{
pos = (72,0);
ref = _hah.part.05;
}
);
width = 490;
},
{
associatedMasterId = "299DE00D-7BC2-4DFB-A399-2750234EE670";
layerId = "14731871-79B7-49C2-81D6-77AE47098CE6";
name = "Oct 21 19, 23:20";
shapes = (
{
closed = 1;
nodes = (
(444,100,o),
(506,178,o),
(506,275,cs),
(506,372,o),
(444,450,o),
(369,450,cs),
(293,450,o),
(231,372,o),
(231,275,cs),
(231,178,o),
(293,100,o),
(369,100,cs)
);
}
);
width = 568;
}
);
},
{
glyphname = "hah-ar.fina";
kernLeft = "straight-r";
layers = (
{
anchors = (
{
name = bottom;
pos = (474,-50);
},
{
name = top;
pos = (50,500);
}
);
layerId = "299DE00D-7BC2-4DFB-A399-2750234EE670";
shapes = (
{
closed = 1;
nodes = (
(300,-150,l),
(300,-50,l),
(124,-50,ls),
(111,-50,o),
(100,-39,o),
(100,-25,cs),
(100,-11,o),
(111,0,o),
(124,0,cs),
(250,0,l),
(250,100,l),
(126,100,ls),
(57,100,o),
(0,45,o),
(0,-25,cs),
(0,-94,o),
(57,-150,o),
(126,-150,cs)
);
},
{
closed = 1;
nodes = (
(370,100,l),
(291,100,o),
(237,208,o),
(219,255,cs),
(204,295,o),
(192,329,o),
(177,361,cs),
(150,419,o),
(104,449,o),
(44,449,cs),
(17,449,o),
(-28,438,o),
(-58,425,c),
(-28,398,o),
(-7,365,o),
(0,325,c),
(10,342,o),
(25,350,o),
(39,350,cs),
(61,350,o),
(76,342,o),
(87,319,cs),
(93,307,o),
(118,237,o),
(125,219,cs),
(141,179,o),
(163,137,o),
(187,100,c),
(180,100,l),
(180,0,l),
(370,0,l)
);
},
{
pos = (300,-150);
ref = _zuluf100;
}
);
width = 370;
},
{
associatedMasterId = "299DE00D-7BC2-4DFB-A399-2750234EE670";
hints = (
{
name = _corner.100;
options = 1;
origin = (0,8);
scale = (1,-1);
type = Corner;
}
);
layerId = "D68B5234-B2C5-4A0A-844C-707699F35AAD";
name = "Oct 21 19, 22:38";
shapes = (
{
closed = 1;
nodes = (
(124,0,ls),
(111,0,o),
(100,-11,o),
(100,-25,c),
(100,-39,o),
(111,-50,o),
(124,-50,cs),
(300,-50,l),
(300,-150,l),
(126,-150,ls),
(57,-150,o),
(0,-94,o),
(0,-25,c),
(0,45,o),
(57,100,o),
(126,100,c),
(250,100,l),
(250,0,l)
);
},
{
closed = 1;
nodes = (
(200,0,l),
(200,100,l),
(450,100,l),
(450,0,l)
);
},
{
closed = 0;
nodes = (
(-9,640,l),
(441,-140,l)
);
},
{
closed = 0;
nodes = (
(-124,640,l),
(326,-140,l)
);
},
{
closed = 0;
nodes = (
(-182,640,l),
(268,-140,l)
);
},
{
closed = 0;
nodes = (
(-200,450,l),
(650,450,l)
);
},
{
closed = 0;
nodes = (
(-200,425,l),
(650,425,l)
);
},
{
closed = 0;
nodes = (
(-200,350,l),
(650,350,l)
);
},
{
closed = 0;
nodes = (
(-200,325,l),
(650,325,l)
);
},
{
closed = 0;
nodes = (
(-99,640,l),
(351,-140,l)
);
},
{
closed = 0;
nodes = (
(250,92,l),
(219,131,o),
(188,185,o),
(168,237,cs),
(152,278,o),
(142,310,o),
(128,340,cs),
(109,380,o),
(82,399,o),
(40,399,cs),
(18,399,o),
(-3,393,o),
(-25,383,cs)
);
},
{
closed = 1;
nodes = (
(18,346,o),
(30,349,o),
(44,349,cs),
(66,349,o),
(76,342,o),
(87,319,cs),
(95,302,o),
(100,284,o),
(109,261,cs),
(114,248,o),
(119,234,o),
(125,219,cs),
(147,164,o),
(180,104,o),
(215,61,c),
(293,123,l),
(264,160,o),
(237,208,o),
(219,255,cs),
(204,295,o),
(192,329,o),
(177,361,cs),
(150,419,o),
(104,449,o),
(44,449,cs),
(17,449,o),
(-12,442,o),
(-42,429,c),
(-28,398,o),
(-14,368,o),
(0,337,c)
);
}
);
visible = 1;
width = 370;
}
);
},
{
glyphname = "hah-ar.medi";
layers = (
{
anchors = (
{
name = bottom;
pos = (125,-50);
},
{
name = top;
pos = (0,600);
}
);
layerId = "299DE00D-7BC2-4DFB-A399-2750234EE670";
shapes = (
{
closed = 1;
nodes = (
(239,90,l),
(192,101,o),
(161,127,o),
(161,181,cs),
(161,236,o),
(200,300,o),
(200,377,cs),
(200,470,o),
(128,550,o),
(40,550,c),
(-150,550,l),
(-113,500,o),
(-97,450,o),
(-100,400,c),
(-92,416,o),
(-64,450,o),
(-25,450,cs),
(-12,450,o),
(-7,450,o),
(10,450,c),
(53,450,o),
(100,419,o),
(100,376,cs),
(100,312,o),
(59,261,o),
(59,181,cs),
(59,136,o),
(71,108,o),
(88,90,c)
);
},
{
closed = 1;
nodes = (
(200,0,l),
(200,100,l),
(-50,100,l),
(-50,0,l)
);
}
);
width = 200;
}
);
},
{
glyphname = "hah-ar.medi.01.01";
layers = (
{
anchors = (
{
name = bottom;
pos = (232,-50);
},
{
name = top;
pos = (108,500);
}
);
layerId = "299DE00D-7BC2-4DFB-A399-2750234EE670";
shapes = (
{
closed = 1;
nodes = (
(428,100,l),
(349,100,o),
(295,208,o),
(277,255,cs),
(262,295,o),
(250,329,o),
(235,361,cs),
(208,419,o),
(162,449,o),
(102,449,cs),
(75,449,o),
(30,438,o),
(0,425,c),
(30,398,o),
(51,365,o),
(58,325,c),
(68,342,o),
(83,350,o),
(97,350,cs),
(119,350,o),
(134,342,o),
(145,319,cs),
(151,307,o),
(176,237,o),
(183,219,cs),
(199,179,o),
(221,137,o),
(245,100,c),
(-50,100,l),
(-50,0,l),
(428,0,l)
);
}
);
width = 428;
}
);
},
{
glyphname = "hah-ar.medi.01.02";
layers = (
{
anchors = (
{
name = bottom;
pos = (278,-50);
},
{
name = top;
pos = (66,500);
}
);
layerId = "299DE00D-7BC2-4DFB-A399-2750234EE670";
shapes = (
{
closed = 1;
nodes = (
(513,-150,l),
(233,334,ls),
(167,447,o),
(96,467,o),
(0,439,c),
(30,412,o),
(48,386,o),
(55,346,c),
(72,354,o),
(105,357,o),
(122,327,cs),
(398,-150,l)
);
},
{
closed = 1;
nodes = (
(403,0,l),
(403,100,l),
(-50,100,l),
(-50,0,l)
);
}
);
width = 403;
},
{
associatedMasterId = "299DE00D-7BC2-4DFB-A399-2750234EE670";
layerId = "8F91894D-0163-416E-AADA-8EC1CBE9D10B";
name = "Oct 21 19, 23:31";
shapes = (
{
closed = 0;
nodes = (
(-45,640,l),
(405,-140,l)
);
},
{
closed = 0;
nodes = (
(-218,640,l),
(232,-140,l)
);
},
{
closed = 0;
nodes = (
(-236,450,l),
(614,450,l)
);
},
{
closed = 0;
nodes = (
(-236,350,l),
(614,350,l)
);
},
{
closed = 0;
nodes = (
(-160,640,l),
(290,-140,l)
);
}
);
visible = 1;
width = 403;
}
);
},
{
glyphname = "hah-ar.medi.01.03";
layers = (
{
anchors = (
{
name = bottom;
pos = (75,-50);
},
{
name = top;
pos = (-197,1070);
}
);
guides = (
{
angle = 90;
pos = (217,638);
},
{
angle = 90;
pos = (106,638);
},
{
angle = 90;
pos = (306,638);
},
{
angle = 90;
pos = (167,638);
},
{
angle = 90;
pos = (-163,638);
}
);
layerId = "299DE00D-7BC2-4DFB-A399-2750234EE670";
shapes = (
{
closed = 1;
nodes = (
(13,151,o),
(217,556,o),
(217,907,cs),
(217,1072,o),
(157,1200,o),
(-23,1200,cs),
(-163,1200,l),
(-126,1150,o),
(-110,1100,o),
(-113,1050,c),
(-105,1066,o),
(-77,1100,o),
(-18,1100,cs),
(84,1100,o),
(117,1025,o),
(117,906,cs),
(117,540,o),
(-116,-32,o),
(306,-150,c)
);
},
{
closed = 1;
nodes = (
(240,0,l),
(240,100,l),
(-50,100,l),
(-50,0,l)
);
}
);
width = 240;
},
{
anchors = (
{
name = bottom;
pos = (75,-50);
},
{
name = top;
pos = (-7,583);
}
);
associatedMasterId = "299DE00D-7BC2-4DFB-A399-2750234EE670";
guides = (
{
angle = 90;
pos = (217,638);
},
{
angle = 90;
pos = (106,638);
},
{
angle = 90;
pos = (306,638);
},
{
angle = 90;
pos = (167,638);
},
{
angle = 90;
pos = (-163,638);
}
);
layerId = "68A4F295-5F80-420F-9561-6A58F6704851";
name = Short;
shapes = (
{
closed = 1;
nodes = (
(44,81,o),
(217,356,o),
(217,557,cs),
(217,672,o),
(157,800,o),
(-23,800,cs),
(-163,800,l),
(-126,750,o),
(-110,700,o),
(-113,650,c),
(-105,666,o),
(-77,700,o),
(-18,700,cs),
(84,700,o),
(117,625,o),
(117,556,cs),
(117,340,o),
(-85,-22,o),
(296,-150,c)
);
},
{
closed = 1;
nodes = (
(240,0,l),
(240,100,l),
(-50,100,l),
(-50,0,l)
);
}
);
width = 240;
},
{
anchors = (
{
name = bottom;
pos = (75,-50);
},
{
name = top;
pos = (-7,983);
}
);
associatedMasterId = "299DE00D-7BC2-4DFB-A399-2750234EE670";
guides = (
{
angle = 90;
pos = (218,638);
},
{
angle = 90;
pos = (106,638);
},
{
angle = 90;
pos = (306,638);
}
);
layerId = "C41A8726-FD36-4780-A160-2622ACD6A58A";
name = "19 May 21, 16:57";
shapes = (
{
closed = 1;
nodes = (
(142,0,o),
(148,187,o),
(147,231,cs),
(142,464,o),
(236,766,o),
(213,967,cs),
(201,1072,o),
(119,1200,o),
(-10,1200,cs),
(-150,1200,l),
(-113,1150,o),
(-97,1100,o),
(-100,1050,c),
(-92,1066,o),
(-64,1097,o),
(-25,1100,cs),
(59,1107,o),
(109,1025,o),
(117,966,cs),
(145,763,o),
(53,475,o),
(59,231,cs),
(63,68,o),
(119,-99,o),
(250,-150,c)
);
},
{
closed = 1;
nodes = (
(240,0,l),
(240,100,l),
(-50,100,l),
(-50,0,l)
);
}
);
width = 240;
},
{
anchors = (
{
name = bottom;
pos = (75,-50);
},
{
name = top;
pos = (-7,583);
}
);
associatedMasterId = "299DE00D-7BC2-4DFB-A399-2750234EE670";
layerId = "122BFE9F-0B29-4567-A3BF-CBF23A6D71D9";
name = "19 May 21, 17:01";
shapes = (
{
closed = 1;
nodes = (
(142,0,o),
(149,187,o),
(149,193,cs),
(146,335,o),
(186,440,o),
(192,568,cs),
(198,703,o),
(119,800,o),
(-10,800,cs),
(-150,800,l),
(-113,750,o),
(-97,700,o),
(-100,650,c),
(-92,666,o),
(-64,697,o),
(-25,700,cs),
(59,706,o),
(98,656,o),
(97,562,cs),
(95,437,o),
(54,346,o),
(59,208,cs),
(65,68,o),
(119,-99,o),
(250,-150,c)
);
},
{
closed = 1;
nodes = (
(240,0,l),
(240,100,l),
(-20,100,l),
(-20,0,l)
);
}
);
width = 240;
}
);
},
{
glyphname = "hah-ar.medi.01.04";
layers = (
{
anchors = (
{
name = bottom;
pos = (147,-50);
},
{
name = top;
pos = (-141,1070);
}
);
guides = (
{
angle = 90;
pos = (289,638);
},
{
angle = 90;
pos = (189,638);
},
{
angle = 90;
pos = (152,638);
},
{
angle = 90;
pos = (50,638);
},
{
angle = 90;
pos = (-111,638);
}
);
layerId = "299DE00D-7BC2-4DFB-A399-2750234EE670";
shapes = (
{
closed = 1;
nodes = (
(289,0,l),
(289,100,l),
(-51,100,l),
(-51,0,l)
);
},
{
alignment = -1;
pos = (72,0);
ref = _hah.part.04;
}
);
width = 289;
},
{
anchors = (
{
name = bottom;
pos = (75,-50);
},
{
name = top;
pos = (-7,983);
}
);
associatedMasterId = "299DE00D-7BC2-4DFB-A399-2750234EE670";
guides = (
{
angle = 90;
pos = (217,638);
},
{
angle = 90;
pos = (117,638);
},
{
angle = 90;
pos = (80,638);
},
{
angle = 90;
pos = (-23,638);
},
{
angle = 90;
pos = (-183,638);
}
);
layerId = "2DFD3E2E-8CB3-4EE9-9A29-4601F41C19EA";
name = "19 May 21, 17:25";
shapes = (
{
closed = 1;
nodes = (
(292,100,o),
(354,178,o),
(354,275,cs),
(354,372,o),
(292,450,o),
(217,450,cs),
(141,450,o),
(79,372,o),
(79,275,cs),
(79,178,o),
(141,100,o),
(217,100,cs)
);
}
);
visible = 1;
width = 217;
}
);
},
{
glyphname = "hah-ar.medi.01.05";
layers = (
{
anchors = (
{
name = bottom;
pos = (147,-50);
},
{
name = top;
pos = (-142,1070);
}
);
guides = (
{
angle = 90;
pos = (289,638);
},
{
angle = 90;
pos = (189,638);
},
{
angle = 90;
pos = (151,638);
},
{
angle = 90;
pos = (50,638);
},
{
angle = 90;
pos = (-111,638);
},
{
angle = 90;
pos = (389,638);
},
{
pos = (289,450);
},
{
pos = (289,575);
}
);
layerId = "299DE00D-7BC2-4DFB-A399-2750234EE670";
shapes = (
{
closed = 1;
nodes = (
(289,0,l),
(289,100,l),
(-51,100,l),
(-51,0,l)
);
},
{
pos = (72,0);
ref = _hah.part.05;
}
);
width = 289;
},
{
anchors = (
{
name = bottom;
pos = (75,-50);
},
{
name = top;
pos = (-7,983);
}
);
associatedMasterId = "299DE00D-7BC2-4DFB-A399-2750234EE670";
guides = (
{
angle = 90;
pos = (217,638);
},
{
angle = 90;
pos = (117,638);
},
{
angle = 90;
pos = (80,638);
},
{
angle = 90;
pos = (-23,638);
},
{
angle = 90;
pos = (-183,638);
}
);
layerId = "2DFD3E2E-8CB3-4EE9-9A29-4601F41C19EA";
name = "19 May 21, 17:25";
shapes = (
{
closed = 1;
nodes = (
(292,100,o),
(354,168,o),
(354,275,cs),
(354,382,o),
(292,450,o),
(217,450,cs),
(141,450,o),
(79,382,o),
(79,275,cs),
(79,168,o),
(141,100,o),
(217,100,cs)
);
}
);
visible = 1;
width = 217;
}
);
},
{
glyphname = "hah-ar.init";
kernRight = hah;
layers = (
{
anchors = (
{
name = entry;
pos = (140,150);
},
{
name = exit;
pos = (-30,0);
}
);
layerId = "299DE00D-7BC2-4DFB-A399-2750234EE670";
shapes = (
{
closed = 1;
nodes = (
(300,0,l),
(300,100,l),
(200,100,l),
(200,0,l)
);
},
{
ref = "hah-ar.medi";
},
{
pos = (300,0);
ref = _zuluf100;
}
);
width = 450;
}
);
},
{
glyphname = "hah-ar.init.01.01";
kernRight = hah;
layers = (
{
anchors = (
{
name = bottom;
pos = (308,-50);
},
{
name = entry;
pos = (227,150);
},
{
name = exit;
pos = (-30,0);
},
{
name = top;
pos = (108,500);
}
);
layerId = "299DE00D-7BC2-4DFB-A399-2750234EE670";
shapes = (
{
closed = 1;
nodes = (
(30,398,o),
(51,365,o),
(58,325,c),
(68,342,o),
(83,350,o),
(97,350,cs),
(119,350,o),
(134,342,o),
(145,319,cs),
(151,307,o),
(176,237,o),
(183,219,cs),
(199,179,o),
(221,137,o),
(245,100,c),
(-50,100,l),
(-50,0,l),
(608,0,l),
(550,23,o),
(508,85,o),
(508,150,c),
(508,150,o),
(492,100,o),
(427,100,cs),
(348,100,o),
(295,208,o),
(277,255,cs),
(262,295,o),
(250,329,o),
(235,361,cs),
(208,419,o),
(162,449,o),
(102,449,cs),
(75,449,o),
(30,438,o),
(0,425,c)
);
}
);
width = 608;
}
);
},
{
glyphname = "hah-ar.init.01.02";
kernRight = hah;
layers = (
{
anchors = (
{
name = entry;
pos = (225,150);
},
{
name = exit;
pos = (-30,0);
}
);
layerId = "299DE00D-7BC2-4DFB-A399-2750234EE670";
shapes = (
{
closed = 1;
nodes = (
(366,0,l),
(476,0,l),
(476,100,l),
(366,100,l)
);
},
{
pos = (476,0);
ref = _zuluf100;
},
{
ref = "hah-ar.medi.01.02";
}
);
width = 626;
}
);
},
{
glyphname = "hah-ar.init.01.04";
kernRight = hah;
layers = (
{
anchors = (
{
name = entry;
pos = (133,150);
},
{
name = exit;
}
);
layerId = "299DE00D-7BC2-4DFB-A399-2750234EE670";
shapes = (
{
closed = 1;
nodes = (
(490,0,l),
(432,23,o),
(390,85,o),
(390,150,c),
(390,150,o),
(354,100,o),
(289,100,cs),
(220,100,l),
(220,0,l)
);
},
{
alignment = -1;
ref = "hah-ar.medi.01.04";
}
);
width = 490;
}
);
},
{
glyphname = "hah-ar.init.01.05";
kernRight = hah;
layers = (
{
anchors = (
{
name = exit;
}
);
layerId = "299DE00D-7BC2-4DFB-A399-2750234EE670";
shapes = (
{
closed = 1;
nodes = (
(490,0,l),
(432,23,o),
(390,85,o),
(390,150,c),
(390,150,o),
(354,100,o),
(289,100,cs),
(220,100,l),
(220,0,l)
);
},
{
alignment = -1;
ref = "hah-ar.medi.01.05";
}
);
width = 490;
}
);
},
{
glyphname = "hah-ar.init.narrow";
kernRight = hah;
layers = (
{
anchors = (
{
name = bottom;
pos = (125,-50);
},
{
name = entry;
pos = (150,150);
},
{
name = exit;
pos = (-30,0);
},
{
name = top;
pos = (0,600);
}
);
layerId = "299DE00D-7BC2-4DFB-A399-2750234EE670";
shapes = (
{
closed = 1;
nodes = (
(230,100,l),
(196,100,o),
(161,127,o),
(161,181,cs),
(161,236,o),
(200,300,o),
(200,377,cs),
(200,470,o),
(128,550,o),
(40,550,c),
(-150,550,l),
(-113,500,o),
(-97,450,o),
(-100,400,c),
(-92,416,o),
(-64,450,o),
(-25,450,cs),
(-12,450,o),
(-7,450,o),
(10,450,c),
(53,450,o),
(100,419,o),
(100,376,cs),
(100,312,o),
(59,261,o),
(59,181,cs),
(59,136,o),
(71,108,o),
(88,90,c)
);
},
{
closed = 1;
nodes = (
(230,0,l),
(230,100,l),
(-50,100,l),
(-50,0,l)
);
},
{
pos = (230,0);
ref = _zuluf100;
}
);
width = 380;
}
);
},
{
glyphname = "dal-ar";
kernLeft = "straight-r";
kernRight = "straight-l";
layers = (
{
layerId = "299DE00D-7BC2-4DFB-A399-2750234EE670";
shapes = (
{
closed = 1;
nodes = (
(0,200,l),
(100,200,l),
(100,400,l),
(0,400,l)
);
},
{
ref = "-dal";
},
{
angle = 90;
pos = (0,400);
ref = _zuluf100;
scale = (1,-1);
}
);
width = 800;
}
);
unicode = 1583;
},
{
glyphname = "dal-ar.02.00";
kernLeft = "straight-r";
kernRight = "straight-l";
layers = (
{
layerId = "299DE00D-7BC2-4DFB-A399-2750234EE670";
shapes = (
{
closed = 1;
nodes = (
(0,200,l),
(100,200,l),
(100,400,l),
(0,400,l)
);
},
{
ref = "-dal";
},
{
angle = -90;
ref = _zuluf100;
},
{
angle = 90;
pos = (0,400);
ref = _zuluf100;
scale = (1,-1);
}
);
width = 800;
}
);
},
{
glyphname = "reh-ar";
kernRight = "straight-l";
layers = (
{
anchors = (
{
name = bottom;
pos = (100,-200);
},
{
name = top;
pos = (100,300);
}
);
layerId = "299DE00D-7BC2-4DFB-A399-2750234EE670";
shapes = (
{
closed = 1;
nodes = (
(101,-150,o),
(150,-101,o),
(150,-42,cs),
(150,100,l),
(50,100,l),
(50,-50,ls),
(50,-85,o),
(23,-112,o),
(-12,-112,cs),
(-27,-112,o),
(-39,-108,o),
(-50,-100,c),
(-30,-130,o),
(3,-150,o),
(41,-150,cs)
);
},
{
angle = 90;
pos = (150,100);
ref = _zuluf100;
}
);
width = 150;
}
);
unicode = 1585;
},
{
glyphname = "reh-ar.01.01";
kernLeft = "reh-alt";
kernRight = "straight-l";
layers = (
{
anchors = (
{
name = bottom;
pos = (100,-200);
},
{
name = top;
pos = (100,300);
}
);
layerId = "299DE00D-7BC2-4DFB-A399-2750234EE670";
shapes = (
{
closed = 1;
nodes = (
(200,-123,o),
(200,-1,cs),
(200,95,o),
(159,150,o),
(100,250,c),
(100,189,o),
(86,141,o),
(50,100,c),
(81,68,o),
(95,30,o),
(100,0,cs),
(113,-72,o),
(63,-134,o),
(0,-135,c),
(81,-178,o)
);
}
);
width = 200;
}
);
},
{
glyphname = "reh-ar.fina.seen";
kernRight = "straight-l";
layers = (
{
anchors = (
{
name = top;
pos = (53,300);
}
);
layerId = "299DE00D-7BC2-4DFB-A399-2750234EE670";
shapes = (
{
closed = 1;
nodes = (
(23,-164,o),
(99,-165,o),
(154,-121,c),
(220,-70,o),
(230,23,o),
(180,89,c),
(125,160,l),
(46,99,l),
(101,28,l),
(135,-16,o),
(128,-79,o),
(84,-113,c),
(52,-138,o),
(5,-140,o),
(-30,-123,c)
);
},
{
angle = 127.99996;
pos = (146,133);
ref = _zuluf100;
}
);
width = 143;
}
);
},
{
glyphname = "seen-ar";
kernLeft = bowel;
kernRight = "straight-l";
layers = (
{
anchors = (
{
name = top;
pos = (400,450);
}
);
layerId = "299DE00D-7BC2-4DFB-A399-2750234EE670";
shapes = (
{
closed = 1;
nodes = (
(300,150,l),
(200,150,l),
(200,0,l),
(200,-55,o),
(155,-100,o),
(100,-100,c),
(45,-100,o),
(0,-55,o),
(0,0,c),
(0,-83,o),
(67,-150,o),
(150,-150,c),
(233,-150,o),
(300,-83,o),
(300,0,c)
);
},
{
closed = 1;
nodes = (
(600,0,l),
(600,100,l),
(200,100,l),
(200,0,l)
);
},
{
closed = 1;
nodes = (
(450,0,l),
(450,200,l),
(350,200,l),
(350,0,l)
);
},
{
closed = 1;
nodes = (
(600,0,l),
(600,250,l),
(500,250,l),
(500,0,l)
);
},
{
angle = 90;
pos = (600,250);
ref = _zuluf100;
},
{
angle = 90;
pos = (450,200);
ref = _zuluf100;
},
{
angle = 90;
pos = (300,150);
ref = _zuluf100;
}
);
width = 600;
}
);
unicode = 1587;
},
{
glyphname = "seen-ar.01.01";
kernLeft = bowel;
kernRight = "straight-l";
layers = (
{
anchors = (
{
name = top;
pos = (400,450);
}
);
layerId = "299DE00D-7BC2-4DFB-A399-2750234EE670";
shapes = (
{
closed = 1;
nodes = (
(600,0,l),
(600,100,l),
(200,100,l),
(200,0,l)
);
},
{
closed = 1;
nodes = (
(450,0,l),
(450,250,l),
(350,250,l),
(350,0,l)
);
},
{
closed = 1;
nodes = (
(600,0,l),
(600,250,l),
(500,250,l),
(500,0,l)
);
},
{
closed = 1;
nodes = (
(300,250,l),
(200,250,l),
(200,0,l),
(200,-55,o),
(155,-100,o),
(100,-100,c),
(45,-100,o),
(0,-55,o),
(0,0,c),
(0,-83,o),
(67,-150,o),
(150,-150,c),
(233,-150,o),
(300,-83,o),
(300,0,c)
);
},
{
angle = 90;
pos = (600,250);
ref = _zuluf100;
},
{
angle = 90;
pos = (450,250);
ref = _zuluf100;
},
{
angle = 90;
pos = (300,250);
ref = _zuluf100;
}
);
width = 600;
}
);
},
{
glyphname = "seen-ar.01.02";
kernLeft = bowel;
kernRight = "straight-l";
layers = (
{
anchors = (
{
name = top;
pos = (400,450);
}
);
layerId = "299DE00D-7BC2-4DFB-A399-2750234EE670";
shapes = (
{
closed = 1;
nodes = (
(300,249,l),
(300,316,l),
(300,316,o),
(350,316,o),
(350,266,c),
(350,0,l),
(450,0,l),
(450,267,l),
(450,350,l),
(450,350,o),
(500,350,o),
(500,300,c),
(500,0,l),
(600,0,l),
(600,250,l),
(600,400,l),
(464,346,o),
(283,303,o),
(150,300,c),
(150,300,o),
(200,300,o),
(200,250,c),
(200,0,l),
(200,-55,o),
(155,-100,o),
(100,-100,c),
(45,-100,o),
(0,-55,o),
(0,0,c),
(0,-83,o),
(67,-150,o),
(150,-150,c),
(233,-150,o),
(300,-83,o),
(300,0,c)
);
},
{
closed = 1;
nodes = (
(600,0,l),
(600,100,l),
(200,100,l),
(200,0,l)
);
}
);
width = 600;
}
);
},
{
glyphname = "seen-ar.01.3";
layers = (
{
anchors = (
{
name = top;
pos = (317,550);
}
);
layerId = "299DE00D-7BC2-4DFB-A399-2750234EE670";
shapes = (
{
closed = 1;
nodes = (
(640,88,l),
(317,501,l),
(220,380,l),
(220,380,o),
(261,412,o),
(291,371,c),
(513,87,l)
);
},
{
closed = 1;
nodes = (
(631,0,l),
(631,100,l),
(210,100,l),
(210,0,l)
);
},
{
closed = 1;
nodes = (
(448,88,l),
(220,380,l),
(125,258,l),
(125,258,o),
(165,289,o),
(195,250,c),
(322,88,l)
);
},
{
closed = 1;
nodes = (
(300,90,l),
(200,90,l),
(200,0,l),
(200,-55,o),
(155,-100,o),
(100,-100,c),
(45,-100,o),
(0,-55,o),
(0,0,c),
(0,-83,o),
(67,-150,o),
(150,-150,c),
(233,-150,o),
(300,-83,o),
(300,0,c)
);
},
{
closed = 1;
nodes = (
(289,48,l),
(125,258,l),
(31,137,l),
(31,137,o),
(70,167,o),
(100,128,c),
(195,7,l),
(199,2,o),
(200,-3,o),
(199,-14,c),
(227,-34,l)
);
}
);
width = 632;
}
);
},
{
glyphname = "seen-ar.init";
kernRight = "straight-l";
layers = (
{
anchors = (
{
name = top;
pos = (250,450);
}
);
layerId = "299DE00D-7BC2-4DFB-A399-2750234EE670";
shapes = (
{
closed = 1;
nodes = (
(450,0,l),
(450,250,l),
(350,250,l),
(350,0,l)
);
},
{
closed = 1;
nodes = (
(150,0,l),
(150,150,l),
(50,150,l),
(50,0,l)
);
},
{
closed = 1;
nodes = (
(450,0,l),
(450,100,l),
(-50,100,l),
(-50,0,l)
);
},
{
closed = 1;
nodes = (
(300,0,l),
(300,200,l),
(200,200,l),
(200,0,l)
);
},
{
angle = 90;
pos = (450,250);
ref = _zuluf100;
},
{
angle = 90;
pos = (300,200);
ref = _zuluf100;
},
{
angle = 90;
pos = (150,150);
ref = _zuluf100;
}
);
width = 450;
}
);
},
{
glyphname = "seen-ar.init.02.00";
layers = (
{
anchors = (
{
name = bottom;
pos = (287,-50);
},
{
name = top;
pos = (287,550);
}
);
layerId = "299DE00D-7BC2-4DFB-A399-2750234EE670";
shapes = (
{
closed = 1;
nodes = (
(610,88,l),
(287,501,l),
(190,380,l),
(190,380,o),
(231,412,o),
(261,371,c),
(483,87,l)
);
},
{
closed = 1;
nodes = (
(228,88,l),
(95,258,l),
(1,136,l),
(1,136,o),
(40,166,o),
(71,127,c),
(102,88,l)
);
},
{
closed = 1;
nodes = (
(601,0,l),
(601,100,l),
(0,100,l),
(0,0,l)
);
},
{
closed = 1;
nodes = (
(418,88,l),
(190,380,l),
(95,258,l),
(95,258,o),
(135,289,o),
(165,250,c),
(292,88,l)
);
}
);
width = 601;
}
);
note = "Actually a medial-only form";
},
{
glyphname = "seen-ar.init.01.01";
kernRight = "straight-l";
layers = (
{
anchors = (
{
name = top;
pos = (250,450);
}
);
layerId = "299DE00D-7BC2-4DFB-A399-2750234EE670";
shapes = (
{
closed = 1;
nodes = (
(450,0,l),
(450,250,l),
(350,250,l),
(350,0,l)
);
},
{
closed = 1;
nodes = (
(150,0,l),
(150,250,l),
(50,250,l),
(50,0,l)
);
},
{
closed = 1;
nodes = (
(450,0,l),
(450,100,l),
(-50,100,l),
(-50,0,l)
);
},
{
closed = 1;
nodes = (
(300,0,l),
(300,250,l),
(200,250,l),
(200,0,l)
);
},
{
angle = 90;
pos = (450,250);
ref = _zuluf100;
},
{
angle = 90;
pos = (300,250);
ref = _zuluf100;
},
{
angle = 90;
pos = (150,250);
ref = _zuluf100;
}
);
width = 450;
}
);
},
{
glyphname = "seen-ar.init.01.02";
kernRight = "straight-l";
layers = (
{
anchors = (
{
name = top;
pos = (250,450);
}
);
layerId = "299DE00D-7BC2-4DFB-A399-2750234EE670";
shapes = (
{
closed = 1;
nodes = (
(150,0,l),
(150,249,l),
(150,316,l),
(150,316,o),
(200,316,o),
(200,266,c),
(200,0,l),
(300,0,l),
(300,267,l),
(300,350,l),
(300,350,o),
(350,350,o),
(350,300,c),
(350,0,l),
(450,0,l),
(450,250,l),
(450,400,l),
(314,346,o),
(133,303,o),
(0,300,c),
(0,300,o),
(50,300,o),
(50,250,c),
(50,0,l)
);
},
{
closed = 1;
nodes = (
(450,0,l),
(450,100,l),
(-50,100,l),
(-50,0,l)
);
}
);
width = 450;
}
);
},
{
glyphname = "seen-ar.init.01.03";
kernRight = "straight-l";
layers = (
{
anchors = (
{
name = top;
pos = (250,450);
}
);
layerId = "299DE00D-7BC2-4DFB-A399-2750234EE670";
shapes = (
{
closed = 1;
nodes = (
(150,0,l),
(150,150,l),
(50,150,l),
(50,0,l)
);
},
{
closed = 1;
nodes = (
(300,0,l),
(300,200,l),
(200,200,l),
(200,0,l)
);
},
{
closed = 1;
nodes = (
(450,0,l),
(450,250,l),
(350,250,l),
(350,0,l)
);
},
{
closed = 1;
nodes = (
(250,0,l),
(250,100,l),
(-50,100,l),
(-50,0,l)
);
},
{
pos = (200,0);
ref = _elbow.1;
},
{
angle = 90;
pos = (300,200);
ref = _zuluf100;
},
{
angle = 90;
pos = (150,150);
ref = _zuluf100;
},
{
angle = 90;
pos = (450,250);
ref = _zuluf100;
}
);
width = 450;
}
);
},
{
glyphname = "seen-ar.init.01.04";
kernRight = "straight-l";
layers = (
{
anchors = (
{
name = top;
pos = (250,450);
}
);
layerId = "299DE00D-7BC2-4DFB-A399-2750234EE670";
shapes = (
{
closed = 1;
nodes = (
(150,0,l),
(150,250,l),
(50,250,l),
(50,0,l)
);
},
{
closed = 1;
nodes = (
(300,0,l),
(300,250,l),
(200,250,l),
(200,0,l)
);
},
{
closed = 1;
nodes = (
(450,0,l),
(450,250,l),
(350,250,l),
(350,0,l)
);
},
{
closed = 1;
nodes = (
(250,0,l),
(250,100,l),
(-50,100,l),
(-50,0,l)
);
},
{
pos = (200,0);
ref = _elbow.1;
},
{
angle = 90;
pos = (300,250);
ref = _zuluf100;
},
{
angle = 90;
pos = (150,250);
ref = _zuluf100;
},
{
angle = 90;
pos = (450,250);
ref = _zuluf100;
}
);
width = 450;
}
);
},
{
glyphname = "seen-ar.init.01.05";
kernRight = "straight-l";
layers = (
{
anchors = (
{
name = top;
pos = (250,450);
}
);
layerId = "299DE00D-7BC2-4DFB-A399-2750234EE670";
shapes = (
{
closed = 1;
nodes = (
(150,0,l),
(150,249,l),
(150,316,l),
(150,316,o),
(200,316,o),
(200,266,c),
(200,0,l),
(300,0,l),
(300,267,l),
(300,350,l),
(300,350,o),
(350,350,o),
(350,300,c),
(350,0,l),
(450,0,l),
(450,250,l),
(450,400,l),
(314,346,o),
(133,303,o),
(0,300,c),
(0,300,o),
(50,300,o),
(50,250,c),
(50,0,l)
);
},
{
closed = 1;
nodes = (
(250,0,l),
(250,100,l),
(-50,100,l),
(-50,0,l)
);
},
{
pos = (200,0);
ref = _elbow.1;
}
);
width = 450;
}
);
},
{
glyphname = "seen-ar.init.01.06";
kernRight = "straight-l";
layers = (
{
anchors = (
{
name = top;
pos = (250,450);
}
);
layerId = "299DE00D-7BC2-4DFB-A399-2750234EE670";
shapes = (
{
closed = 1;
nodes = (
(150,0,l),
(150,150,l),
(50,150,l),
(50,0,l)
);
},
{
closed = 1;
nodes = (
(300,0,l),
(300,200,l),
(200,200,l),
(200,0,l)
);
},
{
closed = 1;
nodes = (
(450,0,l),
(450,250,l),
(350,250,l),
(350,0,l)
);
},
{
closed = 1;
nodes = (
(100,0,l),
(100,100,l),
(-50,100,l),
(-50,0,l)
);
},
{
closed = 1;
nodes = (
(450,0,l),
(450,100,l),
(230,100,l),
(230,0,l)
);
},
{
pos = (50,0);
ref = _elbow.1;
},
{
angle = 90;
pos = (300,200);
ref = _zuluf100;
},
{
angle = 90;
pos = (150,150);
ref = _zuluf100;
},
{
angle = 90;
pos = (450,250);
ref = _zuluf100;
}
);
width = 450;
}
);
},
{
glyphname = "seen-ar.init.01.07";
kernRight = "straight-l";
layers = (
{
anchors = (
{
name = top;
pos = (250,450);
}
);
layerId = "299DE00D-7BC2-4DFB-A399-2750234EE670";
shapes = (
{
closed = 1;
nodes = (
(150,0,l),
(150,250,l),
(50,250,l),
(50,0,l)
);
},
{
closed = 1;
nodes = (
(300,0,l),
(300,250,l),
(200,250,l),
(200,0,l)
);
},
{
closed = 1;
nodes = (
(450,0,l),
(450,250,l),
(350,250,l),
(350,0,l)
);
},
{
closed = 1;
nodes = (
(100,0,l),
(100,100,l),
(-50,100,l),
(-50,0,l)
);
},
{
closed = 1;
nodes = (
(450,0,l),
(450,100,l),
(230,100,l),
(230,0,l)
);
},
{
pos = (50,0);
ref = _elbow.1;
},
{
angle = 90;
pos = (300,250);
ref = _zuluf100;
},
{
angle = 90;
pos = (150,250);
ref = _zuluf100;
},
{
angle = 90;
pos = (450,250);
ref = _zuluf100;
}
);
width = 450;
}
);
},
{
glyphname = "seen-ar.init.01.08";
kernRight = "straight-l";
layers = (
{
anchors = (
{
name = top;
pos = (250,450);
}
);
layerId = "299DE00D-7BC2-4DFB-A399-2750234EE670";
shapes = (
{
closed = 1;
nodes = (
(150,0,l),
(150,249,l),
(150,316,l),
(150,316,o),
(200,316,o),
(200,266,c),
(200,0,l),
(300,0,l),
(300,267,l),
(300,350,l),
(300,350,o),
(350,350,o),
(350,300,c),
(350,0,l),
(450,0,l),
(450,250,l),
(450,400,l),
(314,346,o),
(133,303,o),
(0,300,c),
(0,300,o),
(50,300,o),
(50,250,c),
(50,0,l)
);
},
{
closed = 1;
nodes = (
(100,0,l),
(100,100,l),
(-50,100,l),
(-50,0,l)
);
},
{
closed = 1;
nodes = (
(450,0,l),
(450,100,l),
(230,100,l),
(230,0,l)
);
},
{
pos = (50,0);
ref = _elbow.1;
}
);
width = 450;
}
);
},
{
glyphname = "sad-ar";
kernLeft = bowel;
kernRight = "straight-l";
layers = (
{
layerId = "299DE00D-7BC2-4DFB-A399-2750234EE670";
shapes = (
{
closed = 1;
nodes = (
(300,250,l),
(200,250,l),
(200,0,l),
(200,-55,o),
(155,-100,o),
(100,-100,c),
(45,-100,o),
(0,-55,o),
(0,0,c),
(0,-83,o),
(67,-150,o),
(150,-150,c),
(233,-150,o),
(300,-83,o),
(300,0,c)
);
},
{
pos = (200,0);
ref = "-dal";
},
{
angle = 90;
pos = (300,250);
ref = _zuluf100;
}
);
width = 1000;
}
);
unicode = 1589;
},
{
glyphname = "sad-ar.init";
kernRight = "straight-l";
layers = (
{
layerId = "299DE00D-7BC2-4DFB-A399-2750234EE670";
shapes = (
{
closed = 1;
nodes = (
(150,0,l),
(150,250,l),
(50,250,l),
(50,0,l)
);
},
{
ref = "kashida-ar";
},
{
pos = (50,0);
ref = "-dal";
},
{
angle = 90;
pos = (150,250);
ref = _zuluf100;
}
);
width = 850;
}
);
},
{
glyphname = "ain-ar";
kernLeft = "straight-r";
layers = (
{
anchors = (
{
name = top;
pos = (250,400);
}
);
layerId = "299DE00D-7BC2-4DFB-A399-2750234EE670";
shapes = (
{
closed = 1;
nodes = (
(350,-150,l),
(350,-50,l),
(150,-50,l),
(150,-150,l)
);
},
{
closed = 1;
nodes = (
(387,252,o),
(375,275,o),
(336,290,c),
(352,323,o),
(349,366,o),
(330,400,c),
(324,358,o),
(305,323,o),
(241,291,cs),
(167,254,o),
(137,179,o),
(162,100,c),
(150,100,l),
(150,0,l),
(500,0,l),
(442,23,o),
(400,85,o),
(400,150,c),
(390,122,o),
(362,100,o),
(330,100,cs),
(289,100,o),
(255,134,o),
(255,175,cs),
(255,216,o),
(289,250,o),
(330,250,cs),
(356,250,o),
(380,236,o),
(393,215,c)
);
},
{
angle = -90;
pos = (150,100);
ref = _elbow.1;
},
{
pos = (350,-150);
ref = _zuluf100;
}
);
width = 500;
}
);
unicode = 1593;
},
{
glyphname = "ain-ar.fina";
layers = (
{
anchors = (
{
name = top;
pos = (250,550);
}
);
layerId = "299DE00D-7BC2-4DFB-A399-2750234EE670";
shapes = (
{
closed = 1;
nodes = (
(305,-150,o),
(354,-128,o),
(400,-100,c),
(251,-132,o),
(183,-84,o),
(197,1,cs),
(214,107,o),
(351,200,o),
(500,200,c),
(387,288,l),
(236,256,o),
(100,138,o),
(100,1,cs),
(100,-97,o),
(167,-150,o),
(250,-150,cs)
);
},
{
closed = 1;
nodes = (
(500,0,l),
(500,100,l),
(300,100,l),
(300,0,l)
);
},
{
closed = 1;
nodes = (
(160,250,l),
(181,268,o),
(201,282,o),
(230,287,c),
(232,297,o),
(232,308,o),
(250,321,c),
(268,308,o),
(268,297,o),
(270,287,c),
(299,282,o),
(319,268,o),
(340,250,c),
(500,200,l),
(473,308,o),
(367,388,o),
(250,388,cs),
(133,388,o),
(27,308,o),
(0,200,c)
);
},
{
closed = 1;
nodes = (
(331,375,l),
(331,438,o),
(250,440,o),
(250,500,c),
(250,440,o),
(169,438,o),
(169,375,c)
);
},
{
closed = 1;
nodes = (
(47,200,o),
(105,193,o),
(159,169,c),
(181,195,o),
(209,218,o),
(240,238,c),
(200,263,o),
(154,281,o),
(103,291,c),
(0,200,l)
);
},
{
closed = 1;
nodes = (
(274,67,o),
(289,37,o),
(300,0,c),
(396,29,l),
(382,75,o),
(362,116,o),
(336,150,c),
(305,134,o),
(277,114,o),
(256,91,c)
);
}
);
width = 500;
},
{
anchors = (
{
name = top;
pos = (250,550);
}
);
associatedMasterId = "299DE00D-7BC2-4DFB-A399-2750234EE670";
layerId = "89267BDB-EF62-4A6A-9B39-D22764B76527";
name = "Oct 24 19, 22:07";
shapes = (
{
closed = 1;
nodes = (
(305,-150,o),
(354,-128,o),
(400,-100,c),
(251,-132,o),
(183,-84,o),
(197,1,cs),
(214,107,o),
(351,200,o),
(500,200,c),
(387,288,l),
(236,256,o),
(100,138,o),
(100,1,cs),
(100,-97,o),
(167,-150,o),
(250,-150,cs)
);
},
{
closed = 1;
nodes = (
(396,29,l),
(353,171,o),
(249,262,o),
(103,291,c),
(0,200,l),
(100,200,o),
(249,171,o),
(300,0,c)
);
},
{
closed = 1;
nodes = (
(500,0,l),
(500,100,l),
(300,100,l),
(300,0,l)
);
},
{
closed = 1;
nodes = (
(160,250,l),
(181,268,o),
(201,282,o),
(230,287,c),
(232,297,o),
(232,308,o),
(250,321,c),
(268,308,o),
(268,297,o),
(270,287,c),
(299,282,o),
(319,268,o),
(340,250,c),
(500,200,l),
(473,308,o),
(367,388,o),
(250,388,cs),
(133,388,o),
(27,308,o),
(0,200,c)
);
},
{
closed = 1;
nodes = (
(331,375,l),
(331,438,o),
(250,440,o),
(250,500,c),
(250,440,o),
(169,438,o),
(169,375,c)
);
},
{
closed = 1;
nodes = (
(90,1,l),
(90,134,o),
(218,262,o),
(385,298,c),
(387,288,l),
(236,256,o),
(100,138,o),
(100,1,c)
);
},
{
closed = 1;
nodes = (
(500,190,l),
(358,190,o),
(223,102,o),
(207,-1,c),
(197,1,l),
(214,107,o),
(351,200,o),
(500,200,c)
);
}
);
visible = 1;
width = 500;
}
);
},
{
glyphname = "ain-ar.fina.01.01";
kernLeft = "straight-r";
layers = (
{
anchors = (
{
name = top;
pos = (225,550);
}
);
layerId = "299DE00D-7BC2-4DFB-A399-2750234EE670";
shapes = (
{
closed = 1;
nodes = (
(450,389,l),
(334,389,l),
(150,70,l),
(236,19,l)
);
},
{
closed = 1;
nodes = (
(350,-150,l),
(350,-50,l),
(150,-50,l),
(150,-150,l)
);
},
{
closed = 1;
nodes = (
(300,70,l),
(116,389,l),
(0,389,l),
(214,19,l)
);
},
{
closed = 1;
nodes = (
(450,0,l),
(450,100,l),
(150,100,l),
(150,0,l)
);
},
{
closed = 1;
nodes = (
(392,289,l),
(450,389,l),
(0,389,l),
(58,289,l)
);
},
{
closed = 1;
nodes = (
(280,379,l),
(225,489,l),
(170,379,l)
);
},
{
angle = -90;
pos = (150,100);
ref = _elbow.1;
},
{
pos = (350,-150);
ref = _zuluf100;
}
);
width = 450;
},
{
associatedMasterId = "299DE00D-7BC2-4DFB-A399-2750234EE670";
layerId = "46E2105B-6858-45BC-97F3-B951BF1585C5";
name = "Oct 17 19, 22:35";
shapes = (
{
closed = 1;
nodes = (
(396,29,l),
(353,171,o),
(249,262,o),
(103,291,c),
(0,200,l),
(100,200,o),
(249,171,o),
(300,0,c)
);
},
{
closed = 1;
nodes = (
(251,171,o),
(400,200,o),
(500,200,c),
(387,288,l),
(246,258,o),
(146,168,o),
(104,29,c),
(200,0,l)
);
},
{
closed = 1;
nodes = (
(500,0,l),
(500,100,l),
(300,100,l),
(300,0,l)
);
},
{
closed = 1;
nodes = (
(160,250,l),
(181,268,o),
(201,282,o),
(230,287,c),
(232,297,o),
(232,308,o),
(250,321,c),
(268,308,o),
(268,297,o),
(270,287,c),
(299,282,o),
(319,268,o),
(340,250,c),
(500,200,l),
(473,308,o),
(367,388,o),
(250,388,cs),
(133,388,o),
(27,308,o),
(0,200,c)
);
},
{
closed = 1;
nodes = (
(331,375,l),
(331,438,o),
(250,440,o),
(250,500,c),
(250,440,o),
(169,438,o),
(169,375,c)
);
}
);
width = 600;
}
);
},
{
glyphname = "ain-ar.medi";
layers = (
{
anchors = (
{
name = top;
pos = (300,550);
}
);
layerId = "299DE00D-7BC2-4DFB-A399-2750234EE670";
shapes = (
{
closed = 1;
nodes = (
(250,0,l),
(250,100,l),
(-50,100,l),
(-50,0,l)
);
},
{
closed = 1;
nodes = (
(301,171,o),
(450,200,o),
(550,200,c),
(437,288,l),
(296,258,o),
(196,168,o),
(154,29,c),
(250,0,l)
);
},
{
closed = 1;
nodes = (
(550,0,l),
(550,100,l),
(350,100,l),
(350,0,l)
);
},
{
closed = 1;
nodes = (
(210,250,l),
(231,268,o),
(250,281,o),
(275,286,c),
(278,304,o),
(282,308,o),
(300,321,c),
(318,308,o),
(322,304,o),
(325,286,c),
(350,281,o),
(369,268,o),
(390,250,c),
(550,200,l),
(523,308,o),
(417,388,o),
(300,388,cs),
(183,388,o),
(77,308,o),
(50,200,c)
);
},
{
closed = 1;
nodes = (
(381,375,l),
(381,438,o),
(300,440,o),
(300,500,c),
(300,440,o),
(219,438,o),
(219,375,c)
);
},
{
closed = 1;
nodes = (
(98,200,o),
(159,193,o),
(214,167,c),
(236,194,o),
(262,218,o),
(291,238,c),
(251,263,o),
(204,281,o),
(153,291,c),
(50,200,l)
);
},
{
closed = 1;
nodes = (
(324,66,o),
(339,36,o),
(350,0,c),
(446,29,l),
(432,77,o),
(411,118,o),
(383,154,c),
(353,138,o),
(327,116,o),
(306,90,c)
);
}
);
width = 550;
},
{
anchors = (
{
name = top;
pos = (300,550);
}
);
associatedMasterId = "299DE00D-7BC2-4DFB-A399-2750234EE670";
layerId = "049DDF45-282C-44AA-9E56-D1DE82E102E5";
name = "Oct 24 19, 22:03";
shapes = (
{
closed = 1;
nodes = (
(446,29,l),
(403,171,o),
(299,262,o),
(153,291,c),
(50,200,l),
(150,200,o),
(299,171,o),
(350,0,c)
);
},
{
closed = 1;
nodes = (
(250,0,l),
(250,100,l),
(-20,100,l),
(-20,0,l)
);
},
{
closed = 1;
nodes = (
(301,171,o),
(450,200,o),
(550,200,c),
(437,288,l),
(296,258,o),
(196,168,o),
(154,29,c),
(250,0,l)
);
},
{
closed = 1;
nodes = (
(550,0,l),
(550,100,l),
(350,100,l),
(350,0,l)
);
},
{
closed = 1;
nodes = (
(210,250,l),
(231,268,o),
(250,281,o),
(275,286,c),
(278,304,o),
(282,308,o),
(300,321,c),
(318,308,o),
(322,304,o),
(325,286,c),
(350,281,o),
(369,268,o),
(390,250,c),
(550,200,l),
(523,308,o),
(417,388,o),
(300,388,cs),
(183,388,o),
(77,308,o),
(50,200,c)
);
},
{
closed = 1;
nodes = (
(381,375,l),
(381,438,o),
(300,440,o),
(300,500,c),
(300,440,o),
(219,438,o),
(219,375,c)
);
},
{
closed = 1;
nodes = (
(550,190,l),
(398,190,o),
(297,124,o),
(260,-3,c),
(250,0,l),
(301,171,o),
(450,200,o),
(550,200,c)
);
},
{
closed = 1;
nodes = (
(144,32,l),
(187,173,o),
(290,267,o),
(435,298,c),
(437,288,l),
(296,258,o),
(196,168,o),
(154,29,c)
);
}
);
visible = 1;
width = 550;
}
);
},
{
glyphname = "ain-ar.medi.01.01";
layers = (
{
anchors = (
{
name = top;
pos = (275,550);
}
);
layerId = "299DE00D-7BC2-4DFB-A399-2750234EE670";
shapes = (
{
closed = 1;
nodes = (
(500,389,l),
(384,389,l),
(200,70,l),
(286,19,l)
);
},
{
closed = 1;
nodes = (
(500,0,l),
(500,100,l),
(-50,100,l),
(-50,0,l)
);
},
{
closed = 1;
nodes = (
(350,70,l),
(166,389,l),
(50,389,l),
(264,19,l)
);
},
{
closed = 1;
nodes = (
(442,289,l),
(500,389,l),
(50,389,l),
(108,289,l)
);
},
{
closed = 1;
nodes = (
(330,379,l),
(275,489,l),
(220,379,l)
);
}
);
width = 500;
},
{
associatedMasterId = "299DE00D-7BC2-4DFB-A399-2750234EE670";
layerId = "62966BE6-8DBA-4358-8BF6-B921E010B38B";
name = "Oct 17 19, 22:28";
shapes = (
{
closed = 1;
nodes = (
(396,29,l),
(353,171,o),
(249,262,o),
(103,291,c),
(0,200,l),
(100,200,o),
(249,171,o),
(300,0,c)
);
},
{
closed = 1;
nodes = (
(200,0,l),
(200,100,l),
(0,100,l),
(0,0,l)
);
},
{
closed = 1;
nodes = (
(251,171,o),
(400,200,o),
(500,200,c),
(387,288,l),
(246,258,o),
(146,168,o),
(104,29,c),
(200,0,l)
);
},
{
closed = 1;
nodes = (
(500,0,l),
(500,100,l),
(300,100,l),
(300,0,l)
);
},
{
closed = 1;
nodes = (
(160,250,l),
(181,268,o),
(201,282,o),
(230,287,c),
(232,297,o),
(232,308,o),
(250,321,c),
(268,308,o),
(268,297,o),
(270,287,c),
(299,282,o),
(319,268,o),
(340,250,c),
(500,200,l),
(473,308,o),
(367,388,o),
(250,388,cs),
(133,388,o),
(27,308,o),
(0,200,c)
);
},
{
closed = 1;
nodes = (
(331,375,l),
(331,438,o),
(250,440,o),
(250,500,c),
(250,440,o),
(169,438,o),
(169,375,c)
);
}
);
width = 500;
}
);
},
{
glyphname = "ain-ar.medi.01.02";
layers = (
{
anchors = (
{
name = top;
pos = (190,600);
}
);
layerId = "299DE00D-7BC2-4DFB-A399-2750234EE670";
shapes = (
{
closed = 1;
nodes = (
(314,50,l),
(114,396,l),
(50,308,l),
(114,220,l),
(247,451,l),
(190,550,l),
(133,451,l),
(266,220,l),
(331,307,l),
(190,550,l),
(50,308,l),
(228,0,l)
);
},
{
closed = 1;
nodes = (
(153,0,l),
(190,100,l),
(228,0,l),
(331,0,l),
(331,100,l),
(-50,100,l),
(-50,0,l)
);
},
{
closed = 1;
nodes = (
(331,307,l),
(267,396,l),
(67,50,l),
(153,0,l)
);
}
);
width = 331;
}
);
},
{
glyphname = "ain-ar.medi.01.03";
layers = (
{
anchors = (
{
name = top;
pos = (225,550);
}
);
guides = (
{
angle = 270;
locked = 1;
pos = (400,152);
},
{
angle = 270;
locked = 1;
pos = (50,152);
},
{
locked = 1;
pos = (225,500);
},
{
angle = 270;
locked = 1;
pos = (225,601);
},
{
locked = 1;
pos = (194,200);
},
{
locked = 1;
pos = (225,250);
},
{
locked = 1;
pos = (225,400);
},
{
locked = 1;
pos = (225,350);
},
{
angle = 270;
locked = 1;
pos = (375,152);
},
{
angle = 270;
locked = 1;
pos = (75,152);
}
);
layerId = "299DE00D-7BC2-4DFB-A399-2750234EE670";
shapes = (
{
closed = 1;
nodes = (
(125,0,l),
(125,100,l),
(-50,100,l),
(-50,0,l)
);
},
{
closed = 1;
nodes = (
(400,0,l),
(400,100,l),
(325,100,l),
(325,0,l)
);
},
{
closed = 1;
nodes = (
(76,250,o),
(99,248,o),
(120,245,c),
(144,272,o),
(175,296,o),
(212,313,c),
(198,319,o),
(183,324,o),
(168,328,c),
(180,358,o),
(200,377,o),
(225,392,c),
(250,377,o),
(269,358,o),
(282,328,c),
(160,295,o),
(74,211,o),
(74,100,cs),
(74,-39,o),
(163,-118,o),
(214,-150,c),
(188,-100,o),
(169,-11,o),
(169,51,cs),
(169,193,o),
(252,250,o),
(400,250,c),
(401,362,o),
(333,466,o),
(225,500,c),
(117,466,o),
(49,362,o),
(50,250,c)
);
},
{
closed = 1;
nodes = (
(264,162,o),
(281,116,o),
(281,51,cs),
(281,-11,o),
(262,-100,o),
(236,-150,c),
(287,-118,o),
(376,-39,o),
(376,100,cs),
(376,151,o),
(358,197,o),
(326,234,c),
(284,227,o),
(253,213,o),
(233,193,c)
);
}
);
width = 400;
},
{
associatedMasterId = "299DE00D-7BC2-4DFB-A399-2750234EE670";
layerId = "049DDF45-282C-44AA-9E56-D1DE82E102E5";
name = "Oct 24 19, 22:03";
shapes = (
{
closed = 1;
nodes = (
(188,-100,o),
(169,-11,o),
(169,51,cs),
(169,112,o),
(182,157,o),
(225,200,cs),
(257,232,o),
(317,250,o),
(400,250,c),
(380,342,l),
(208,336,o),
(74,239,o),
(74,100,cs),
(74,-39,o),
(163,-118,o),
(214,-150,c)
);
},
{
closed = 1;
nodes = (
(125,0,l),
(125,100,l),
(-50,100,l),
(-50,0,l)
);
},
{
closed = 1;
nodes = (
(287,-118,o),
(376,-39,o),
(376,100,cs),
(376,239,o),
(242,336,o),
(70,342,c),
(50,250,l),
(133,250,o),
(193,232,o),
(225,200,cs),
(268,157,o),
(281,112,o),
(281,51,cs),
(281,-11,o),
(262,-100,o),
(236,-150,c)
);
},
{
closed = 1;
nodes = (
(400,0,l),
(400,100,l),
(325,100,l),
(325,0,l)
);
},
{
closed = 1;
nodes = (
(150,250,l),
(156,327,o),
(184,365,o),
(225,392,c),
(266,365,o),
(294,327,o),
(300,250,c),
(400,250,l),
(401,362,o),
(333,466,o),
(225,500,c),
(117,466,o),
(49,362,o),
(50,250,c)
);
}
);
width = 400;
}
);
},
{
glyphname = "ain-ar.medi.01.04";
layers = (
{
anchors = (
{
name = top;
pos = (300,550);
}
);
layerId = "299DE00D-7BC2-4DFB-A399-2750234EE670";
shapes = (
{
closed = 1;
nodes = (
(240,0,l),
(240,100,l),
(-50,100,l),
(-50,0,l)
);
},
{
closed = 1;
nodes = (
(215,-26,o),
(256,72,o),
(333,132,cs),
(400,184,o),
(485,200,o),
(550,200,c),
(437,288,l),
(314,262,o),
(242,194,o),
(204,136,cs),
(130,23,o),
(178,-119,o),
(280,-150,c)
);
},
{
closed = 1;
nodes = (
(550,0,l),
(550,100,l),
(350,100,l),
(350,0,l)
);
},
{
closed = 1;
nodes = (
(210,250,l),
(231,268,o),
(250,281,o),
(275,286,c),
(278,304,o),
(282,308,o),
(300,321,c),
(318,308,o),
(322,304,o),
(325,286,c),
(350,281,o),
(369,268,o),
(390,250,c),
(550,200,l),
(523,308,o),
(417,388,o),
(300,388,cs),
(183,388,o),
(77,308,o),
(50,200,c)
);
},
{
closed = 1;
nodes = (
(381,375,l),
(381,438,o),
(300,440,o),
(300,500,c),
(300,440,o),
(219,438,o),
(219,375,c)
);
},
{
closed = 1;
nodes = (
(98,200,o),
(159,193,o),
(214,167,c),
(236,194,o),
(262,218,o),
(291,238,c),
(251,263,o),
(204,281,o),
(153,291,c),
(50,200,l)
);
},
{
closed = 1;
nodes = (
(356,34,o),
(373,-50,o),
(320,-150,c),
(422,-119,o),
(470,23,o),
(396,136,cs),
(392,141,o),
(389,147,o),
(384,153,c),
(357,138,o),
(330,120,o),
(307,94,c)
);
}
);
width = 550;
},
{
anchors = (
{
name = top;
pos = (300,550);
}
);
associatedMasterId = "299DE00D-7BC2-4DFB-A399-2750234EE670";
layerId = "049DDF45-282C-44AA-9E56-D1DE82E102E5";
name = "Oct 24 19, 22:03";
shapes = (
{
closed = 1;
nodes = (
(446,29,l),
(403,171,o),
(299,262,o),
(153,291,c),
(50,200,l),
(150,200,o),
(299,171,o),
(350,0,c)
);
},
{
closed = 1;
nodes = (
(250,0,l),
(250,100,l),
(-20,100,l),
(-20,0,l)
);
},
{
closed = 1;
nodes = (
(301,171,o),
(450,200,o),
(550,200,c),
(437,288,l),
(296,258,o),
(196,168,o),
(154,29,c),
(250,0,l)
);
},
{
closed = 1;
nodes = (
(550,0,l),
(550,100,l),
(350,100,l),
(350,0,l)
);
},
{
closed = 1;
nodes = (
(210,250,l),
(231,268,o),
(250,281,o),
(275,286,c),
(278,304,o),
(282,308,o),
(300,321,c),
(318,308,o),
(322,304,o),
(325,286,c),
(350,281,o),
(369,268,o),
(390,250,c),
(550,200,l),
(523,308,o),
(417,388,o),
(300,388,cs),
(183,388,o),
(77,308,o),
(50,200,c)
);
},
{
closed = 1;
nodes = (
(381,375,l),
(381,438,o),
(300,440,o),
(300,500,c),
(300,440,o),
(219,438,o),
(219,375,c)
);
},
{
closed = 1;
nodes = (
(550,190,l),
(398,190,o),
(297,124,o),
(260,-3,c),
(250,0,l),
(301,171,o),
(450,200,o),
(550,200,c)
);
},
{
closed = 1;
nodes = (
(144,32,l),
(187,173,o),
(290,267,o),
(435,298,c),
(437,288,l),
(296,258,o),
(196,168,o),
(154,29,c)
);
},
{
closed = 1;
nodes = (
(292,158,o),
(321,118,o),
(339,55,cs),
(355,-3,o),
(361,-94,o),
(350,-150,c),
(390,-105,o),
(456,-4,o),
(417,129,cs),
(403,178,o),
(374,217,o),
(333,245,c),
(294,226,o),
(267,205,o),
(254,180,c)
);
},
{
closed = 1;
nodes = (
(333,205,o),
(306,226,o),
(267,245,c),
(226,217,o),
(197,178,o),
(183,129,cs),
(145,-4,o),
(210,-105,o),
(250,-150,c),
(239,-94,o),
(245,-3,o),
(261,55,cs),
(278,118,o),
(308,158,o),
(346,180,c)
);
}
);
width = 550;
}
);
},
{
glyphname = "ain-ar.medi.01.05";
layers = (
{
anchors = (
{
name = top;
pos = (200,500);
}
);
guides = (
{
pos = (550,450);
},
{
angle = 90;
pos = (325,246);
},
{
angle = 90;
pos = (75,246);
}
);
layerId = "299DE00D-7BC2-4DFB-A399-2750234EE670";
shapes = (
{
closed = 1;
nodes = (
(143,284,o),
(169,299,o),
(191,315,c),
(171,332,o),
(155,351,o),
(148,379,cs),
(141,407,o),
(147,436,o),
(175,450,c),
(130,450,o),
(81,420,o),
(81,350,cs),
(81,315,o),
(97,288,o),
(119,265,c)
);
},
{
closed = 1;
nodes = (
(350,0,l),
(350,100,ls),
(350,178,o),
(319,220,o),
(281,251,c),
(258,229,o),
(231,211,o),
(208,194,c),
(237,169,o),
(250,146,o),
(250,100,c),
(150,100,l),
(150,150,o),
(165,173,o),
(200,200,cs),
(252,240,o),
(319,279,o),
(319,350,cs),
(319,420,o),
(270,450,o),
(225,450,c),
(253,436,o),
(259,407,o),
(252,379,cs),
(225,268,o),
(50,284,o),
(50,100,c),
(-50,100,l),
(-50,0,l)
);
}
);
width = 350;
},
{
anchors = (
{
name = top;
pos = (200,500);
}
);
associatedMasterId = "299DE00D-7BC2-4DFB-A399-2750234EE670";
guides = (
{
pos = (550,450);
},
{
angle = 90;
pos = (325,246);
},
{
angle = 90;
pos = (75,246);
}
);
layerId = "C586681A-9086-4A33-8DB0-AF0180F7EA59";
name = "Jan 15 20, 23:07";
shapes = (
{
closed = 1;
nodes = (
(350,0,l),
(350,100,l),
(-50,100,l),
(-50,0,l)
);
},
{
closed = 1;
nodes = (
(150,150,o),
(165,173,o),
(200,200,cs),
(252,240,o),
(319,279,o),
(319,350,cs),
(319,420,o),
(270,450,o),
(225,450,c),
(253,436,o),
(259,407,o),
(252,379,cs),
(225,268,o),
(50,284,o),
(50,100,c),
(150,100,l)
);
},
{
closed = 1;
nodes = (
(350,100,l),
(350,284,o),
(176,268,o),
(148,379,cs),
(141,407,o),
(147,436,o),
(175,450,c),
(130,450,o),
(81,420,o),
(81,350,cs),
(81,279,o),
(148,240,o),
(200,200,cs),
(235,173,o),
(250,150,o),
(250,100,c)
);
}
);
width = 350;
}
);
},
{
glyphname = "ain-ar.init";
layers = (
{
anchors = (
{
name = exit;
pos = (-50,0);
},
{
name = top;
pos = (150,400);
}
);
layerId = "299DE00D-7BC2-4DFB-A399-2750234EE670";
shapes = (
{
closed = 1;
nodes = (
(278,122,o),
(250,100,o),
(218,100,cs),
(177,100,o),
(143,134,o),
(143,175,cs),
(143,216,o),
(177,250,o),
(218,250,cs),
(244,250,o),
(268,236,o),
(281,215,c),
(275,252,o),
(263,275,o),
(224,290,c),
(240,323,o),
(237,366,o),
(218,400,c),
(212,358,o),
(193,323,o),
(129,291,cs),
(55,254,o),
(25,179,o),
(50,100,c),
(-50,100,l),
(-50,0,l),
(388,0,l),
(330,23,o),
(288,85,o),
(288,150,c)
);
}
);
width = 388;
},
{
associatedMasterId = "299DE00D-7BC2-4DFB-A399-2750234EE670";
layerId = "4ABA46D0-08BE-4426-888B-34CB4EFFAE46";
name = "Oct 17 19, 21:30";
shapes = (
{
closed = 1;
nodes = (
(-50,0,l),
(300,0,l),
(450,0,l),
(392,23,o),
(350,85,o),
(350,150,c),
(342,123,o),
(321,101,o),
(311,90,c),
(173,99,l),
(-50,100,l)
);
},
{
closed = 1;
nodes = (
(705,106,o),
(761,50,o),
(830,50,cs),
(899,50,o),
(955,106,o),
(955,175,cs),
(955,244,o),
(899,300,o),
(830,300,cs),
(761,300,o),
(705,244,o),
(705,175,cs)
);
},
{
closed = 1;
nodes = (
(805,216,o),
(839,250,o),
(880,250,cs),
(921,250,o),
(955,216,o),
(955,175,cs),
(955,134,o),
(921,100,o),
(880,100,cs),
(839,100,o),
(805,134,o),
(805,175,cs)
);
},
{
closed = 1;
nodes = (
(105,712,o),
(161,656,o),
(230,656,cs),
(290,656,o),
(340,699,o),
(352,755,c),
(342,727,o),
(314,706,o),
(282,706,cs),
(241,706,o),
(207,740,o),
(207,781,cs),
(207,822,o),
(241,856,o),
(282,856,cs),
(314,856,o),
(342,835,o),
(352,807,c),
(340,863,o),
(290,906,o),
(230,906,cs),
(161,906,o),
(105,850,o),
(105,781,cs)
);
},
{
closed = 1;
nodes = (
(103,106,o),
(159,50,o),
(228,50,cs),
(288,50,o),
(338,93,o),
(350,150,c),
(340,122,o),
(312,100,o),
(280,100,cs),
(239,100,o),
(205,134,o),
(205,175,cs),
(205,216,o),
(239,250,o),
(280,250,cs),
(312,250,o),
(340,229,o),
(350,201,c),
(340,274,o),
(288,300,o),
(228,300,cs),
(159,300,o),
(103,244,o),
(103,175,cs)
);
},
{
closed = 1;
nodes = (
(272,348,o),
(239,311,o),
(181,290,c),
(268,266,l),
(303,300,o),
(304,357,o),
(280,400,c)
);
},
{
closed = 1;
nodes = (
(100,135,o),
(112,93,o),
(123,72,c),
(181,80,l),
(103,175,l)
);
}
);
width = 500;
}
);
},
{
glyphname = "fehDotless-ar";
kernRight = "straight-l";
layers = (
{
layerId = "299DE00D-7BC2-4DFB-A399-2750234EE670";
shapes = (
{
closed = 1;
nodes = (
(650,0,l),
(650,100,l),
(150,100,l),
(150,0,l)
);
},
{
closed = 1;
nodes = (
(800,0,l),
(800,200,l),
(700,200,l),
(700,0,l)
);
},
{
alignment = -1;
pos = (550,150);
ref = _head;
},
{
pos = (150,0);
ref = _zuluf100;
scale = (-1,1);
},
{
pos = (650,0);
ref = "-beh";
}
);
width = 800;
}
);
unicode = 1697;
},
{
glyphname = "fehDotless-ar.medi";
kernRight = "straight-l";
layers = (
{
layerId = "299DE00D-7BC2-4DFB-A399-2750234EE670";
shapes = (
{
closed = 1;
nodes = (
(150,0,l),
(150,100,l),
(-50,100,l),
(-50,0,l)
);
},
{
closed = 1;
nodes = (
(300,0,l),
(300,200,l),
(200,200,l),
(200,0,l)
);
},
{
pos = (50,150);
ref = _head;
},
{
pos = (150,0);
ref = "-beh";
}
);
width = 300;
}
);
},
{
glyphname = "fehDotless-ar.medi.01.91";
kernRight = "straight-l";
layers = (
{
anchors = (
{
name = top;
pos = (183,500);
}
);
layerId = "299DE00D-7BC2-4DFB-A399-2750234EE670";
shapes = (
{
closed = 1;
nodes = (
(315,0,l),
(315,100,l),
(-50,100,l),
(-50,0,l)
);
},
{
closed = 1;
nodes = (
(233,0,l),
(233,200,l),
(133,200,l),
(133,0,l)
);
},
{
closed = 1;
nodes = (
(171,267,o),
(161,277,o),
(161,289,cs),
(161,301,o),
(171,311,o),
(183,311,cs),
(195,311,o),
(205,301,o),
(205,289,cs),
(205,277,o),
(195,267,o),
(183,267,cs)
);
},
{
closed = 1;
nodes = (
(276,167,o),
(319,213,o),
(315,280,cs),
(309,373,o),
(205,382,o),
(183,445,c),
(161,382,o),
(57,373,o),
(51,280,cs),
(47,213,o),
(90,167,o),
(183,167,cs)
);
}
);
width = 315;
},
{
associatedMasterId = "299DE00D-7BC2-4DFB-A399-2750234EE670";
layerId = "E4F7FDBA-1D4D-4113-A288-DCC5BB517E11";
name = "Feb 24 20, 23:34";
shapes = (
{
closed = 1;
nodes = (
(333,0,l),
(333,100,l),
(-17,100,l),
(-17,0,l)
);
},
{
closed = 1;
nodes = (
(233,0,l),
(233,200,l),
(133,200,l),
(133,0,l)
);
},
{
closed = 1;
nodes = (
(195,267,o),
(205,277,o),
(205,289,cs),
(205,301,o),
(195,311,o),
(183,311,cs),
(171,311,o),
(161,301,o),
(161,289,cs),
(161,277,o),
(171,267,o),
(183,267,cs)
);
},
{
closed = 1;
nodes = (
(250,167,o),
(305,222,o),
(305,289,cs),
(305,356,o),
(250,411,o),
(183,411,cs),
(116,411,o),
(61,356,o),
(61,289,cs),
(61,222,o),
(116,167,o),
(183,167,cs)
);
}
);
visible = 1;
width = 315;
}
);
},
{
glyphname = "fehDotless-ar.medi.01.92";
kernRight = "straight-l";
layers = (
{
anchors = (
{
name = top;
pos = (183,500);
}
);
layerId = "299DE00D-7BC2-4DFB-A399-2750234EE670";
shapes = (
{
closed = 1;
nodes = (
(315,0,l),
(315,100,l),
(-50,100,l),
(-50,0,l)
);
},
{
closed = 1;
nodes = (
(233,0,l),
(233,200,l),
(133,200,l),
(133,0,l)
);
},
{
closed = 1;
nodes = (
(171,267,o),
(161,277,o),
(161,289,cs),
(161,301,o),
(171,311,o),
(183,311,cs),
(195,311,o),
(205,301,o),
(205,289,cs),
(205,277,o),
(195,267,o),
(183,267,cs)
);
},
{
closed = 1;
nodes = (
(247,167,o),
(287,189,o),
(305,225,cs),
(315,245,o),
(311,279,o),
(290,289,c),
(303,299,o),
(304,322,o),
(296,334,cs),
(264,381,o),
(200,397,o),
(183,445,c),
(166,397,o),
(102,381,o),
(70,334,cs),
(62,322,o),
(63,299,o),
(76,289,c),
(55,279,o),
(51,245,o),
(61,225,cs),
(79,189,o),
(119,167,o),
(183,167,cs)
);
}
);
width = 315;
},
{
annotations = (
{
pos = (863.016,263.531);
type = Text;
}
);
associatedMasterId = "299DE00D-7BC2-4DFB-A399-2750234EE670";
layerId = "89192E01-6409-4E70-B772-D032F6C6CB6F";
name = "Feb 25 20, 00:31";
shapes = (
{
closed = 1;
nodes = (
(315,0,l),
(315,100,l),
(-50,100,l),
(-50,0,l)
);
},
{
closed = 1;
nodes = (
(233,0,l),
(233,200,l),
(133,200,l),
(133,0,l)
);
},
{
closed = 1;
nodes = (
(171,267,o),
(161,277,o),
(161,289,cs),
(161,301,o),
(171,311,o),
(183,311,cs),
(195,311,o),
(205,301,o),
(205,289,cs),
(205,277,o),
(195,267,o),
(183,267,cs)
);
},
{
closed = 1;
nodes = (
(276,167,o),
(319,213,o),
(315,280,cs),
(309,373,o),
(205,382,o),
(183,445,c),
(161,382,o),
(57,373,o),
(51,280,cs),
(47,213,o),
(90,167,o),
(183,167,cs)
);
}
);
visible = 1;
width = 315;
}
);
},
{
glyphname = "fehDotless-ar.medi.01.93";
kernRight = "straight-l";
layers = (
{
anchors = (
{
name = top;
pos = (175,550);
}
);
guides = (
{
pos = (-156,233);
},
{
pos = (-156,366);
},
{
pos = (-156,500);
},
{
angle = 90;
pos = (175,100);
},
{
angle = 90;
pos = (50,100);
},
{
angle = 90;
pos = (300,100);
},
{
pos = (-156,144);
},
{
pos = (-156,188);
}
);
layerId = "299DE00D-7BC2-4DFB-A399-2750234EE670";
shapes = (
{
closed = 1;
nodes = (
(300,0,l),
(300,100,l),
(-50,100,l),
(-50,0,l)
);
},
{
closed = 1;
nodes = (
(246,100,o),
(222,124,o),
(225,144,cs),
(230,179,o),
(273,223,o),
(300,233,c),
(282,266,o),
(282,333,o),
(300,366,c),
(175,500,l),
(50,366,l),
(68,333,o),
(68,266,o),
(50,233,c),
(77,223,o),
(120,179,o),
(125,144,cs),
(128,124,o),
(104,100,o),
(100,100,c),
(100,89,l),
(250,89,l),
(250,100,l)
);
},
{
closed = 1;
nodes = (
(161,256,o),
(150,275,o),
(150,300,cs),
(150,324,o),
(161,343,o),
(175,343,cs),
(189,343,o),
(200,324,o),
(200,300,cs),
(200,275,o),
(189,256,o),
(175,256,cs)
);
}
);
width = 300;
}
);
},
{
glyphname = "fehDotless-ar.init";
kernRight = "straight-l";
layers = (
{
anchors = (
{
name = exit;
pos = (-50,0);
}
);
layerId = "299DE00D-7BC2-4DFB-A399-2750234EE670";
shapes = (
{
closed = 1;
nodes = (
(150,0,l),
(150,100,l),
(-50,100,l),
(-50,0,l)
);
},
{
closed = 1;
nodes = (
(300,0,l),
(300,200,l),
(200,200,l),
(200,0,l)
);
},
{
pos = (50,150);
ref = _head;
},
{
pos = (150,0);
ref = "-beh";
}
);
width = 300;
}
);
},
{
glyphname = "qafDotless-ar";
kernLeft = "straight-r";
kernRight = "straight-l";
layers = (
{
layerId = "299DE00D-7BC2-4DFB-A399-2750234EE670";
shapes = (
{
closed = 1;
nodes = (
(250,50,l),
(150,50,l),
(150,0,l),
(150,-55,o),
(105,-100,o),
(50,-100,c),
(-5,-100,o),
(-50,-55,o),
(-50,0,c),
(-50,-83,o),
(17,-150,o),
(100,-150,c),
(183,-150,o),
(250,-83,o),
(250,0,c)
);
},
{
ref = _head;
}
);
width = 250;
}
);
unicode = 1647;
},
{
glyphname = "kaf-ar";
kernRight = "straight-l";
layers = (
{
layerId = "299DE00D-7BC2-4DFB-A399-2750234EE670";
shapes = (
{
closed = 1;
nodes = (
(290,150,l),
(575,435,l),
(513,513,l),
(150,150,l)
);
},
{
alignment = -1;
pos = (150,0);
ref = _zuluf100;
scale = (-1,1);
},
{
alignment = -1;
pos = (100,0);
ref = "-kaf";
},
{
alignment = -1;
pos = (475,0);
ref = _kaf.top1;
}
);
width = 900;
},
{
associatedMasterId = "299DE00D-7BC2-4DFB-A399-2750234EE670";
hints = (
{
name = _corner.100;
options = 1;
origin = (1,3);
scale = (1,-1);
type = Corner;
},
{
name = _corner.150;
origin = (2,1);
type = Corner;
}
);
layerId = "0509D8F6-DA17-423F-B871-97DCD1D62DB6";
name = "Oct 21 19, 11:12";
shapes = (
{
closed = 1;
nodes = (
(290,150,l),
(892,752,l),
(822,822,l),
(150,150,l)
);
},
{
closed = 1;
nodes = (
(150,0,l),
(150,100,l),
(150,100,l),
(150,0,l)
);
},
{
closed = 1;
nodes = (
(575,435,l),
(575,1000,l),
(475,1000,l),
(475,435,l)
);
},
{
closed = 0;
nodes = (
(525,1200,l),
(525,-100,l)
);
}
);
visible = 1;
width = 900;
}
);
unicode = 1603;
},
{
glyphname = "kaf-ar.03.00";
kernRight = "straight-l";
layers = (
{
layerId = "299DE00D-7BC2-4DFB-A399-2750234EE670";
shapes = (
{
closed = 1;
nodes = (
(291,150,l),
(713,572,l),
(610,611,l),
(150,150,l)
);
},
{
closed = 1;
nodes = (
(713,572,l),
(392,893,l),
(321,823,l),
(604,539,l)
);
},
{
alignment = -1;
pos = (100,0);
ref = "-kaf";
},
{
alignment = -1;
angle = 135.99994;
pos = (392,893);
ref = _zuluf100;
},
{
alignment = -1;
pos = (150,0);
ref = _zuluf100;
scale = (-1,1);
}
);
width = 900;
}
);
},
{
glyphname = "kaf-ar.04.00";
kernRight = "straight-l";
layers = (
{
layerId = "299DE00D-7BC2-4DFB-A399-2750234EE670";
shapes = (
{
closed = 1;
nodes = (
(350,150,l),
(350,250,l),
(150,250,l),
(150,150,l)
);
},
{
alignment = -1;
pos = (100,0);
ref = "-kaf";
},
{
alignment = -1;
pos = (100,0);
ref = _kaf.top3;
},
{
alignment = -1;
pos = (150,0);
ref = _zuluf100;
scale = (-1,1);
}
);
width = 900;
}
);
},
{
glyphname = "kaf-ar.05.00";
kernRight = "straight-l";
layers = (
{
layerId = "299DE00D-7BC2-4DFB-A399-2750234EE670";
shapes = (
{
closed = 1;
nodes = (
(350,150,l),
(350,250,l),
(230,250,l),
(150,150,l)
);
},
{
closed = 1;
nodes = (
(636,1113,o),
(529,1200,o),
(351,1200,c),
(150,1200,l),
(208,1161,o),
(244,1114,o),
(250,1050,c),
(285,1083,o),
(304,1100,o),
(351,1100,cs),
(477,1100,o),
(541,1051,o),
(550,946,cs),
(566,757,o),
(433,574,o),
(305,399,cs),
(248,321,o),
(170,217,o),
(150,150,c),
(257,150,l),
(349,330,o),
(678,632,o),
(650,954,cs)
);
},
{
alignment = -1;
pos = (100,0);
ref = "-kaf";
},
{
alignment = -1;
pos = (150,0);
ref = _zuluf100;
scale = (-1,1);
}
);
width = 900;
}
);
},
{
glyphname = "kaf-ar.06.00";
kernRight = "straight-l";
layers = (
{
layerId = "299DE00D-7BC2-4DFB-A399-2750234EE670";
shapes = (
{
closed = 1;
nodes = (
(290,150,l),
(575,435,l),
(513,513,l),
(150,150,l)
);
},
{
alignment = -1;
pos = (150,0);
ref = _zuluf100;
scale = (-1,1);
},
{
alignment = -1;
pos = (100,0);
ref = "-kaf";
},
{
alignment = -1;
pos = (475,0);
ref = _kaf.top4;
}
);
width = 900;
},
{
associatedMasterId = "299DE00D-7BC2-4DFB-A399-2750234EE670";
hints = (
{
name = _corner.100;
options = 1;
origin = (1,3);
scale = (1,-1);
type = Corner;
},
{
name = _corner.150;
origin = (2,1);
type = Corner;
}
);
layerId = "0509D8F6-DA17-423F-B871-97DCD1D62DB6";
name = "Oct 21 19, 11:12";
shapes = (
{
closed = 1;
nodes = (
(290,150,l),
(892,752,l),
(822,822,l),
(150,150,l)
);
},
{
closed = 1;
nodes = (
(150,0,l),
(150,100,l),
(150,100,l),
(150,0,l)
);
},
{
closed = 1;
nodes = (
(575,435,l),
(575,1000,l),
(475,1000,l),
(475,435,l)
);
},
{
closed = 0;
nodes = (
(525,1200,l),
(525,-100,l)
);
}
);
width = 900;
}
);
},
{
glyphname = "kaf-ar.init";
kernRight = "straight-l";
layers = (
{
layerId = "299DE00D-7BC2-4DFB-A399-2750234EE670";
shapes = (
{
closed = 1;
nodes = (
(190,150,l),
(475,435,l),
(413,513,l),
(50,150,l)
);
},
{
closed = 1;
nodes = (
(-8,0,l),
(42,0,l),
(42,100,l),
(-8,100,l)
);
},
{
ref = "-kaf";
},
{
pos = (375,0);
ref = _kaf.top1;
}
);
width = 800;
}
);
},
{
glyphname = "kaf-ar.init.02.00";
kernRight = "straight-l";
layers = (
{
layerId = "299DE00D-7BC2-4DFB-A399-2750234EE670";
shapes = (
{
closed = 1;
nodes = (
(-8,0,l),
(42,0,l),
(42,100,l),
(-8,100,l)
);
},
{
ref = "-kaf";
},
{
ref = _kaf.top2;
}
);
width = 800;
}
);
},
{
glyphname = "kaf-ar.init.03.00";
kernRight = "straight-l";
layers = (
{
layerId = "299DE00D-7BC2-4DFB-A399-2750234EE670";
shapes = (
{
closed = 1;
nodes = (
(191,150,l),
(613,572,l),
(510,611,l),
(50,150,l)
);
},
{
closed = 1;
nodes = (
(613,572,l),
(292,893,l),
(221,823,l),
(504,539,l)
);
},
{
closed = 1;
nodes = (
(-8,0,l),
(42,0,l),
(42,100,l),
(-8,100,l)
);
},
{
ref = "-kaf";
},
{
angle = 135.99994;
pos = (292,893);
ref = _zuluf100;
}
);
width = 800;
},
{
associatedMasterId = "299DE00D-7BC2-4DFB-A399-2750234EE670";
hints = (
{
name = _corner.100;
origin = (0,2);
type = Corner;
}
);
layerId = "E07AAD0F-C18A-43C2-AC7F-200FA2BAAFFE";
name = "Oct 21 19, 15:07";
shapes = (
{
closed = 1;
nodes = (
(631,412,l),
(702,483,l),
(292,893,l),
(221,823,l)
);
},
{
closed = 1;
nodes = (
(121,80,l),
(672,631,l),
(601,702,l),
(50,150,l)
);
}
);
visible = 1;
width = 800;
}
);
},
{
glyphname = "kaf-ar.init.04.00";
kernRight = "straight-l";
layers = (
{
layerId = "299DE00D-7BC2-4DFB-A399-2750234EE670";
shapes = (
{
closed = 1;
nodes = (
(250,150,l),
(250,250,l),
(50,250,l),
(50,150,l)
);
},
{
closed = 1;
nodes = (
(-8,0,l),
(42,0,l),
(42,100,l),
(-8,100,l)
);
},
{
ref = "-kaf";
},
{
ref = _kaf.top3;
}
);
width = 800;
},
{
associatedMasterId = "299DE00D-7BC2-4DFB-A399-2750234EE670";
layerId = "F20E6E81-92CD-472E-829B-00859FB8F425";
name = "Oct 21 19, 16:22";
shapes = (
{
closed = 1;
nodes = (
(828,886,l),
(757,957,l),
(50,250,l),
(121,179,l)
);
},
{
closed = 1;
nodes = (
(800,858,l),
(800,1200,l),
(700,1200,l),
(700,858,l)
);
}
);
visible = 1;
width = 800;
}
);
},
{
glyphname = "kaf-ar.init.05.00";
kernRight = "straight-l";
layers = (
{
layerId = "299DE00D-7BC2-4DFB-A399-2750234EE670";
shapes = (
{
closed = 1;
nodes = (
(250,150,l),
(250,250,l),
(130,250,l),
(50,150,l)
);
},
{
closed = 1;
nodes = (
(536,1113,o),
(429,1200,o),
(251,1200,c),
(50,1200,l),
(108,1161,o),
(144,1114,o),
(150,1050,c),
(185,1083,o),
(204,1100,o),
(251,1100,cs),
(377,1100,o),
(441,1051,o),
(450,946,cs),
(466,757,o),
(333,574,o),
(205,399,cs),
(148,321,o),
(70,217,o),
(50,150,c),
(157,150,l),
(249,330,o),
(578,632,o),
(550,954,cs)
);
},
{
closed = 1;
nodes = (
(-8,0,l),
(42,0,l),
(42,100,l),
(-8,100,l)
);
},
{
ref = "-kaf";
}
);
width = 800;
},
{
associatedMasterId = "299DE00D-7BC2-4DFB-A399-2750234EE670";
layerId = "C37DDF31-BD40-4D20-BEB4-D0A0DA801428";
name = "Oct 21 19, 16:54";
shapes = (
{
closed = 1;
nodes = (
(250,150,l),
(250,250,l),
(50,250,l),
(50,150,l)
);
},
{
closed = 1;
nodes = (
(378,1100,o),
(441,1051,o),
(450,946,cs),
(466,757,o),
(333,574,o),
(205,399,cs),
(148,321,o),
(92,244,o),
(55,173,c),
(145,127,l),
(250,336,o),
(578,632,o),
(550,954,cs),
(536,1113,o),
(429,1200,o),
(250,1200,c),
(250,1100,l)
);
},
{
closed = 0;
nodes = (
(100,150,l),
(211,369,o),
(527,650,o),
(500,950,cs),
(490,1061,o),
(426,1150,o),
(250,1150,c)
);
}
);
width = 800;
}
);
},
{
glyphname = "kaf-ar.init.06.00";
kernRight = "straight-l";
layers = (
{
layerId = "299DE00D-7BC2-4DFB-A399-2750234EE670";
shapes = (
{
closed = 1;
nodes = (
(190,150,l),
(475,435,l),
(413,513,l),
(50,150,l)
);
},
{
closed = 1;
nodes = (
(-8,0,l),
(42,0,l),
(42,100,l),
(-8,100,l)
);
},
{
ref = "-kaf";
},
{
pos = (375,0);
ref = _kaf.top4;
}
);
width = 800;
}
);
},
{
glyphname = "lam-ar.init.short";
kernRight = "straight-l";
layers = (
{
anchors = (
{
name = exit;
pos = (-50,150);
}
);
layerId = "299DE00D-7BC2-4DFB-A399-2750234EE670";
shapes = (
{
closed = 1;
nodes = (
(150,1000,l),
(50,1000,l),
(50,150,l),
(150,150,l)
);
},
{
closed = 1;
nodes = (
(-50,150,l),
(70,150,l),
(70,250,l),
(-50,250,l)
);
},
{
angle = 90;
pos = (150,1000);
ref = _zuluf150;
}
);
width = 150;
},
{
anchors = (
{
name = exit;
pos = (-50,150);
}
);
associatedMasterId = "299DE00D-7BC2-4DFB-A399-2750234EE670";
layerId = "1F6FB58B-DBFD-4424-8982-F4DC9A170198";
name = Short;
shapes = (
{
closed = 1;
nodes = (
(150,600,l),
(50,600,l),
(50,150,l),
(150,150,l)
);
},
{
closed = 1;
nodes = (
(-50,150,l),
(70,150,l),
(70,250,l),
(-50,250,l)
);
},
{
angle = 90;
pos = (150,600);
ref = _zuluf150;
}
);
width = 150;
}
);
},
{
glyphname = "lam-ar.init.short.01.01";
kernRight = "straight-l";
layers = (
{
anchors = (
{
name = exit;
pos = (-50,150);
}
);
layerId = "299DE00D-7BC2-4DFB-A399-2750234EE670";
shapes = (
{
closed = 1;
nodes = (
(150,150,l),
(150,1000,l),
(50,1000,l),
(50,150,l)
);
},
{
closed = 1;
nodes = (
(-50,150,l),
(70,150,l),
(70,250,l),
(-50,250,l)
);
},
{
angle = 90;
pos = (50,1000);
ref = _zuluf150;
scale = (1,-1);
}
);
width = 150;
},
{
anchors = (
{
name = exit;
pos = (-50,150);
}
);
associatedMasterId = "299DE00D-7BC2-4DFB-A399-2750234EE670";
layerId = "B7FFF309-50E5-4A5D-B473-609B345CAD7E";
name = Short;
shapes = (
{
closed = 1;
nodes = (
(150,150,l),
(150,600,l),
(50,600,l),
(50,150,l)
);
},
{
closed = 1;
nodes = (
(-50,150,l),
(70,150,l),
(70,250,l),
(-50,250,l)
);
},
{
angle = 90;
pos = (50,600);
ref = _zuluf150;
scale = (1,-1);
}
);
width = 150;
}
);
},
{
glyphname = "lam-ar.init.short.wide";
kernRight = "straight-l";
layers = (
{
anchors = (
{
name = exit;
pos = (0,150);
}
);
layerId = "299DE00D-7BC2-4DFB-A399-2750234EE670";
shapes = (
{
closed = 1;
nodes = (
(0,150,l),
(230,150,l),
(230,250,l),
(0,250,l)
);
},
{
pos = (160,0);
ref = "lam-ar.init.short";
}
);
width = 310;
}
);
},
{
glyphname = "lam-ar.init.short.wide.01.01";
kernRight = "straight-l";
layers = (
{
anchors = (
{
name = exit;
pos = (0,150);
}
);
layerId = "299DE00D-7BC2-4DFB-A399-2750234EE670";
shapes = (
{
closed = 1;
nodes = (
(0,150,l),
(230,150,l),
(230,250,l),
(0,250,l)
);
},
{
pos = (160,0);
ref = "lam-ar.init.short.01.01";
}
);
width = 310;
}
);
},
{
glyphname = "lam-ar.init.short.wide.01.02";
kernRight = "straight-l";
layers = (
{
anchors = (
{
name = exit;
pos = (0,150);
}
);
layerId = "299DE00D-7BC2-4DFB-A399-2750234EE670";
shapes = (
{
closed = 1;
nodes = (
(0,150,l),
(230,150,l),
(230,250,l),
(0,250,l)
);
},
{
closed = 1;
nodes = (
(310,1000,l),
(210,1000,l),
(210,750,l),
(310,750,l)
);
},
{
closed = 1;
nodes = (
(310,350,l),
(210,350,l),
(210,150,l),
(310,150,l)
);
},
{
pos = (310,400);
ref = _deco.07;
scale = (-1,1);
},
{
angle = 90;
pos = (310,1000);
ref = _zuluf150;
}
);
width = 310;
}
);
},
{
glyphname = "lam-ar.init.short.wide.01.03";
kernRight = "straight-l";
layers = (
{
anchors = (
{
name = exit;
pos = (0,150);
}
);
layerId = "299DE00D-7BC2-4DFB-A399-2750234EE670";
shapes = (
{
closed = 1;
nodes = (
(0,150,l),
(230,150,l),
(230,250,l),
(0,250,l)
);
},
{
closed = 1;
nodes = (
(310,1000,l),
(210,1000,l),
(210,750,l),
(310,750,l)
);
},
{
closed = 1;
nodes = (
(310,350,l),
(210,350,l),
(210,150,l),
(310,150,l)
);
},
{
pos = (310,400);
ref = _deco.09;
scale = (-1,1);
},
{
angle = 90;
pos = (310,1000);
ref = _zuluf150;
}
);
width = 310;
}
);
},
{
glyphname = "meem-ar";
kernLeft = "straight-r";
kernRight = "straight-l";
layers = (
{
layerId = "299DE00D-7BC2-4DFB-A399-2750234EE670";
shapes = (
{
closed = 1;
nodes = (
(78,-150,o),
(100,-79,o),
(100,0,c),
(100,50,l),
(0,50,l),
(0,0,l),
(1,-42,o),
(1,-134,o),
(-100,-135,c),
(-85,-144,o),
(-54,-150,o),
(-31,-150,cs)
);
},
{
ref = _head;
}
);
width = 250;
}
);
unicode = 1605;
},
{
glyphname = "meem-ar.01.01";
kernRight = "straight-l";
layers = (
{
layerId = "299DE00D-7BC2-4DFB-A399-2750234EE670";
shapes = (
{
closed = 1;
nodes = (
(300,0,l),
(300,100,l),
(150,100,l),
(150,0,l)
);
},
{
pos = (200,0);
ref = "meem-ar.init";
},
{
pos = (150,0);
ref = _zuluf100;
scale = (-1,1);
}
);
width = 500;
}
);
},
{
glyphname = "meem-ar.01.02";
layers = (
{
layerId = "299DE00D-7BC2-4DFB-A399-2750234EE670";
shapes = (
{
closed = 1;
nodes = (
(300,0,l),
(300,100,l),
(150,100,l),
(150,0,l)
);
},
{
pos = (200,0);
ref = "meem-ar.init.01.01";
},
{
pos = (150,0);
ref = _zuluf100;
scale = (-1,1);
}
);
width = 550;
}
);
},
{
glyphname = "meem-ar.01.03";
layers = (
{
layerId = "299DE00D-7BC2-4DFB-A399-2750234EE670";
shapes = (
{
closed = 1;
nodes = (
(300,0,l),
(300,100,l),
(150,100,l),
(150,0,l)
);
},
{
pos = (200,0);
ref = "meem-ar.init.01.02";
},
{
pos = (150,0);
ref = _zuluf100;
scale = (-1,1);
}
);
width = 550;
}
);
},
{
glyphname = "meem-ar.01.04";
kernRight = "straight-l";
layers = (
{
layerId = "299DE00D-7BC2-4DFB-A399-2750234EE670";
shapes = (
{
closed = 1;
nodes = (
(300,0,l),
(300,100,l),
(150,100,l),
(150,0,l)
);
},
{
pos = (200,0);
ref = "meem-ar.init.01.03";
},
{
pos = (150,0);
ref = _zuluf100;
scale = (-1,1);
}
);
width = 500;
}
);
},
{
glyphname = "meem-ar.medi";
layers = (
{
layerId = "299DE00D-7BC2-4DFB-A399-2750234EE670";
shapes = (
{
closed = 1;
nodes = (
(76,0,l),
(76,100,l),
(-50,100,l),
(-50,0,l)
);
},
{
pos = (50,-75);
ref = _meem.01;
}
);
width = 300;
}
);
},
{
glyphname = "meem-ar.medi.01.01";
layers = (
{
layerId = "299DE00D-7BC2-4DFB-A399-2750234EE670";
shapes = (
{
closed = 1;
nodes = (
(76,0,l),
(76,100,l),
(-50,100,l),
(-50,0,l)
);
},
{
pos = (50,-75);
ref = _meem.02;
}
);
width = 300;
}
);
},
{
glyphname = "meem-ar.init";
kernRight = "straight-l";
layers = (
{
anchors = (
{
name = exit;
pos = (-50,-2);
}
);
layerId = "299DE00D-7BC2-4DFB-A399-2750234EE670";
shapes = (
{
closed = 1;
nodes = (
(300,0,l),
(300,100,l),
(-50,100,l),
(-50,0,l)
);
},
{
pos = (50,0);
ref = _head;
}
);
width = 300;
}
);
},
{
glyphname = "meem-ar.init.01.01";
layers = (
{
anchors = (
{
name = exit;
pos = (-50,-2);
}
);
layerId = "299DE00D-7BC2-4DFB-A399-2750234EE670";
shapes = (
{
closed = 1;
nodes = (
(60,25,l),
(60,125,l),
(50,125,l),
(50,25,l)
);
},
{
closed = 1;
nodes = (
(300,0,l),
(300,100,l),
(-50,100,l),
(-50,0,l)
);
},
{
closed = 1;
nodes = (
(350,0,l),
(320,23,o),
(300,59,o),
(300,100,cs),
(300,125,l),
(290,125,l),
(290,0,l)
);
},
{
pos = (50,0);
ref = _meem.01;
}
);
width = 350;
}
);
},
{
glyphname = "meem-ar.init.01.02";
layers = (
{
anchors = (
{
name = exit;
pos = (-50,-2);
}
);
layerId = "299DE00D-7BC2-4DFB-A399-2750234EE670";
shapes = (
{
closed = 1;
nodes = (
(60,25,l),
(60,125,l),
(50,125,l),
(50,25,l)
);
},
{
closed = 1;
nodes = (
(300,0,l),
(300,100,l),
(-50,100,l),
(-50,0,l)
);
},
{
closed = 1;
nodes = (
(350,0,l),
(320,23,o),
(300,59,o),
(300,100,cs),
(300,125,l),
(290,125,l),
(290,0,l)
);
},
{
pos = (50,0);
ref = _meem.02;
}
);
width = 350;
}
);
},
{
glyphname = "meem-ar.init.01.03";
kernRight = "straight-l";
layers = (
{
anchors = (
{
name = exit;
pos = (-50,-2);
}
);
layerId = "299DE00D-7BC2-4DFB-A399-2750234EE670";
shapes = (
{
closed = 1;
nodes = (
(300,0,l),
(300,100,l),
(-50,100,l),
(-50,0,l)
);
},
{
pos = (50,150);
ref = _elbow.2;
scale = (1,-1);
}
);
width = 300;
}
);
},
{
glyphname = "noonghunna-ar";
kernLeft = "straight-r";
kernRight = "straight-l";
layers = (
{
anchors = (
{
name = top;
pos = (100,-50);
}
);
layerId = "299DE00D-7BC2-4DFB-A399-2750234EE670";
shapes = (
{
closed = 1;
nodes = (
(234,-150,o),
(300,-83,o),
(300,0,cs),
(300,96,o),
(259,150,o),
(200,250,c),
(200,189,o),
(186,141,o),
(150,100,c),
(181,68,o),
(200,35,o),
(200,0,cs),
(200,-55,o),
(155,-100,o),
(100,-100,cs),
(45,-100,o),
(0,-55,o),
(0,0,c),
(0,-83,o),
(68,-150,o),
(151,-150,cs)
);
}
);
width = 300;
}
);
unicode = 1722;
},
{
glyphname = "noonghunna-ar.01.01";
kernLeft = "straight-r";
kernRight = "straight-l";
layers = (
{
anchors = (
{
name = top;
pos = (125,-38);
}
);
layerId = "299DE00D-7BC2-4DFB-A399-2750234EE670";
shapes = (
{
closed = 1;
nodes = (
(251,-150,o),
(326,-94,o),
(329,0,cs),
(332,96,o),
(290,166,o),
(230,250,c),
(230,189,o),
(216,141,o),
(180,100,c),
(211,82,o),
(231,48,o),
(231,9,cs),
(231,-50,o),
(184,-97,o),
(125,-97,cs),
(66,-97,o),
(19,-50,o),
(19,9,cs),
(18,43,o),
(30,87,o),
(81,118,cs),
(99,129,o),
(131,139,o),
(164,134,c),
(160,150,o),
(144,161,o),
(129,161,c),
(135,175,o),
(147,240,o),
(77,251,c),
(121,225,o),
(113,179,o),
(87,153,cs),
(79,145,o),
(70,136,o),
(61,130,cs),
(16,99,o),
(0,55,o),
(0,15,c),
(0,-76,o),
(74,-150,o),
(165,-150,cs)
);
}
);
width = 329;
},
{
anchors = (
{
name = top;
pos = (130,-50);
}
);
associatedMasterId = "299DE00D-7BC2-4DFB-A399-2750234EE670";
layerId = "94C04E2C-974C-48B1-8CF0-BF1220662707";
name = "Oct 21 19, 00:58";
shapes = (
{
closed = 1;
nodes = (
(216,141,o),
(230,189,o),
(230,250,c),
(289,162,o),
(329,96,o),
(329,0,cs),
(329,-94,o),
(251,-150,o),
(165,-150,cs),
(74,-150,o),
(0,-76,o),
(0,15,c),
(0,55,o),
(18,103,o),
(61,129,cs),
(70,135,o),
(78,141,o),
(85,149,cs),
(115,183,o),
(118,231,o),
(77,251,c),
(142,241,o),
(142,179,o),
(118,153,c),
(133,159,o),
(154,142,o),
(162,129,c),
(129,134,o),
(99,128,o),
(76,114,cs),
(30,86,o),
(18,43,o),
(19,9,cs),
(19,-50,o),
(66,-97,o),
(125,-97,cs),
(184,-97,o),
(231,-50,o),
(231,9,cs),
(231,48,o),
(211,82,o),
(180,100,c)
);
},
{
closed = 1;
nodes = (
(78,150,o),
(100,172,o),
(100,200,cs),
(100,228,o),
(78,250,o),
(50,250,cs),
(22,250,o),
(0,228,o),
(0,200,cs),
(0,172,o),
(22,150,o),
(50,150,cs)
);
}
);
visible = 1;
width = 329;
}
);
},
{
glyphname = "noonghunna-ar.01.02";
kernLeft = bowel;
kernRight = "straight-l";
layers = (
{
anchors = (
{
name = top;
pos = (100,-50);
}
);
layerId = "299DE00D-7BC2-4DFB-A399-2750234EE670";
shapes = (
{
closed = 1;
nodes = (
(233,-150,o),
(300,-83,o),
(300,0,cs),
(300,100,l),
(200,100,l),
(200,0,ls),
(200,-55,o),
(155,-100,o),
(100,-100,cs),
(45,-100,o),
(0,-55,o),
(0,0,c),
(0,-83,o),
(67,-150,o),
(150,-150,cs)
);
},
{
angle = 90;
pos = (300,100);
ref = _zuluf100;
}
);
width = 300;
}
);
},
{
glyphname = "noonghunna-ar.01.03";
kernLeft = "straight-r";
kernRight = "straight-l";
layers = (
{
anchors = (
{
name = top;
pos = (78,-24);
}
);
layerId = "299DE00D-7BC2-4DFB-A399-2750234EE670";
shapes = (
{
closed = 1;
nodes = (
(250,100,l),
(250,166,o),
(177,226,o),
(125,250,c),
(120,189,o),
(110,141,o),
(75,100,c),
(133,100,o),
(150,73,o),
(150,51,c)
);
},
{
closed = 1;
nodes = (
(250,-150,l),
(250,-50,l),
(50,-50,l),
(0,-50,o),
(0,0,o),
(0,0,c),
(0,-38,o),
(-35,-124,o),
(-50,-150,c),
(50,-150,l)
);
},
{
closed = 1;
nodes = (
(250,-100,l),
(250,100,l),
(150,100,l),
(150,-100,l)
);
}
);
width = 250;
}
);
},
{
glyphname = "noonghunna-ar.01.04";
kernLeft = "straight-r";
kernRight = "straight-l";
layers = (
{
anchors = (
{
name = top;
pos = (75,-24);
}
);
layerId = "299DE00D-7BC2-4DFB-A399-2750234EE670";
shapes = (
{
closed = 1;
nodes = (
(250,121,o),
(209,150,o),
(150,250,c),
(150,189,o),
(126,141,o),
(90,100,c),
(124,93,o),
(150,61,o),
(150,25,cs),
(150,-16,o),
(116,-50,o),
(75,-50,cs),
(43,-50,o),
(11,-29,o),
(0,0,c),
(-7,-56,o),
(-22,-106,o),
(-50,-150,c),
(75,-150,ls),
(172,-150,o),
(250,-72,o),
(250,25,cs)
);
}
);
width = 250;
}
);
},
{
glyphname = "heh-ar";
kernRight = "straight-l";
layers = (
{
anchors = (
{
name = top;
pos = (175,450);
}
);
layerId = "299DE00D-7BC2-4DFB-A399-2750234EE670";
shapes = (
{
closed = 1;
nodes = (
(60,0,l),
(60,100,l),
(50,100,l),
(50,59,o),
(30,23,o),
(0,0,c)
);
},
{
pos = (50,0);
ref = _head;
}
);
width = 300;
}
);
unicode = 1607;
},
{
glyphname = "heh-ar.02.00";
layers = (
{
anchors = (
{
name = top;
pos = (225,550);
}
);
layerId = "299DE00D-7BC2-4DFB-A399-2750234EE670";
shapes = (
{
closed = 1;
nodes = (
(526,0,l),
(298,396,l),
(216,338,l),
(411,0,l)
);
},
{
closed = 1;
nodes = (
(130,0,l),
(526,0,l),
(417,100,l),
(130,100,l)
);
},
{
closed = 1;
nodes = (
(105,0,l),
(-45,-150,l),
(220,0,l),
(220,50,l),
(105,50,l)
);
},
{
closed = 1;
nodes = (
(296,331,l),
(105,0,l),
(220,0,l),
(355,233,l)
);
},
{
closed = 1;
nodes = (
(252,361,l),
(147,331,o),
(70,243,o),
(70,128,cs),
(70,64,o),
(94,6,o),
(134,-39,c),
(212,14,l),
(180,41,o),
(160,82,o),
(160,128,cs),
(160,209,o),
(234,275,o),
(314,278,c)
);
},
{
angle = 119.99987;
pos = (298,396);
ref = _zuluf100;
}
);
width = 526;
},
{
associatedMasterId = "299DE00D-7BC2-4DFB-A399-2750234EE670";
layerId = "6119B598-8DCB-4491-9819-97009D4C9829";
name = "Feb 10 20, 18:52";
shapes = (
{
closed = 1;
nodes = (
(526,0,l),
(283,420,l),
(197,370,l),
(411,0,l)
);
},
{
closed = 1;
nodes = (
(526,0,l),
(417,100,l),
(-50,100,l),
(-50,0,l)
);
},
{
closed = 1;
nodes = (
(169,71,l),
(151,93,o),
(140,121,o),
(140,151,cs),
(140,219,o),
(196,275,o),
(264,275,c),
(274,365,l),
(150,365,o),
(50,265,o),
(50,141,cs),
(50,99,o),
(62,59,o),
(82,25,c)
);
},
{
closed = 1;
nodes = (
(220,19,l),
(350,244,l),
(280,322,l),
(94,0,l)
);
},
{
alignment = -1;
angle = 119.99987;
pos = (283,420);
ref = _zuluf100;
}
);
width = 526;
}
);
},
{
glyphname = "heh-ar.01.01";
kernRight = "straight-l";
layers = (
{
anchors = (
{
name = top;
pos = (25,300);
},
{
name = topV;
pos = (100,250);
}
);
layerId = "299DE00D-7BC2-4DFB-A399-2750234EE670";
shapes = (
{
closed = 1;
nodes = (
(300,0,l),
(300,400,l),
(200,400,l),
(200,0,l)
);
},
{
ref = "heh-ar";
},
{
angle = 90;
pos = (300,400);
ref = _zuluf100;
}
);
width = 300;
}
);
},
{
glyphname = "heh-ar.medi";
layers = (
{
layerId = "299DE00D-7BC2-4DFB-A399-2750234EE670";
shapes = (
{
closed = 1;
nodes = (
(-34,716,o),
(36,819,o),
(165,819,cs),
(362,819,o),
(379,649,o),
(321,548,cs),
(206,348,l),
(263,248,l),
(408,501,ls),
(450,574,o),
(450,634,o),
(450,663,cs),
(450,801,o),
(338,913,o),
(200,913,cs),
(62,913,o),
(-50,788,o),
(-50,650,c)
);
},
{
closed = 1;
nodes = (
(100,0,l),
(100,100,l),
(-50,100,l),
(-50,0,l)
);
},
{
closed = 0;
nodes = (
(154,39,l)
);
},
{
closed = 1;
nodes = (
(138,229,l),
(66,105,l),
(48,79,o),
(38,47,o),
(38,13,cs),
(38,-77,o),
(110,-150,o),
(200,-150,cs),
(290,-150,o),
(363,-77,o),
(363,13,cs),
(363,47,o),
(353,79,o),
(335,105,c),
(154,417,l),
(74,358,l),
(256,44,ls),
(261,35,o),
(264,24,o),
(264,13,cs),
(264,-22,o),
(236,-50,o),
(201,-50,cs),
(166,-50,o),
(138,-22,o),
(138,13,cs),
(138,24,o),
(141,35,o),
(146,44,cs),
(195,129,l)
);
},
{
closed = 1;
nodes = (
(510,0,l),
(510,100,l),
(300,100,l),
(300,0,l)
);
},
{
closed = 1;
nodes = (
(74,358,l),
(159,408,l),
(154,417,ls),
(141,441,o),
(147,474,o),
(172,485,cs),
(183,490,l),
(133,577,l),
(124,572,ls),
(51,532,o),
(29,439,o),
(69,367,cs)
);
},
{
closed = 1;
nodes = (
(427,44,l),
(510,100,l),
(349,378,l),
(292,279,l)
);
},
{
closed = 1;
nodes = (
(200,637,l),
(180,614,o),
(158,591,o),
(124,572,c),
(223,399,l),
(280,498,l)
);
},
{
closed = 1;
nodes = (
(209,1049,o),
(97,993,o),
(149,899,c),
(298,889,l),
(298,893,l),
(264,904,o),
(226,939,o),
(220,980,cs),
(213,1028,o),
(233,1089,o),
(234,1133,cs),
(236,1200,o),
(190,1200,o),
(180,1200,c),
(203,1128,l)
);
},
{
closed = 1;
nodes = (
(202,1120,o),
(220,1138,o),
(220,1160,cs),
(220,1182,o),
(202,1200,o),
(180,1200,cs),
(158,1200,o),
(140,1182,o),
(140,1160,cs),
(140,1138,o),
(158,1120,o),
(180,1120,cs)
);
}
);
width = 510;
},
{
associatedMasterId = "299DE00D-7BC2-4DFB-A399-2750234EE670";
layerId = "5F8BE0DD-A25E-402F-A2A4-C6ED0FEF0DBA";
name = "Oct 22 19, 01:33";
shapes = (
{
closed = 0;
nodes = (
(570,100,l),
(-130,100,l)
);
},
{
closed = 0;
nodes = (
(220,-150,l),
(220,1200,l)
);
},
{
closed = 0;
nodes = (
(570,650,l),
(-130,650,l)
);
},
{
closed = 0;
nodes = (
(-130,0,l),
(570,0,l)
);
},
{
closed = 0;
nodes = (
(570,900,l),
(-130,900,l)
);
},
{
closed = 0;
nodes = (
(57,-167,l),
(57,213,l)
);
},
{
closed = 1;
nodes = (
(-14,716,o),
(54,819,o),
(183,819,cs),
(337,819,o),
(420,684,o),
(377,610,cs),
(60,61,l),
(146,11,l),
(437,517,ls),
(470,574,o),
(470,634,o),
(470,663,cs),
(470,801,o),
(358,913,o),
(220,913,cs),
(82,913,o),
(-30,788,o),
(-30,650,c)
);
},
{
closed = 0;
nodes = (
(527,105,l),
(271,548,l),
(184,501,l),
(447,44,ls)
);
},
{
closed = 0;
nodes = (
(382,-167,l),
(382,213,l)
);
},
{
closed = 1;
nodes = (
(266,39,l),
(83,357,l),
(92,362,l),
(275,44,l)
);
},
{
closed = 1;
nodes = (
(175,435,l),
(363,110,l),
(354,105,l),
(166,430,l)
);
},
{
closed = 1;
nodes = (
(76,110,l),
(332,553,l),
(341,548,l),
(85,105,l)
);
},
{
closed = 1;
nodes = (
(437,496,l),
(174,39,l),
(165,44,l),
(428,501,l)
);
}
);
width = 550;
}
);
},
{
glyphname = "heh-ar.medi.01.01";
layers = (
{
layerId = "299DE00D-7BC2-4DFB-A399-2750234EE670";
shapes = (
{
closed = 1;
nodes = (
(237,0,l),
(237,100,l),
(-50,100,l),
(-50,0,l)
);
},
{
closed = 1;
nodes = (
(500,0,l),
(500,100,l),
(437,100,l),
(437,0,l)
);
},
{
closed = 1;
nodes = (
(274,229,l),
(202,105,l),
(184,79,o),
(174,47,o),
(174,13,cs),
(174,-77,o),
(246,-150,o),
(336,-150,cs),
(426,-150,o),
(499,-77,o),
(499,13,cs),
(499,47,o),
(489,79,o),
(471,105,c),
(250,487,l),
(209,362,l),
(392,44,ls),
(397,35,o),
(400,24,o),
(400,13,cs),
(400,-22,o),
(372,-50,o),
(337,-50,cs),
(302,-50,o),
(274,-22,o),
(274,13,cs),
(274,24,o),
(277,35,o),
(282,44,cs),
(331,129,l)
);
},
{
closed = 1;
nodes = (
(253,1120,o),
(271,1138,o),
(271,1160,cs),
(271,1182,o),
(253,1200,o),
(231,1200,cs),
(209,1200,o),
(191,1182,o),
(191,1160,cs),
(191,1138,o),
(209,1120,o),
(231,1120,cs)
);
},
{
closed = 1;
nodes = (
(258,1064,o),
(185,1015,o),
(185,949,cs),
(185,933,o),
(189,917,o),
(199,899,c),
(348,886,l),
(348,892,l),
(314,903,o),
(276,939,o),
(270,980,cs),
(269,987,o),
(269,995,o),
(269,1002,cs),
(269,1048,o),
(284,1100,o),
(284,1138,cs),
(284,1190,o),
(253,1200,o),
(234,1200,cs),
(230,1200,o),
(227,1200,o),
(224,1199,c),
(253,1128,l)
);
},
{
closed = 1;
nodes = (
(16,726,o),
(86,819,o),
(215,819,cs),
(348,819,o),
(400,719,o),
(400,595,cs),
(400,516,o),
(382,428,o),
(343,348,c),
(400,248,l),
(471,369,o),
(500,493,o),
(500,601,cs),
(500,763,o),
(413,913,o),
(250,913,cs),
(112,913,o),
(0,808,o),
(0,600,c)
);
},
{
closed = 0;
nodes = (
(291,39,l)
);
},
{
closed = 1;
nodes = (
(128,77,l),
(305,383,l),
(250,488,l),
(13,77,l)
);
}
);
width = 500;
},
{
associatedMasterId = "299DE00D-7BC2-4DFB-A399-2750234EE670";
layerId = "5F8BE0DD-A25E-402F-A2A4-C6ED0FEF0DBA";
name = "Oct 22 19, 01:33";
shapes = (
{
closed = 0;
nodes = (
(600,100,l),
(-100,100,l)
);
},
{
closed = 0;
nodes = (
(250,-150,l),
(250,1200,l)
);
},
{
closed = 0;
nodes = (
(600,650,l),
(-100,650,l)
);
},
{
closed = 0;
nodes = (
(-100,0,l),
(600,0,l)
);
},
{
closed = 0;
nodes = (
(600,900,l),
(-100,900,l)
);
},
{
closed = 0;
nodes = (
(87,-167,l),
(87,213,l)
);
},
{
closed = 0;
nodes = (
(412,-167,l),
(412,213,l)
);
},
{
closed = 1;
nodes = (
(16,716,o),
(86,819,o),
(215,819,cs),
(352,819,o),
(400,733,o),
(400,648,cs),
(400,548,o),
(383,448,o),
(343,348,c),
(400,248,l),
(495,422,o),
(500,645,o),
(500,659,cs),
(500,797,o),
(388,913,o),
(250,913,cs),
(112,913,o),
(0,788,o),
(0,650,c)
);
}
);
visible = 1;
width = 500;
}
);
},
{
glyphname = "heh-ar.medi.01.02";
layers = (
{
layerId = "299DE00D-7BC2-4DFB-A399-2750234EE670";
shapes = (
{
closed = 1;
nodes = (
(74,358,l),
(159,408,l),
(154,417,ls),
(141,441,o),
(147,474,o),
(172,485,cs),
(183,490,l),
(133,577,l),
(124,572,ls),
(52,530,o),
(29,439,o),
(69,367,cs)
);
},
{
closed = 1;
nodes = (
(510,0,l),
(510,100,l),
(-50,100,l),
(-50,0,l)
);
},
{
closed = 1;
nodes = (
(510,100,l),
(200,637,l),
(180,614,o),
(158,591,o),
(124,572,c),
(427,44,l)
);
},
{
closed = 1;
nodes = (
(159,408,l),
(74,358,l),
(137,249,l),
(193,347,l)
);
},
{
closed = 1;
nodes = (
(33,50,l),
(366,50,l),
(262,228,l),
(206,129,l),
(248,56,l),
(152,56,l),
(280,280,l),
(223,378,l)
);
},
{
closed = 1;
nodes = (
(-34,1022,o),
(16,1111,o),
(138,1111,cs),
(277,1111,o),
(358,997,o),
(352,818,cs),
(349,715,o),
(329,607,o),
(288,505,c),
(349,400,l),
(398,491,o),
(452,654,o),
(452,841,cs),
(452,1060,o),
(336,1200,o),
(180,1200,cs),
(42,1200,o),
(-50,1088,o),
(-50,950,c)
);
}
);
width = 510;
},
{
associatedMasterId = "299DE00D-7BC2-4DFB-A399-2750234EE670";
layerId = "5F8BE0DD-A25E-402F-A2A4-C6ED0FEF0DBA";
name = "Oct 22 19, 01:33";
shapes = (
{
closed = 0;
nodes = (
(570,100,l),
(-130,100,l)
);
},
{
closed = 0;
nodes = (
(220,-150,l),
(220,1200,l)
);
},
{
closed = 0;
nodes = (
(570,650,l),
(-130,650,l)
);
},
{
closed = 0;
nodes = (
(-130,0,l),
(570,0,l)
);
},
{
closed = 0;
nodes = (
(570,900,l),
(-130,900,l)
);
},
{
closed = 0;
nodes = (
(57,-167,l),
(57,213,l)
);
},
{
closed = 0;
nodes = (
(60,61,l),
(146,11,l)
);
},
{
closed = 0;
nodes = (
(527,105,l),
(271,548,l),
(184,501,l),
(447,44,ls)
);
},
{
closed = 0;
nodes = (
(382,-167,l),
(382,213,l)
);
},
{
closed = 1;
nodes = (
(358,700,o),
(470,812,o),
(470,950,cs),
(470,1088,o),
(358,1200,o),
(220,1200,cs),
(82,1200,o),
(-30,1088,o),
(-30,950,cs),
(-30,812,o),
(82,700,o),
(220,700,cs)
);
},
{
closed = 1;
nodes = (
(280,700,o),
(370,790,o),
(370,900,cs),
(370,1010,o),
(280,1100,o),
(170,1100,cs),
(60,1100,o),
(-30,1010,o),
(-30,900,cs),
(-30,790,o),
(60,700,o),
(170,700,cs)
);
},
{
closed = 1;
nodes = (
(421,484,o),
(466,646,o),
(472,815,cs),
(480,1054,o),
(375,1211,o),
(178,1211,c),
(178,1111,l),
(317,1111,o),
(378,997,o),
(372,818,cs),
(367,679,o),
(333,532,o),
(257,402,c),
(343,352,l)
);
},
{
closed = 1;
nodes = (
(371,383,l),
(174,39,l),
(165,44,l),
(362,388,l)
);
},
{
closed = 1;
nodes = (
(76,110,l),
(248,407,l),
(257,402,l),
(85,105,l)
);
},
{
closed = 1;
nodes = (
(229,642,l),
(539,105,l),
(530,100,l),
(220,637,l)
);
},
{
closed = 1;
nodes = (
(438,39,l),
(135,567,l),
(144,572,l),
(447,44,l)
);
},
{
closed = 1;
nodes = (
(53,50,l),
(385,50,l),
(354,105,l),
(282,228,l),
(226,129,l),
(268,56,l),
(172,56,l),
(220,140,l),
(276,239,l),
(300,280,l),
(243,378,l)
);
}
);
visible = 1;
width = 550;
}
);
},
{
glyphname = "heh-ar.medi.01.03";
layers = (
{
layerId = "299DE00D-7BC2-4DFB-A399-2750234EE670";
shapes = (
{
closed = 1;
nodes = (
(100,0,l),
(100,100,l),
(-50,100,l),
(-50,0,l)
);
},
{
closed = 1;
nodes = (
(74,358,l),
(159,408,l),
(154,417,ls),
(141,441,o),
(147,474,o),
(172,485,cs),
(183,490,l),
(133,577,l),
(124,572,ls),
(52,530,o),
(29,439,o),
(69,367,cs)
);
},
{
closed = 1;
nodes = (
(510,0,l),
(510,100,l),
(300,100,l),
(300,0,l)
);
},
{
closed = 1;
nodes = (
(510,100,l),
(200,637,l),
(180,614,o),
(158,591,o),
(124,572,c),
(427,44,l)
);
},
{
closed = 1;
nodes = (
(146,430,l),
(72,362,l),
(137,249,l),
(193,347,l)
);
},
{
closed = 1;
nodes = (
(37,-77,o),
(109,-150,o),
(199,-150,cs),
(289,-150,o),
(362,-77,o),
(362,13,cs),
(362,47,o),
(352,79,o),
(334,105,c),
(262,228,l),
(206,129,l),
(255,44,ls),
(260,35,o),
(263,24,o),
(263,13,cs),
(263,-22,o),
(235,-50,o),
(200,-50,cs),
(165,-50,o),
(137,-22,o),
(137,13,cs),
(137,24,o),
(140,35,o),
(145,44,cs),
(200,140,l),
(256,239,l),
(280,280,l),
(223,378,l),
(65,105,l),
(47,79,o),
(37,47,o),
(37,13,cs)
);
},
{
closed = 1;
nodes = (
(-34,1022,o),
(16,1111,o),
(138,1111,cs),
(277,1111,o),
(358,997,o),
(352,818,cs),
(349,715,o),
(329,607,o),
(288,505,c),
(349,400,l),
(398,491,o),
(452,654,o),
(452,841,cs),
(452,1060,o),
(336,1200,o),
(180,1200,cs),
(42,1200,o),
(-50,1088,o),
(-50,950,c)
);
}
);
width = 510;
},
{
associatedMasterId = "299DE00D-7BC2-4DFB-A399-2750234EE670";
layerId = "5F8BE0DD-A25E-402F-A2A4-C6ED0FEF0DBA";
name = "Oct 22 19, 01:33";
shapes = (
{
closed = 0;
nodes = (
(570,100,l),
(-130,100,l)
);
},
{
closed = 0;
nodes = (
(220,-150,l),
(220,1200,l)
);
},
{
closed = 0;
nodes = (
(570,650,l),
(-130,650,l)
);
},
{
closed = 0;
nodes = (
(-130,0,l),
(570,0,l)
);
},
{
closed = 0;
nodes = (
(570,900,l),
(-130,900,l)
);
},
{
closed = 0;
nodes = (
(57,-167,l),
(57,213,l)
);
},
{
closed = 0;
nodes = (
(60,61,l),
(146,11,l)
);
},
{
closed = 0;
nodes = (
(527,105,l),
(271,548,l),
(184,501,l),
(447,44,ls)
);
},
{
closed = 0;
nodes = (
(382,-167,l),
(382,213,l)
);
},
{
closed = 1;
nodes = (
(358,700,o),
(470,812,o),
(470,950,cs),
(470,1088,o),
(358,1200,o),
(220,1200,cs),
(82,1200,o),
(-30,1088,o),
(-30,950,cs),
(-30,812,o),
(82,700,o),
(220,700,cs)
);
},
{
closed = 1;
nodes = (
(280,700,o),
(370,790,o),
(370,900,cs),
(370,1010,o),
(280,1100,o),
(170,1100,cs),
(60,1100,o),
(-30,1010,o),
(-30,900,cs),
(-30,790,o),
(60,700,o),
(170,700,cs)
);
},
{
closed = 1;
nodes = (
(421,484,o),
(466,646,o),
(472,815,cs),
(480,1054,o),
(375,1211,o),
(178,1211,c),
(178,1111,l),
(317,1111,o),
(378,997,o),
(372,818,cs),
(367,679,o),
(333,532,o),
(257,402,c),
(343,352,l)
);
},
{
closed = 1;
nodes = (
(371,383,l),
(174,39,l),
(165,44,l),
(362,388,l)
);
},
{
closed = 1;
nodes = (
(76,110,l),
(248,407,l),
(257,402,l),
(85,105,l)
);
},
{
closed = 1;
nodes = (
(229,642,l),
(539,105,l),
(530,100,l),
(220,637,l)
);
},
{
closed = 1;
nodes = (
(438,39,l),
(135,567,l),
(144,572,l),
(447,44,l)
);
}
);
visible = 1;
width = 550;
}
);
},
{
glyphname = "heh-ar.medi.02.03";
layers = (
{
layerId = "299DE00D-7BC2-4DFB-A399-2750234EE670";
shapes = (
{
closed = 1;
nodes = (
(447,298,l),
(330,415,ls),
(321,424,o),
(321,440,o),
(331,450,cs),
(341,460,o),
(355,459,o),
(365,450,cs),
(376,440,l),
(447,510,l),
(437,520,ls),
(389,568,o),
(309,570,o),
(260,520,cs),
(212,471,o),
(212,392,o),
(261,343,cs),
(376,228,l)
);
},
{
closed = 1;
nodes = (
(543,451,ls),
(552,460,o),
(567,460,o),
(577,450,cs),
(587,440,o),
(587,425,o),
(578,416,cs),
(567,404,l),
(637,334,l),
(647,344,ls),
(696,393,o),
(698,471,o),
(648,521,cs),
(599,570,o),
(520,569,o),
(471,520,cs),
(355,404,l),
(425,334,l)
);
},
{
closed = 1;
nodes = (
(461,355,l),
(750,66,l),
(857,100,l),
(552,100,l),
(554,0,l),
(857,0,l),
(857,100,l),
(531,426,l)
);
},
{
closed = 1;
nodes = (
(162,70,l),
(341,249,l),
(270,320,l),
(21,71,l)
);
},
{
closed = 1;
nodes = (
(519,0,l),
(535,33,o),
(524,72,o),
(490,100,c),
(-50,100,l),
(-50,0,l)
);
},
{
closed = 1;
nodes = (
(414,110,l),
(553,249,l),
(482,320,l),
(325,163,ls),
(310,148,o),
(297,130,o),
(288,110,c)
);
},
{
closed = 1;
nodes = (
(295,-90,o),
(368,-150,o),
(454,-150,cs),
(554,-150,o),
(636,-68,o),
(636,33,cs),
(636,84,o),
(615,130,o),
(581,163,cs),
(531,213,l),
(461,143,l),
(513,91,l),
(524,78,o),
(536,56,o),
(536,32,cs),
(536,-13,o),
(499,-50,o),
(454,-50,cs),
(424,-50,o),
(397,-34,o),
(383,-10,c),
(276,-10,l)
);
}
);
width = 857;
},
{
associatedMasterId = "299DE00D-7BC2-4DFB-A399-2750234EE670";
layerId = "95F886DD-7128-4DD8-80EA-7EC6A1A3DD0D";
name = "Feb 10 20, 21:09";
shapes = (
{
closed = 1;
nodes = (
(190,250,l),
(190,350,l),
(-200,350,l),
(-200,250,l)
);
},
{
closed = 1;
nodes = (
(300,-300,l),
(300,90,l),
(200,90,l),
(200,-300,l)
);
},
{
closed = 1;
nodes = (
(340,100,l),
(340,200,l),
(-200,200,l),
(-200,100,l)
);
},
{
closed = 1;
nodes = (
(450,-300,l),
(450,240,l),
(350,240,l),
(350,-300,l)
);
},
{
closed = 1;
nodes = (
(300,210,l),
(300,375,ls),
(300,388,o),
(311,399,o),
(325,399,cs),
(339,399,o),
(350,388,o),
(350,375,cs),
(350,360,l),
(450,360,l),
(450,373,ls),
(450,442,o),
(395,499,o),
(325,499,cs),
(256,499,o),
(200,442,o),
(200,373,cs),
(200,210,l)
);
},
{
closed = 1;
nodes = (
(476,250,ls),
(489,250,o),
(500,239,o),
(500,225,cs),
(500,211,o),
(489,200,o),
(476,200,cs),
(460,200,l),
(460,100,l),
(474,100,ls),
(543,100,o),
(600,155,o),
(600,225,cs),
(600,294,o),
(543,350,o),
(474,350,cs),
(310,350,l),
(310,250,l)
);
}
);
width = 450;
},
{
associatedMasterId = "299DE00D-7BC2-4DFB-A399-2750234EE670";
layerId = "57D9BDDE-DBB8-49DB-B75C-1B5EA3DBAE73";
name = "Feb 10 20, 21:12";
shapes = (
{
closed = 1;
nodes = (
(250,504,l),
(179,433,l),
(639,-27,l),
(710,44,l)
);
},
{
closed = 1;
nodes = (
(144,398,l),
(73,327,l),
(533,-133,l),
(604,-62,l)
);
},
{
closed = 1;
nodes = (
(427,327,l),
(356,398,l),
(-104,-62,l),
(-33,-133,l)
);
},
{
closed = 1;
nodes = (
(321,433,l),
(250,504,l),
(-210,44,l),
(-139,-27,l)
);
}
);
width = 450;
},
{
associatedMasterId = "299DE00D-7BC2-4DFB-A399-2750234EE670";
layerId = "436160EA-397E-48C3-8EE2-DF90F54EACCE";
name = "Feb 10 20, 21:13";
shapes = (
{
closed = 1;
nodes = (
(190,250,l),
(190,350,l),
(-200,350,l),
(-200,250,l)
);
},
{
closed = 1;
nodes = (
(300,-300,l),
(300,90,l),
(200,90,l),
(200,-300,l)
);
},
{
closed = 1;
nodes = (
(340,100,l),
(340,200,l),
(-200,200,l),
(-200,100,l)
);
},
{
closed = 1;
nodes = (
(450,-300,l),
(450,240,l),
(350,240,l),
(350,-300,l)
);
},
{
closed = 1;
nodes = (
(300,210,l),
(300,375,ls),
(300,388,o),
(311,399,o),
(325,399,cs),
(339,399,o),
(350,388,o),
(350,375,cs),
(350,360,l),
(450,360,l),
(450,373,ls),
(450,442,o),
(395,499,o),
(325,499,cs),
(256,499,o),
(200,442,o),
(200,373,cs),
(200,210,l)
);
},
{
closed = 1;
nodes = (
(476,250,ls),
(489,250,o),
(500,239,o),
(500,225,cs),
(500,211,o),
(489,200,o),
(476,200,cs),
(460,200,l),
(460,100,l),
(474,100,ls),
(543,100,o),
(600,155,o),
(600,225,cs),
(600,294,o),
(543,350,o),
(474,350,cs),
(310,350,l),
(310,250,l)
);
}
);
width = 450;
},
{
associatedMasterId = "299DE00D-7BC2-4DFB-A399-2750234EE670";
layerId = "307D0D6E-22EC-42EE-B7FB-BF7C80963931";
name = "Feb 10 20, 22:00";
shapes = (
{
closed = 1;
nodes = (
(447,298,l),
(330,415,ls),
(321,424,o),
(321,440,o),
(331,450,cs),
(341,460,o),
(355,459,o),
(365,450,cs),
(376,440,l),
(447,510,l),
(437,520,ls),
(389,568,o),
(309,570,o),
(260,520,cs),
(212,471,o),
(212,392,o),
(261,343,cs),
(376,228,l)
);
},
{
closed = 1;
nodes = (
(543,451,ls),
(552,460,o),
(567,460,o),
(577,450,cs),
(587,440,o),
(587,425,o),
(578,416,cs),
(567,404,l),
(637,334,l),
(647,344,ls),
(696,393,o),
(698,471,o),
(648,521,cs),
(599,570,o),
(520,569,o),
(471,520,cs),
(355,404,l),
(425,334,l)
);
},
{
closed = 1;
nodes = (
(461,355,l),
(750,66,l),
(857,100,l),
(552,100,l),
(554,0,l),
(857,0,l),
(857,100,l),
(531,426,l)
);
},
{
closed = 1;
nodes = (
(162,70,l),
(341,249,l),
(270,320,l),
(21,71,l)
);
},
{
closed = 1;
nodes = (
(519,0,l),
(523,10,o),
(526,20,o),
(526,32,cs),
(526,50,o),
(518,70,o),
(506,84,cs),
(490,100,l),
(-50,100,l),
(-50,0,l)
);
},
{
closed = 1;
nodes = (
(414,110,l),
(553,249,l),
(482,320,l),
(325,163,ls),
(310,148,o),
(297,130,o),
(288,110,c)
);
},
{
closed = 1;
nodes = (
(295,-90,o),
(368,-150,o),
(454,-150,cs),
(554,-150,o),
(636,-68,o),
(636,33,cs),
(636,84,o),
(615,130,o),
(581,163,cs),
(531,213,l),
(461,143,l),
(513,91,l),
(524,78,o),
(536,56,o),
(536,32,cs),
(536,-13,o),
(499,-50,o),
(454,-50,cs),
(424,-50,o),
(397,-34,o),
(383,-10,c),
(276,-10,l)
);
}
);
visible = 1;
width = 857;
}
);
},
{
glyphname = "heh-ar.medi.02.04";
layers = (
{
layerId = "299DE00D-7BC2-4DFB-A399-2750234EE670";
shapes = (
{
closed = 1;
nodes = (
(-50,0,l),
(54,0,l),
(54,100,l),
(-50,100,l)
);
},
{
closed = 1;
nodes = (
(383,349,o),
(419,334,o),
(450,312,c),
(446,419,o),
(395,500,o),
(300,500,c),
(300,400,l),
(322,400,o),
(337,386,o),
(344,356,c)
);
},
{
closed = 1;
nodes = (
(170,0,ls),
(271,0,o),
(370,77,o),
(419,175,c),
(400,204,o),
(371,226,o),
(336,235,c),
(310,169,o),
(245,100,o),
(150,100,cs),
(50,100,l),
(50,0,l)
);
},
{
closed = 1;
nodes = (
(347,13,o),
(388,0,o),
(430,0,cs),
(550,0,l),
(550,100,l),
(450,100,ls),
(428,100,o),
(408,104,o),
(389,110,c),
(366,80,o),
(339,55,o),
(310,35,c)
);
},
{
closed = 1;
nodes = (
(265,220,o),
(250,265,o),
(250,300,cs),
(250,370,o),
(268,400,o),
(300,400,c),
(300,500,l),
(201,500,o),
(150,413,o),
(150,300,cs),
(150,238,o),
(175,175,o),
(214,122,c),
(245,134,o),
(272,155,o),
(294,182,c)
);
},
{
closed = 1;
nodes = (
(261,335,o),
(260,319,o),
(260,300,cs),
(260,284,o),
(264,265,o),
(270,247,c),
(280,249,o),
(290,250,o),
(300,250,cs),
(383,250,o),
(450,183,o),
(450,100,c),
(550,100,l),
(550,238,o),
(438,350,o),
(300,350,cs),
(288,350,o),
(276,349,o),
(264,347,c)
);
},
{
closed = 1;
nodes = (
(150,100,l),
(150,127,o),
(157,153,o),
(170,175,c),
(152,214,o),
(141,254,o),
(140,292,c),
(85,246,o),
(50,177,o),
(50,100,c)
);
}
);
width = 550;
},
{
associatedMasterId = "299DE00D-7BC2-4DFB-A399-2750234EE670";
layerId = "099D44B5-4488-4EC7-A609-87E78B86283F";
name = "Feb 19 20, 09:12";
shapes = (
{
closed = 1;
nodes = (
(0,0,l),
(54,0,l),
(54,100,l),
(0,100,l)
);
},
{
closed = 1;
nodes = (
(150,183,o),
(217,250,o),
(300,250,cs),
(383,250,o),
(450,183,o),
(450,100,c),
(550,100,l),
(550,238,o),
(438,350,o),
(300,350,cs),
(162,350,o),
(50,238,o),
(50,100,c),
(150,100,l)
);
},
{
closed = 1;
nodes = (
(332,400,o),
(350,370,o),
(350,300,cs),
(350,223,o),
(277,100,o),
(150,100,cs),
(50,100,l),
(50,0,l),
(170,0,ls),
(312,0,o),
(450,153,o),
(450,300,cs),
(450,413,o),
(399,500,o),
(300,500,c),
(300,400,l)
);
},
{
closed = 1;
nodes = (
(300,500,l),
(201,500,o),
(150,413,o),
(150,300,cs),
(150,153,o),
(288,0,o),
(430,0,cs),
(550,0,l),
(550,100,l),
(450,100,ls),
(323,100,o),
(250,223,o),
(250,300,cs),
(250,370,o),
(268,400,o),
(300,400,c)
);
}
);
visible = 1;
width = 550;
}
);
},
{
glyphname = "heh-ar.medi.02.05";
layers = (
{
layerId = "299DE00D-7BC2-4DFB-A399-2750234EE670";
shapes = (
{
closed = 1;
nodes = (
(97,100,l),
(-50,100,l),
(-50,0,l),
(97,0,l)
);
},
{
closed = 1;
nodes = (
(513,100,l),
(449,100,l),
(449,0,l),
(513,0,l)
);
},
{
closed = 1;
nodes = (
(281,-70,l),
(380,29,l),
(309,100,l),
(281,71,l),
(157,196,ls),
(148,206,o),
(147,221,o),
(157,231,cs),
(167,241,o),
(183,240,o),
(192,231,cs),
(203,220,l),
(274,291,l),
(264,301,ls),
(215,350,o),
(136,351,o),
(87,301,cs),
(39,252,o),
(38,173,o),
(87,124,cs)
);
},
{
closed = 1;
nodes = (
(182,185,l),
(253,114,l),
(370,231,ls),
(379,240,o),
(395,240,o),
(405,231,cs),
(416,221,o),
(415,206,o),
(405,196,cs),
(394,185,l),
(465,114,l),
(475,124,ls),
(524,173,o),
(525,252,o),
(475,301,cs),
(426,349,o),
(347,350,o),
(298,301,cs)
);
},
{
closed = 1;
nodes = (
(359,206,l),
(288,135,l),
(423,0,l),
(484,0,l),
(484,81,l)
);
},
{
closed = 1;
nodes = (
(139,0,l),
(168,29,l),
(97,100,l),
(34,37,l),
(34,0,l)
);
}
);
width = 513;
}
);
},
{
glyphname = "heh-ar.medi.behHeh";
layers = (
{
anchors = (
{
name = entry;
pos = (410,246);
}
);
layerId = "299DE00D-7BC2-4DFB-A399-2750234EE670";
shapes = (
{
closed = 1;
nodes = (
(506,0,l),
(302,354,l),
(196,338,l),
(391,0,l)
);
},
{
closed = 1;
nodes = (
(-50,0,l),
(506,0,l),
(397,100,l),
(-50,100,l)
);
},
{
closed = 1;
nodes = (
(276,331,l),
(85,0,l),
(200,0,l),
(335,233,l)
);
},
{
closed = 1;
nodes = (
(385,349,l),
(356,361,o),
(325,367,o),
(292,367,cs),
(156,367,o),
(50,263,o),
(50,127,cs),
(50,96,o),
(55,67,o),
(66,40,c),
(165,43,l),
(149,67,o),
(140,97,o),
(140,129,cs),
(140,214,o),
(206,274,o),
(292,274,cs),
(326,274,o),
(380,258,o),
(410,246,c)
);
}
);
width = 506;
}
);
},
{
glyphname = "heh-ar.init";
layers = (
{
layerId = "299DE00D-7BC2-4DFB-A399-2750234EE670";
shapes = (
{
closed = 1;
nodes = (
(626,0,l),
(539,150,l),
(452,0,l)
);
},
{
alignment = -1;
ref = "heh-ar.medi";
}
);
width = 626;
}
);
},
{
glyphname = "heh-ar.init.02.00";
layers = (
{
layerId = "299DE00D-7BC2-4DFB-A399-2750234EE670";
shapes = (
{
closed = 1;
nodes = (
(526,0,l),
(298,396,l),
(216,338,l),
(411,0,l)
);
},
{
closed = 1;
nodes = (
(-50,0,l),
(526,0,l),
(417,100,l),
(-50,100,l)
);
},
{
closed = 1;
nodes = (
(296,331,l),
(105,0,l),
(220,0,l),
(355,233,l)
);
},
{
closed = 1;
nodes = (
(252,361,l),
(147,331,o),
(70,243,o),
(70,128,cs),
(70,95,o),
(76,64,o),
(88,35,c),
(212,14,l),
(180,41,o),
(160,82,o),
(160,128,cs),
(160,209,o),
(234,275,o),
(314,278,c)
);
},
{
angle = 119.99987;
pos = (298,396);
ref = _zuluf100;
}
);
width = 526;
},
{
associatedMasterId = "299DE00D-7BC2-4DFB-A399-2750234EE670";
layerId = "1DF5D933-E5BD-4802-ADC8-8610F8AD6C8C";
name = "Oct 22 19, 15:09";
shapes = (
{
closed = 1;
nodes = (
(150,692,l),
(64,642,l),
(426,16,l),
(550,0,l)
);
},
{
closed = 1;
nodes = (
(550,0,l),
(441,100,l),
(-20,100,l),
(-20,0,l)
);
},
{
closed = 1;
nodes = (
(244,19,l),
(374,244,l),
(304,322,l),
(118,0,l)
);
},
{
closed = 1;
nodes = (
(288,375,l),
(164,375,o),
(64,275,o),
(64,151,cs),
(64,109,o),
(76,69,o),
(96,35,c),
(193,71,l),
(175,93,o),
(164,121,o),
(164,151,cs),
(164,219,o),
(220,275,o),
(288,275,c)
);
}
);
width = 550;
}
);
},
{
glyphname = "heh-ar.init.01.01";
layers = (
{
layerId = "299DE00D-7BC2-4DFB-A399-2750234EE670";
shapes = (
{
closed = 1;
nodes = (
(616,0,l),
(529,150,l),
(442,0,l)
);
},
{
alignment = -1;
ref = "heh-ar.medi.01.01";
}
);
width = 616;
}
);
},
{
glyphname = "heh-ar.init.01.02";
layers = (
{
layerId = "299DE00D-7BC2-4DFB-A399-2750234EE670";
shapes = (
{
closed = 1;
nodes = (
(626,0,l),
(539,150,l),
(452,0,l)
);
},
{
alignment = -1;
ref = "heh-ar.medi.01.02";
}
);
width = 626;
}
);
},
{
glyphname = "heh-ar.init.01.03";
layers = (
{
layerId = "299DE00D-7BC2-4DFB-A399-2750234EE670";
shapes = (
{
closed = 1;
nodes = (
(626,0,l),
(539,150,l),
(452,0,l)
);
},
{
alignment = -1;
ref = "heh-ar.medi.01.03";
}
);
width = 626;
}
);
},
{
glyphname = "heh-ar.init.02.01";
layers = (
{
layerId = "299DE00D-7BC2-4DFB-A399-2750234EE670";
shapes = (
{
closed = 1;
nodes = (
(150,0,l),
(150,100,l),
(160,100,l),
(160,0,l)
);
},
{
closed = 1;
nodes = (
(300,0,l),
(300,350,l),
(200,350,l),
(200,0,l)
);
},
{
closed = 1;
nodes = (
(470,23,o),
(450,59,o),
(450,100,c),
(440,100,l),
(440,0,l),
(500,0,l)
);
},
{
closed = 1;
nodes = (
(450,0,l),
(450,100,l),
(-50,100,l),
(-50,0,l)
);
},
{
closed = 1;
nodes = (
(200,110,l),
(300,110,l),
(300,100,l),
(200,100,l)
);
},
{
closed = 1;
nodes = (
(300,-10,l),
(200,-10,l),
(200,0,l),
(300,0,l)
);
},
{
closed = 1;
nodes = (
(334,162,o),
(350,133,o),
(350,100,cs),
(350,85,o),
(347,72,o),
(341,59,c),
(446,61,l),
(449,74,o),
(450,87,o),
(450,100,cs),
(450,189,o),
(391,265,o),
(310,291,c),
(310,180,l)
);
},
{
closed = 1;
nodes = (
(150,0,l),
(150,100,ls),
(150,133,o),
(166,162,o),
(190,180,c),
(190,291,l),
(109,265,o),
(50,189,o),
(50,100,cs),
(50,0,l)
);
},
{
pos = (50,0);
ref = _elbow.1;
},
{
angle = 90;
pos = (300,350);
ref = _zuluf100;
}
);
width = 500;
},
{
associatedMasterId = "299DE00D-7BC2-4DFB-A399-2750234EE670";
hints = (
{
name = _corner.100;
origin = (2,1);
type = Corner;
}
);
layerId = "2092749E-15F7-4FC3-949A-2D3F232604A1";
name = "Oct 25 19, 10:58";
shapes = (
{
closed = 1;
nodes = (
(450,0,l),
(450,100,l),
(-20,100,l),
(-20,0,l)
);
},
{
closed = 1;
nodes = (
(446,61,l),
(449,74,o),
(450,87,o),
(450,100,cs),
(450,210,o),
(360,300,o),
(250,300,cs),
(140,300,o),
(50,210,o),
(50,100,c),
(50,0,l),
(150,0,l),
(150,100,l),
(150,155,o),
(195,200,o),
(250,200,cs),
(305,200,o),
(350,155,o),
(350,100,cs),
(350,85,o),
(347,72,o),
(341,59,c)
);
},
{
closed = 1;
nodes = (
(300,0,l),
(300,350,l),
(200,350,l),
(200,0,l)
);
},
{
closed = 1;
nodes = (
(470,23,o),
(450,59,o),
(450,100,c),
(440,100,l),
(440,0,l),
(500,0,l)
);
},
{
pos = (50,0);
ref = _elbow.1;
}
);
width = 500;
}
);
},
{
glyphname = "heh-ar.init.02.02";
layers = (
{
layerId = "299DE00D-7BC2-4DFB-A399-2750234EE670";
shapes = (
{
closed = 1;
nodes = (
(150,0,l),
(150,100,l),
(160,100,l),
(160,0,l)
);
},
{
closed = 1;
nodes = (
(300,0,l),
(300,313,l),
(200,313,l),
(200,0,l)
);
},
{
closed = 1;
nodes = (
(470,23,o),
(450,59,o),
(450,100,c),
(440,100,l),
(440,0,l),
(500,0,l)
);
},
{
closed = 1;
nodes = (
(450,0,l),
(450,100,l),
(-50,100,l),
(-50,0,l)
);
},
{
closed = 1;
nodes = (
(200,110,l),
(300,110,l),
(300,100,l),
(200,100,l)
);
},
{
closed = 1;
nodes = (
(300,-10,l),
(200,-10,l),
(200,0,l),
(300,0,l)
);
},
{
closed = 1;
nodes = (
(334,162,o),
(350,133,o),
(350,100,cs),
(350,85,o),
(347,72,o),
(341,59,c),
(446,61,l),
(449,74,o),
(450,87,o),
(450,100,cs),
(450,189,o),
(391,265,o),
(310,291,c),
(310,180,l)
);
},
{
closed = 1;
nodes = (
(150,0,l),
(150,100,ls),
(150,133,o),
(166,162,o),
(190,180,c),
(190,291,l),
(109,265,o),
(50,189,o),
(50,100,cs),
(50,0,l)
);
},
{
closed = 1;
nodes = (
(300,400,l),
(300,442,o),
(279,462,o),
(239,462,c),
(160,462,l),
(167,437,o),
(167,387,o),
(160,362,c),
(190,362,o),
(200,352,o),
(200,323,c),
(200,296,l),
(300,296,l)
);
},
{
pos = (50,0);
ref = _elbow.1;
}
);
width = 500;
},
{
associatedMasterId = "299DE00D-7BC2-4DFB-A399-2750234EE670";
hints = (
{
name = _corner.100;
origin = (2,1);
type = Corner;
}
);
layerId = "2092749E-15F7-4FC3-949A-2D3F232604A1";
name = "Oct 25 19, 10:58";
shapes = (
{
closed = 1;
nodes = (
(450,0,l),
(450,100,l),
(-20,100,l),
(-20,0,l)
);
},
{
closed = 1;
nodes = (
(446,61,l),
(449,74,o),
(450,87,o),
(450,100,cs),
(450,210,o),
(360,300,o),
(250,300,cs),
(140,300,o),
(50,210,o),
(50,100,c),
(50,0,l),
(150,0,l),
(150,100,l),
(150,155,o),
(195,200,o),
(250,200,cs),
(305,200,o),
(350,155,o),
(350,100,cs),
(350,85,o),
(347,72,o),
(341,59,c)
);
},
{
closed = 1;
nodes = (
(300,0,l),
(300,350,l),
(200,350,l),
(200,0,l)
);
},
{
closed = 1;
nodes = (
(470,23,o),
(450,59,o),
(450,100,c),
(440,100,l),
(440,0,l),
(500,0,l)
);
},
{
pos = (50,0);
ref = _elbow.1;
}
);
width = 500;
},
{
associatedMasterId = "299DE00D-7BC2-4DFB-A399-2750234EE670";
layerId = "075B5F6A-40B4-468B-91CE-9819626F1638";
name = "Feb 10 20, 20:30";
shapes = (
{
closed = 1;
nodes = (
(150,0,l),
(150,100,l),
(160,100,l),
(160,0,l)
);
},
{
closed = 1;
nodes = (
(300,0,l),
(300,350,l),
(200,350,l),
(200,0,l)
);
},
{
closed = 1;
nodes = (
(470,23,o),
(450,59,o),
(450,100,c),
(440,100,l),
(440,0,l),
(500,0,l)
);
},
{
closed = 1;
nodes = (
(450,0,l),
(450,100,l),
(-50,100,l),
(-50,0,l)
);
},
{
closed = 1;
nodes = (
(200,110,l),
(300,110,l),
(300,100,l),
(200,100,l)
);
},
{
closed = 1;
nodes = (
(300,-10,l),
(200,-10,l),
(200,0,l),
(300,0,l)
);
},
{
closed = 1;
nodes = (
(334,162,o),
(350,133,o),
(350,100,cs),
(350,85,o),
(347,72,o),
(341,59,c),
(446,61,l),
(449,74,o),
(450,87,o),
(450,100,cs),
(450,189,o),
(391,265,o),
(310,291,c),
(310,180,l)
);
},
{
closed = 1;
nodes = (
(150,0,l),
(150,100,ls),
(150,133,o),
(166,162,o),
(190,180,c),
(190,291,l),
(109,265,o),
(50,189,o),
(50,100,cs),
(50,0,l)
);
},
{
closed = 1;
nodes = (
(300,500,l),
(277,442,o),
(215,400,o),
(150,400,c),
(150,400,o),
(200,400,o),
(200,350,cs),
(200,330,l),
(300,330,l)
);
},
{
pos = (50,0);
ref = _elbow.1;
}
);
visible = 1;
width = 500;
}
);
},
{
glyphname = "waw-ar";
kernLeft = "straight-r";
kernRight = "straight-l";
layers = (
{
anchors = (
{
name = top;
pos = (125,300);
}
);
layerId = "299DE00D-7BC2-4DFB-A399-2750234EE670";
shapes = (
{
closed = 1;
nodes = (
(240,-150,o),
(250,-40,o),
(250,10,c),
(150,10,l),
(150,-28,o),
(137,-114,o),
(0,-113,c),
(41,-144,o),
(81,-150,o),
(120,-150,cs)
);
},
{
closed = 1;
nodes = (
(250,0,l),
(250,100,l),
(0,100,l),
(0,0,l)
);
},
{
closed = 1;
nodes = (
(250,40,l),
(250,250,l),
(150,250,l),
(150,40,l)
);
},
{
closed = 1;
nodes = (
(250,240,l),
(250,300,l),
(227,270,o),
(191,250,o),
(150,250,c),
(150,240,l)
);
},
{
pos = (150,100);
ref = _elbow.3;
scale = (-1,1);
}
);
width = 250;
}
);
unicode = 1608;
},
{
glyphname = "waw-ar.01.01";
kernLeft = "straight-r";
kernRight = "straight-l";
layers = (
{
anchors = (
{
name = top;
pos = (75,300);
}
);
layerId = "299DE00D-7BC2-4DFB-A399-2750234EE670";
shapes = (
{
closed = 1;
nodes = (
(-9,-142,o),
(30,-150,o),
(69,-150,cs),
(195,-150,o),
(250,-44,o),
(250,79,cs),
(250,182,o),
(205,238,o),
(125,300,c),
(125,274,o),
(97,249,o),
(83,243,cs),
(35,226,o),
(0,179,o),
(0,125,cs),
(0,56,o),
(56,0,o),
(125,0,cs),
(138,0,l),
(130,-41,o),
(76,-114,o),
(-50,-113,c)
);
},
{
closed = 1;
nodes = (
(100,139,o),
(111,150,o),
(125,150,cs),
(139,150,o),
(150,139,o),
(150,125,cs),
(150,111,o),
(139,100,o),
(125,100,cs),
(111,100,o),
(100,111,o),
(100,125,cs)
);
}
);
width = 250;
},
{
anchors = (
{
name = top;
pos = (88,300);
}
);
annotations = (
{
pos = (481.575,288.433);
type = Text;
}
);
associatedMasterId = "299DE00D-7BC2-4DFB-A399-2750234EE670";
layerId = "BE705947-3390-4BD7-98E2-A50F1111F3E5";
name = "Oct 21 19, 22:02";
shapes = (
{
closed = 1;
nodes = (
(190,-150,o),
(200,-40,o),
(200,10,c),
(100,10,l),
(100,-28,o),
(87,-114,o),
(-50,-113,c),
(-9,-144,o),
(31,-150,o),
(70,-150,cs)
);
},
{
closed = 1;
nodes = (
(194,0,o),
(250,56,o),
(250,125,cs),
(250,194,o),
(194,250,o),
(125,250,cs),
(56,250,o),
(0,194,o),
(0,125,cs),
(0,56,o),
(56,0,o),
(125,0,cs)
);
},
{
closed = 1;
nodes = (
(111,100,o),
(100,111,o),
(100,125,cs),
(100,139,o),
(111,150,o),
(125,150,cs),
(139,150,o),
(150,139,o),
(150,125,cs),
(150,111,o),
(139,100,o),
(125,100,cs)
);
},
{
closed = 1;
nodes = (
(169,232,l),
(169,242,l),
(156,246,o),
(125,273,o),
(125,300,c),
(125,273,o),
(94,246,o),
(81,242,c),
(81,232,l)
);
}
);
visible = 1;
width = 250;
}
);
},
{
glyphname = "waw-ar.01.02";
kernLeft = "straight-r";
kernRight = "straight-l";
layers = (
{
anchors = (
{
name = top;
pos = (75,300);
}
);
layerId = "299DE00D-7BC2-4DFB-A399-2750234EE670";
shapes = (
{
closed = 1;
nodes = (
(101,139,o),
(112,150,o),
(126,150,cs),
(140,150,o),
(151,139,o),
(151,125,cs),
(151,111,o),
(140,100,o),
(126,100,cs),
(112,100,o),
(101,111,o),
(101,125,cs)
);
},
{
closed = 1;
nodes = (
(76,-150,ls),
(153,-150,o),
(217,-101,o),
(242,-32,cs),
(254,1,o),
(261,38,o),
(261,78,cs),
(261,181,o),
(206,238,o),
(126,300,c),
(126,274,o),
(98,249,o),
(84,243,cs),
(37,223,o),
(1,179,o),
(1,125,cs),
(1,56,o),
(57,0,o),
(126,0,cs),
(135,0,o),
(144,1,o),
(153,3,c),
(143,-27,o),
(110,-50,o),
(77,-50,cs),
(41,-50,o),
(12,-29,o),
(0,0,c),
(-7,-56,o),
(-22,-106,o),
(-50,-150,c)
);
}
);
width = 250;
},
{
anchors = (
{
name = top;
pos = (138,300);
}
);
annotations = (
{
pos = (481.575,288.433);
type = Text;
}
);
associatedMasterId = "299DE00D-7BC2-4DFB-A399-2750234EE670";
layerId = "BE705947-3390-4BD7-98E2-A50F1111F3E5";
name = "Oct 21 19, 22:02";
shapes = (
{
closed = 1;
nodes = (
(241,-150,o),
(251,-40,o),
(251,10,c),
(151,10,l),
(151,-28,o),
(138,-114,o),
(1,-113,c),
(42,-144,o),
(82,-150,o),
(121,-150,cs)
);
},
{
closed = 1;
nodes = (
(245,0,o),
(301,56,o),
(301,125,cs),
(301,194,o),
(245,250,o),
(176,250,cs),
(107,250,o),
(51,194,o),
(51,125,cs),
(51,56,o),
(107,0,o),
(176,0,cs)
);
},
{
closed = 1;
nodes = (
(162,100,o),
(151,111,o),
(151,125,cs),
(151,139,o),
(162,150,o),
(176,150,cs),
(190,150,o),
(201,139,o),
(201,125,cs),
(201,111,o),
(190,100,o),
(176,100,cs)
);
},
{
closed = 1;
nodes = (
(220,232,l),
(220,242,l),
(207,246,o),
(176,273,o),
(176,300,c),
(176,273,o),
(145,246,o),
(132,242,c),
(132,232,l)
);
},
{
closed = 1;
nodes = (
(171,-50,o),
(208,-13,o),
(208,33,cs),
(208,78,o),
(171,115,o),
(126,115,cs),
(80,115,o),
(43,78,o),
(43,33,cs),
(43,-13,o),
(80,-50,o),
(126,-50,cs)
);
}
);
width = 300;
}
);
},
{
glyphname = "alefMaksura-ar";
layers = (
{
layerId = "299DE00D-7BC2-4DFB-A399-2750234EE670";
shapes = (
{
closed = 1;
nodes = (
(800,0,l),
(713,150,l),
(626,0,l)
);
},
{
ref = "alefMaksura-ar.fina";
}
);
width = 800;
}
);
unicode = 1609;
},
{
glyphname = "alefMaksura-ar.01.01";
layers = (
{
layerId = "299DE00D-7BC2-4DFB-A399-2750234EE670";
shapes = (
{
closed = 1;
nodes = (
(700,0,l),
(613,150,l),
(526,0,l)
);
},
{
ref = "alefMaksura-ar.fina.01.01";
}
);
width = 700;
}
);
},
{
glyphname = "alefMaksura-ar.01.02";
layers = (
{
layerId = "299DE00D-7BC2-4DFB-A399-2750234EE670";
shapes = (
{
closed = 1;
nodes = (
(700,0,l),
(613,150,l),
(526,0,l)
);
},
{
ref = "alefMaksura-ar.fina.01.02";
}
);
width = 700;
}
);
},
{
glyphname = "alefMaksura-ar.01.03";
layers = (
{
layerId = "299DE00D-7BC2-4DFB-A399-2750234EE670";
shapes = (
{
closed = 1;
nodes = (
(800,0,l),
(713,150,l),
(626,0,l)
);
},
{
ref = "alefMaksura-ar.fina.01.03";
}
);
width = 800;
}
);
},
{
glyphname = "alefMaksura-ar.01.04";
layers = (
{
layerId = "299DE00D-7BC2-4DFB-A399-2750234EE670";
shapes = (
{
closed = 1;
nodes = (
(700,0,l),
(613,150,l),
(526,0,l)
);
},
{
ref = "alefMaksura-ar.fina.01.04";
}
);
width = 700;
}
);
},
{
glyphname = "alefMaksura-ar.01.05";
layers = (
{
layerId = "299DE00D-7BC2-4DFB-A399-2750234EE670";
shapes = (
{
closed = 1;
nodes = (
(700,0,l),
(613,150,l),
(526,0,l)
);
},
{
ref = "alefMaksura-ar.fina.01.05";
}
);
width = 700;
}
);
},
{
glyphname = "alefMaksura-ar.01.06";
kernRight = "straight-l";
layers = (
{
layerId = "299DE00D-7BC2-4DFB-A399-2750234EE670";
shapes = (
{
closed = 1;
nodes = (
(350,0,l),
(350,150,l),
(201,0,l)
);
},
{
ref = "alefMaksura-ar.fina.01.06";
}
);
width = 350;
}
);
},
{
glyphname = "alefMaksura-ar.01.07";
kernRight = "straight-l";
layers = (
{
layerId = "299DE00D-7BC2-4DFB-A399-2750234EE670";
shapes = (
{
closed = 1;
nodes = (
(350,0,l),
(350,150,l),
(201,0,l)
);
},
{
ref = "alefMaksura-ar.fina.01.07";
}
);
width = 350;
}
);
},
{
glyphname = "alefMaksura-ar.01.08";
kernLeft = "straight-r";
layers = (
{
layerId = "299DE00D-7BC2-4DFB-A399-2750234EE670";
shapes = (
{
closed = 1;
nodes = (
(498,0,l),
(411,150,l),
(324,0,l)
);
},
{
ref = "alefMaksura-ar.fina.01.08";
}
);
width = 498;
}
);
},
{
glyphname = "alefMaksura-ar.01.09";
kernLeft = "straight-r";
layers = (
{
layerId = "299DE00D-7BC2-4DFB-A399-2750234EE670";
shapes = (
{
closed = 1;
nodes = (
(498,0,l),
(411,150,l),
(324,0,l)
);
},
{
ref = "alefMaksura-ar.fina.01.09";
}
);
width = 498;
}
);
},
{
glyphname = "alefMaksura-ar.01.10";
layers = (
{
layerId = "299DE00D-7BC2-4DFB-A399-2750234EE670";
shapes = (
{
closed = 1;
nodes = (
(606,0,l),
(519,150,l),
(432,0,l)
);
},
{
ref = "alefMaksura-ar.fina.01.10";
}
);
width = 606;
}
);
},
{
glyphname = "alefMaksura-ar.01.11";
kernLeft = "straight-r";
layers = (
{
layerId = "299DE00D-7BC2-4DFB-A399-2750234EE670";
shapes = (
{
closed = 1;
nodes = (
(556,0,l),
(469,150,l),
(382,0,l)
);
},
{
ref = "alefMaksura-ar.fina.01.11";
}
);
width = 556;
}
);
},
{
glyphname = "alefMaksura-ar.01.12";
kernLeft = "straight-r";
layers = (
{
layerId = "299DE00D-7BC2-4DFB-A399-2750234EE670";
shapes = (
{
closed = 1;
nodes = (
(586,0,l),
(499,150,l),
(412,0,l)
);
},
{
ref = "alefMaksura-ar.fina.01.13";
}
);
width = 586;
}
);
},
{
glyphname = "alefMaksura-ar.01.13";
kernLeft = "straight-r";
layers = (
{
layerId = "299DE00D-7BC2-4DFB-A399-2750234EE670";
shapes = (
{
closed = 1;
nodes = (
(586,0,l),
(499,150,l),
(412,0,l)
);
},
{
ref = "alefMaksura-ar.fina.01.12";
}
);
width = 586;
}
);
},
{
glyphname = "alefMaksura-ar.fina";
layers = (
{
anchors = (
{
name = bottom;
pos = (300,-50);
},
{
name = top;
pos = (200,200);
}
);
layerId = "299DE00D-7BC2-4DFB-A399-2750234EE670";
shapes = (
{
closed = 1;
nodes = (
(500,0,l),
(500,100,l),
(150,100,l),
(150,0,l)
);
},
{
closed = 1;
nodes = (
(684,100,l),
(395,600,l),
(375,577,o),
(352,554,o),
(318,535,c),
(626,0,l)
);
},
{
closed = 1;
nodes = (
(269,321,l),
(354,371,l),
(349,380,ls),
(336,404,o),
(342,437,o),
(367,448,cs),
(378,453,l),
(328,540,l),
(318,535,ls),
(244,498,o),
(224,402,o),
(264,330,cs)
);
},
{
closed = 1;
nodes = (
(569,0,l),
(341,393,l),
(267,325,l),
(454,0,l)
);
},
{
closed = 1;
nodes = (
(684,0,l),
(684,100,l),
(626,100,l),
(626,0,l)
);
},
{
closed = 1;
nodes = (
(409,576,l),
(379,628,l),
(374,591,o),
(353,555,o),
(318,535,c),
(323,526,l)
);
},
{
pos = (150,0);
ref = _zuluf100;
scale = (-1,1);
}
);
width = 684;
}
);
},
{
glyphname = "alefMaksura-ar.fina.01.01";
layers = (
{
anchors = (
{
name = bottom;
pos = (200,-50);
},
{
name = top;
pos = (100,200);
}
);
layerId = "299DE00D-7BC2-4DFB-A399-2750234EE670";
shapes = (
{
closed = 1;
nodes = (
(400,0,l),
(400,100,l),
(150,100,l),
(150,0,l)
);
},
{
closed = 1;
nodes = (
(584,100,l),
(295,600,l),
(275,577,o),
(252,554,o),
(218,535,c),
(526,0,l)
);
},
{
closed = 1;
nodes = (
(169,321,l),
(254,371,l),
(249,380,ls),
(236,404,o),
(242,437,o),
(267,448,cs),
(278,453,l),
(228,540,l),
(218,535,ls),
(144,498,o),
(124,402,o),
(164,330,cs)
);
},
{
closed = 1;
nodes = (
(469,0,l),
(241,393,l),
(167,325,l),
(354,0,l)
);
},
{
closed = 1;
nodes = (
(584,0,l),
(584,100,l),
(526,100,l),
(526,0,l)
);
},
{
closed = 1;
nodes = (
(309,576,l),
(279,628,l),
(274,591,o),
(253,555,o),
(218,535,c),
(223,526,l)
);
},
{
pos = (150,0);
ref = _zuluf100;
scale = (-1,1);
}
);
width = 584;
}
);
},
{
glyphname = "alefMaksura-ar.fina.01.02";
layers = (
{
anchors = (
{
name = bottom;
pos = (200,-50);
},
{
name = top;
pos = (100,200);
}
);
layerId = "299DE00D-7BC2-4DFB-A399-2750234EE670";
shapes = (
{
closed = 1;
nodes = (
(400,0,l),
(400,100,l),
(150,100,l),
(150,0,l)
);
},
{
closed = 1;
nodes = (
(584,100,l),
(351,500,l),
(331,477,o),
(308,454,o),
(274,435,c),
(526,0,l)
);
},
{
closed = 1;
nodes = (
(225,221,l),
(310,271,l),
(305,280,ls),
(292,304,o),
(298,337,o),
(323,348,cs),
(334,353,l),
(284,440,l),
(274,435,ls),
(200,398,o),
(180,302,o),
(220,230,cs)
);
},
{
closed = 1;
nodes = (
(467,0,l),
(297,293,l),
(223,225,l),
(352,0,l)
);
},
{
closed = 1;
nodes = (
(584,0,l),
(584,100,l),
(526,100,l),
(526,0,l)
);
},
{
closed = 1;
nodes = (
(365,476,l),
(335,528,l),
(330,491,o),
(309,455,o),
(274,435,c),
(279,426,l)
);
},
{
pos = (150,0);
ref = _zuluf100;
scale = (-1,1);
}
);
width = 584;
}
);
},
{
glyphname = "alefMaksura-ar.fina.01.03";
layers = (
{
anchors = (
{
name = bottom;
pos = (300,-50);
},
{
name = top;
pos = (200,200);
}
);
layerId = "299DE00D-7BC2-4DFB-A399-2750234EE670";
shapes = (
{
closed = 1;
nodes = (
(567,0,l),
(272,508,l),
(264,424,l),
(337,550,l),
(250,500,l),
(395,500,l),
(319,535,l),
(626,0,l),
(684,100,l),
(395,600,l),
(250,600,l),
(177,474,l),
(451,0,l)
);
},
{
closed = 1;
nodes = (
(500,0,l),
(500,100,l),
(150,100,l),
(150,0,l)
);
},
{
closed = 1;
nodes = (
(684,0,l),
(684,100,l),
(626,100,l),
(626,0,l)
);
},
{
pos = (150,0);
ref = _zuluf100;
scale = (-1,1);
}
);
width = 684;
},
{
anchors = (
{
name = bottom;
pos = (300,-50);
},
{
name = top;
pos = (200,200);
}
);
associatedMasterId = "299DE00D-7BC2-4DFB-A399-2750234EE670";
hints = (
{
name = _corner.100;
options = 1;
origin = (0,3);
scale = (1,-1);
type = Corner;
}
);
layerId = "D05771AF-184B-4793-86FB-1C0FF286D2F5";
name = "Oct 24 19, 00:51";
shapes = (
{
closed = 1;
nodes = (
(500,0,l),
(500,100,l),
(150,100,l),
(150,0,l)
);
},
{
closed = 0;
nodes = (
(319,535,l),
(626,0,l),
(723,32,l),
(395,600,l),
(250,600,l)
);
},
{
closed = 1;
nodes = (
(569,0,l),
(341,393,l),
(267,325,l),
(454,0,l)
);
},
{
closed = 1;
nodes = (
(730,0,l),
(730,100,l),
(626,100,l),
(626,0,l)
);
},
{
closed = 0;
nodes = (
(226,644,l),
(596,0,l)
);
}
);
visible = 1;
width = 684;
}
);
},
{
glyphname = "alefMaksura-ar.fina.01.04";
layers = (
{
anchors = (
{
name = bottom;
pos = (200,-50);
},
{
name = top;
pos = (100,200);
}
);
layerId = "299DE00D-7BC2-4DFB-A399-2750234EE670";
shapes = (
{
closed = 1;
nodes = (
(467,0,l),
(172,508,l),
(164,424,l),
(237,550,l),
(150,500,l),
(295,500,l),
(219,535,l),
(526,0,l),
(584,100,l),
(295,600,l),
(150,600,l),
(77,474,l),
(351,0,l)
);
},
{
closed = 1;
nodes = (
(400,0,l),
(400,100,l),
(150,100,l),
(150,0,l)
);
},
{
closed = 1;
nodes = (
(584,0,l),
(584,100,l),
(526,100,l),
(526,0,l)
);
},
{
pos = (150,0);
ref = _zuluf100;
scale = (-1,1);
}
);
width = 584;
},
{
anchors = (
{
name = bottom;
pos = (300,-50);
},
{
name = top;
pos = (200,200);
}
);
associatedMasterId = "299DE00D-7BC2-4DFB-A399-2750234EE670";
hints = (
{
name = _corner.100;
options = 1;
origin = (0,3);
scale = (1,-1);
type = Corner;
}
);
layerId = "D05771AF-184B-4793-86FB-1C0FF286D2F5";
name = "Oct 24 19, 00:51";
shapes = (
{
closed = 1;
nodes = (
(500,0,l),
(500,100,l),
(150,100,l),
(150,0,l)
);
},
{
closed = 0;
nodes = (
(319,535,l),
(626,0,l),
(723,32,l),
(395,600,l),
(250,600,l)
);
},
{
closed = 1;
nodes = (
(569,0,l),
(341,393,l),
(267,325,l),
(454,0,l)
);
},
{
closed = 1;
nodes = (
(730,0,l),
(730,100,l),
(626,100,l),
(626,0,l)
);
},
{
closed = 0;
nodes = (
(226,644,l),
(596,0,l)
);
}
);
width = 684;
}
);
},
{
glyphname = "alefMaksura-ar.fina.01.05";
layers = (
{
anchors = (
{
name = bottom;
pos = (200,-50);
},
{
name = top;
pos = (100,200);
}
);
layerId = "299DE00D-7BC2-4DFB-A399-2750234EE670";
shapes = (
{
closed = 1;
nodes = (
(400,0,l),
(400,100,l),
(150,100,l),
(150,0,l)
);
},
{
closed = 1;
nodes = (
(467,0,l),
(229,408,l),
(221,324,l),
(294,450,l),
(207,400,l),
(352,400,l),
(276,435,l),
(526,0,l),
(584,100,l),
(352,500,l),
(207,500,l),
(134,374,l),
(351,0,l)
);
},
{
closed = 1;
nodes = (
(584,0,l),
(584,100,l),
(526,100,l),
(526,0,l)
);
},
{
pos = (150,0);
ref = _zuluf100;
scale = (-1,1);
}
);
width = 584;
}
);
},
{
glyphname = "alefMaksura-ar.fina.01.06";
layers = (
{
anchors = (
{
name = bottom;
pos = (260,-50);
},
{
name = top;
pos = (-50,100);
}
);
layerId = "299DE00D-7BC2-4DFB-A399-2750234EE670";
shapes = (
{
closed = 1;
nodes = (
(300,0,l),
(300,650,l),
(200,650,l),
(200,0,l)
);
},
{
closed = 1;
nodes = (
(0,-150,l),
(10,-150,l),
(10,-50,l),
(0,-50,ls),
(-28,-50,o),
(-50,-28,o),
(-50,0,c),
(-50,-65,o),
(-92,-127,o),
(-150,-150,c)
);
},
{
closed = 1;
nodes = (
(150,0,l),
(150,500,l),
(50,500,l),
(50,0,l)
);
},
{
closed = 1;
nodes = (
(300,640,l),
(300,700,l),
(277,670,o),
(241,650,o),
(200,650,c),
(200,640,l)
);
},
{
angle = 90;
pos = (200,500);
ref = _elbow.3;
},
{
angle = -90;
ref = _elbow.3;
}
);
width = 300;
}
);
},
{
glyphname = "alefMaksura-ar.fina.01.07";
layers = (
{
anchors = (
{
name = bottom;
pos = (260,-50);
},
{
name = top;
pos = (-50,100);
}
);
layerId = "299DE00D-7BC2-4DFB-A399-2750234EE670";
shapes = (
{
closed = 1;
nodes = (
(300,0,l),
(300,650,l),
(200,650,l),
(200,0,l)
);
},
{
closed = 1;
nodes = (
(150,0,l),
(150,500,l),
(50,500,l),
(50,0,l)
);
},
{
closed = 1;
nodes = (
(101,-150,o),
(150,-106,o),
(150,-23,cs),
(150,100,l),
(50,100,l),
(50,-31,ls),
(50,-108,o),
(-10,-129,o),
(-50,-100,c),
(-30,-130,o),
(3,-150,o),
(41,-150,cs)
);
},
{
closed = 1;
nodes = (
(300,640,l),
(300,700,l),
(277,670,o),
(241,650,o),
(200,650,c),
(200,640,l)
);
},
{
angle = 90;
pos = (200,500);
ref = _elbow.3;
}
);
width = 300;
},
{
anchors = (
{
name = bottom;
pos = (260,-50);
},
{
name = top;
pos = (-50,100);
}
);
associatedMasterId = "299DE00D-7BC2-4DFB-A399-2750234EE670";
layerId = "F1C04FDD-FBA2-4FBC-B07D-903769FED804";
name = "Jan 5 20, 16:57";
shapes = (
{
closed = 1;
nodes = (
(300,0,l),
(300,650,l),
(200,650,l),
(200,0,l)
);
},
{
closed = 1;
nodes = (
(0,-150,l),
(10,-150,l),
(10,-50,l),
(0,-50,ls),
(-28,-50,o),
(-50,-28,o),
(-50,0,c),
(-50,-65,o),
(-92,-127,o),
(-150,-150,c)
);
},
{
closed = 1;
nodes = (
(150,0,l),
(150,500,l),
(50,500,l),
(50,0,l)
);
},
{
closed = 1;
nodes = (
(101,-150,o),
(150,-101,o),
(150,-42,cs),
(150,100,l),
(50,100,l),
(50,-50,ls),
(50,-85,o),
(23,-112,o),
(-12,-112,cs),
(-27,-112,o),
(-39,-108,o),
(-50,-100,c),
(-30,-130,o),
(3,-150,o),
(41,-150,cs)
);
},
{
angle = 90;
pos = (200,500);
ref = _elbow.3;
},
{
angle = -90;
ref = _elbow.3;
}
);
visible = 1;
width = 300;
}
);
},
{
glyphname = "alefMaksura-ar.fina.01.08";
kernLeft = "straight-r";
layers = (
{
anchors = (
{
name = bottom;
pos = (370,-50);
},
{
name = top;
pos = (50,0);
}
);
layerId = "299DE00D-7BC2-4DFB-A399-2750234EE670";
shapes = (
{
closed = 1;
nodes = (
(382,100,l),
(151,500,l),
(131,477,o),
(109,454,o),
(75,435,c),
(324,0,l)
);
},
{
closed = 1;
nodes = (
(25,221,l),
(110,271,l),
(105,280,ls),
(92,304,o),
(98,337,o),
(123,348,cs),
(134,353,l),
(84,440,l),
(75,435,ls),
(2,395,o),
(-20,302,o),
(20,230,cs)
);
},
{
closed = 1;
nodes = (
(382,0,l),
(382,100,l),
(324,100,l),
(324,0,l)
);
},
{
closed = 1;
nodes = (
(165,476,l),
(135,528,l),
(130,491,o),
(109,455,o),
(74,435,c),
(79,426,l)
);
},
{
closed = 1;
nodes = (
(1092,-150,l),
(1150,-50,l),
(181,-50,l),
(205,-27,o),
(234,-10,o),
(267,0,c),
(105,280,l),
(25,221,l),
(130,38,l),
(73,-9,o),
(33,-75,o),
(20,-150,c)
);
}
);
width = 382;
},
{
anchors = (
{
name = bottom;
pos = (370,-50);
},
{
name = top;
pos = (50,0);
}
);
associatedMasterId = "299DE00D-7BC2-4DFB-A399-2750234EE670";
layerId = "CC8599FA-E8B2-40B9-8819-31FC89CD3E17";
name = "Oct 24 19, 23:00";
shapes = (
{
closed = 1;
nodes = (
(446,27,l),
(173,500,l),
(153,477,o),
(131,454,o),
(97,435,c),
(346,0,l)
);
},
{
closed = 1;
nodes = (
(47,221,l),
(132,271,l),
(127,280,ls),
(114,304,o),
(120,337,o),
(145,348,cs),
(156,353,l),
(106,440,l),
(97,435,ls),
(24,395,o),
(2,302,o),
(42,230,cs)
);
},
{
closed = 1;
nodes = (
(289,0,l),
(119,293,l),
(45,225,l),
(174,0,l),
(118,-40,o),
(85,-91,o),
(72,-150,c),
(1114,-150,l),
(1172,-50,l),
(222,-50,l)
);
}
);
visible = 1;
width = 426;
}
);
},
{
glyphname = "alefMaksura-ar.fina.01.09";
kernLeft = "straight-r";
layers = (
{
anchors = (
{
name = bottom;
pos = (370,-50);
},
{
name = top;
pos = (50,0);
}
);
layerId = "299DE00D-7BC2-4DFB-A399-2750234EE670";
shapes = (
{
closed = 1;
nodes = (
(382,100,l),
(151,500,l),
(131,477,o),
(108,454,o),
(74,435,c),
(324,0,l)
);
},
{
closed = 1;
nodes = (
(25,221,l),
(110,271,l),
(105,280,ls),
(92,304,o),
(98,337,o),
(123,348,cs),
(134,353,l),
(84,440,l),
(74,435,ls),
(0,398,o),
(-20,302,o),
(20,230,cs)
);
},
{
closed = 1;
nodes = (
(105,280,l),
(25,221,l),
(238,-150,l),
(1092,-150,l),
(1150,-50,l),
(296,-50,l)
);
},
{
closed = 1;
nodes = (
(382,0,l),
(382,100,l),
(324,100,l),
(324,0,l)
);
},
{
closed = 1;
nodes = (
(165,476,l),
(135,528,l),
(130,491,o),
(109,455,o),
(74,435,c),
(79,426,l)
);
}
);
width = 382;
},
{
anchors = (
{
name = bottom;
pos = (370,-50);
},
{
name = top;
pos = (50,0);
}
);
associatedMasterId = "299DE00D-7BC2-4DFB-A399-2750234EE670";
layerId = "4E2DE40C-2181-42E4-BA0A-D46F7324B321";
name = "Jan 5 20, 16:52";
shapes = (
{
closed = 1;
nodes = (
(382,100,l),
(151,500,l),
(131,477,o),
(109,454,o),
(75,435,c),
(324,0,l)
);
},
{
closed = 1;
nodes = (
(25,221,l),
(110,271,l),
(105,280,ls),
(92,304,o),
(98,337,o),
(123,348,cs),
(134,353,l),
(84,440,l),
(75,435,ls),
(2,395,o),
(-20,302,o),
(20,230,cs)
);
},
{
closed = 1;
nodes = (
(267,0,l),
(105,280,l),
(25,221,l),
(152,0,l),
(96,-40,o),
(63,-91,o),
(50,-150,c),
(1092,-150,l),
(1150,-50,l),
(296,-50,l)
);
},
{
closed = 1;
nodes = (
(382,0,l),
(382,100,l),
(324,100,l),
(324,0,l)
);
}
);
visible = 1;
width = 382;
}
);
},
{
glyphname = "alefMaksura-ar.fina.01.10";
layers = (
{
anchors = (
{
name = bottom;
pos = (456,-50);
},
{
name = top;
pos = (106,0);
}
);
guides = (
{
angle = 90;
pos = (375,-63);
},
{
angle = 90;
pos = (250,-63);
},
{
angle = 90;
pos = (125,-7);
},
{
angle = 90;
pos = (0,-63);
}
);
layerId = "299DE00D-7BC2-4DFB-A399-2750234EE670";
shapes = (
{
closed = 1;
nodes = (
(490,100,l),
(201,600,l),
(181,577,o),
(158,554,o),
(124,535,c),
(432,0,l)
);
},
{
closed = 1;
nodes = (
(75,321,l),
(160,371,l),
(155,380,ls),
(142,404,o),
(148,437,o),
(173,448,cs),
(184,453,l),
(134,540,l),
(124,535,ls),
(50,498,o),
(30,402,o),
(70,330,cs)
);
},
{
closed = 1;
nodes = (
(314,105,l),
(147,393,l),
(73,325,l),
(260,0,l)
);
},
{
closed = 1;
nodes = (
(490,0,l),
(490,100,l),
(432,100,l),
(432,0,l)
);
},
{
closed = 1;
nodes = (
(12,-84,o),
(80,-150,o),
(179,-150,cs),
(277,-150,o),
(345,-77,o),
(345,13,cs),
(345,47,o),
(331,75,o),
(314,105,c),
(218,73,l),
(239,39,o),
(242,26,o),
(242,13,cs),
(242,-34,o),
(200,-66,o),
(149,-72,cs),
(76,-81,o),
(18,-41,o),
(0,0,c)
);
},
{
closed = 1;
nodes = (
(215,576,l),
(185,628,l),
(180,591,o),
(159,555,o),
(124,535,c),
(129,526,l)
);
}
);
width = 490;
}
);
},
{
glyphname = "alefMaksura-ar.fina.01.11";
kernLeft = "straight-r";
layers = (
{
anchors = (
{
name = bottom;
pos = (406,-50);
},
{
name = top;
pos = (56,0);
}
);
guides = (
{
angle = 90;
pos = (325,-63);
},
{
angle = 90;
pos = (200,-63);
},
{
angle = 90;
pos = (75,-7);
}
);
layerId = "299DE00D-7BC2-4DFB-A399-2750234EE670";
shapes = (
{
closed = 1;
nodes = (
(440,100,l),
(151,600,l),
(131,577,o),
(109,554,o),
(75,535,c),
(382,0,l)
);
},
{
closed = 1;
nodes = (
(25,321,l),
(110,371,l),
(105,380,ls),
(92,404,o),
(98,437,o),
(123,448,cs),
(134,453,l),
(84,540,l),
(75,535,ls),
(2,495,o),
(-20,402,o),
(20,330,cs)
);
},
{
closed = 1;
nodes = (
(289,62,l),
(97,393,l),
(23,325,l),
(210,0,l)
);
},
{
closed = 1;
nodes = (
(440,0,l),
(440,100,l),
(382,100,l),
(382,0,l)
);
},
{
closed = 1;
nodes = (
(88,-145,o),
(114,-150,o),
(134,-150,cs),
(265,-150,o),
(347,-40,o),
(289,62,c),
(206,7,l),
(235,-40,o),
(210,-127,o),
(76,-140,c)
);
},
{
closed = 1;
nodes = (
(165,576,l),
(135,628,l),
(130,591,o),
(109,555,o),
(74,535,c),
(79,526,l)
);
}
);
width = 440;
}
);
},
{
glyphname = "alefMaksura-ar.fina.01.12";
kernLeft = "straight-r";
layers = (
{
anchors = (
{
name = bottom;
pos = (420,-50);
},
{
name = top;
pos = (60,600);
}
);
layerId = "299DE00D-7BC2-4DFB-A399-2750234EE670";
shapes = (
{
closed = 1;
nodes = (
(470,0,l),
(470,100,l),
(412,100,l),
(412,0,l)
);
},
{
closed = 1;
nodes = (
(140,371,l),
(135,380,ls),
(122,404,o),
(128,437,o),
(153,448,cs),
(164,453,l),
(114,540,l),
(105,535,ls),
(32,495,o),
(10,402,o),
(50,330,cs),
(55,321,l)
);
},
{
closed = 1;
nodes = (
(230,714,l),
(230,1000,l),
(130,1000,l),
(130,714,l)
);
},
{
closed = 1;
nodes = (
(106,430,l),
(55,321,l),
(62,309,l),
(103,237,l),
(133,186,l),
(182,101,l),
(198,73,ls),
(218,39,o),
(220,26,o),
(220,13,cs),
(220,-34,o),
(182,-72,o),
(135,-72,cs),
(88,-72,o),
(50,-34,o),
(50,13,cs),
(50,28,o),
(50,42,o),
(67,71,cs),
(127,176,l),
(98,227,l),
(28,105,ls),
(12,78,o),
(0,47,o),
(0,13,cs),
(0,-77,o),
(72,-150,o),
(162,-150,cs),
(252,-150,o),
(322,-77,o),
(322,13,cs),
(322,47,o),
(312,79,o),
(294,105,c)
);
},
{
closed = 1;
nodes = (
(196,296,l),
(318,510,ls),
(400,663,o),
(304,785,o),
(130,751,c),
(130,700,l),
(272,732,o),
(336,649,o),
(274,534,cs),
(166,347,l)
);
},
{
closed = 1;
nodes = (
(184,398,l),
(241,497,l),
(181,600,l),
(161,577,o),
(139,554,o),
(105,535,c)
);
},
{
closed = 1;
nodes = (
(412,0,l),
(470,100,l),
(282,426,l),
(225,326,l)
);
},
{
angle = 90;
pos = (230,1000);
ref = _zuluf150;
}
);
width = 470;
},
{
associatedMasterId = "299DE00D-7BC2-4DFB-A399-2750234EE670";
hints = (
{
name = _corner.150;
origin = (4,1);
scale = (-1,-1);
type = Corner;
}
);
layerId = "87BBF1A0-2D8D-47D3-BC23-27E6F9E2E711";
name = "Oct 23 19, 23:53";
shapes = (
{
closed = 1;
nodes = (
(600,0,l),
(600,100,l),
(350,100,l),
(350,0,l)
);
},
{
closed = 1;
nodes = (
(122,362,l),
(305,44,ls),
(310,35,o),
(313,24,o),
(313,13,cs),
(313,-22,o),
(285,-50,o),
(250,-50,cs),
(215,-50,o),
(187,-22,o),
(187,13,cs),
(187,24,o),
(190,35,o),
(195,44,cs),
(392,388,ls),
(443,476,o),
(502,645,o),
(502,841,cs),
(502,1060,o),
(386,1200,o),
(230,1200,cs),
(92,1200,o),
(0,1088,o),
(0,950,c),
(16,1022,o),
(66,1111,o),
(188,1111,cs),
(327,1111,o),
(408,997,o),
(402,818,cs),
(397,679,o),
(363,532,o),
(287,402,cs),
(115,105,l),
(97,79,o),
(87,47,o),
(87,13,cs),
(87,-77,o),
(159,-150,o),
(249,-150,cs),
(339,-150,o),
(412,-77,o),
(412,13,cs),
(412,47,o),
(402,79,o),
(384,105,c),
(196,430,l)
);
},
{
closed = 1;
nodes = (
(578,69,l),
(250,637,l),
(230,614,o),
(208,591,o),
(174,572,c),
(477,44,l)
);
},
{
closed = 1;
nodes = (
(124,358,l),
(209,408,l),
(204,417,ls),
(191,441,o),
(197,474,o),
(222,485,cs),
(233,490,l),
(183,577,l),
(174,572,ls),
(102,530,o),
(79,439,o),
(119,367,cs)
);
},
{
closed = 1;
nodes = (
(320,714,l),
(320,1000,l),
(220,1000,l),
(220,714,l)
);
},
{
closed = 1;
nodes = (
(279,68,l),
(136,316,l),
(145,321,l),
(288,73,l)
);
},
{
closed = 1;
nodes = (
(205,435,l),
(393,110,l),
(384,105,l),
(196,430,l)
);
},
{
closed = 1;
nodes = (
(247,352,l),
(355,539,l),
(364,534,l),
(256,347,l)
);
},
{
closed = 1;
nodes = (
(417,505,l),
(295,291,l),
(286,296,l),
(408,510,l)
);
}
);
width = 650;
}
);
},
{
glyphname = "alefMaksura-ar.fina.01.13";
kernLeft = "straight-r";
layers = (
{
anchors = (
{
name = bottom;
pos = (420,-50);
},
{
name = top;
pos = (60,600);
}
);
layerId = "299DE00D-7BC2-4DFB-A399-2750234EE670";
shapes = (
{
closed = 1;
nodes = (
(470,0,l),
(470,100,l),
(412,100,l),
(412,0,l)
);
},
{
closed = 1;
nodes = (
(140,371,l),
(135,380,ls),
(122,404,o),
(128,437,o),
(153,448,cs),
(164,453,l),
(114,540,l),
(105,535,ls),
(32,495,o),
(10,402,o),
(50,330,cs),
(55,321,l)
);
},
{
closed = 1;
nodes = (
(230,714,l),
(230,1000,l),
(130,1000,l),
(130,714,l)
);
},
{
closed = 1;
nodes = (
(106,430,l),
(55,321,l),
(62,309,l),
(103,237,l),
(133,186,l),
(182,101,l),
(198,73,ls),
(218,39,o),
(220,26,o),
(220,13,cs),
(220,-34,o),
(182,-72,o),
(135,-72,cs),
(88,-72,o),
(50,-34,o),
(50,13,cs),
(50,28,o),
(50,42,o),
(67,71,cs),
(127,176,l),
(98,227,l),
(28,105,ls),
(12,78,o),
(0,47,o),
(0,13,cs),
(0,-77,o),
(72,-150,o),
(162,-150,cs),
(252,-150,o),
(322,-77,o),
(322,13,cs),
(322,47,o),
(312,79,o),
(294,105,c)
);
},
{
closed = 1;
nodes = (
(196,296,l),
(318,510,ls),
(400,663,o),
(304,785,o),
(130,751,c),
(130,700,l),
(272,732,o),
(336,649,o),
(274,534,cs),
(166,347,l)
);
},
{
closed = 1;
nodes = (
(184,398,l),
(241,497,l),
(181,600,l),
(161,577,o),
(139,554,o),
(105,535,c)
);
},
{
closed = 1;
nodes = (
(412,0,l),
(470,100,l),
(282,426,l),
(225,326,l)
);
},
{
angle = 90;
pos = (130,1000);
ref = _zuluf150;
scale = (1,-1);
}
);
width = 470;
},
{
associatedMasterId = "299DE00D-7BC2-4DFB-A399-2750234EE670";
hints = (
{
name = _corner.150;
origin = (4,1);
scale = (-1,-1);
type = Corner;
}
);
layerId = "87BBF1A0-2D8D-47D3-BC23-27E6F9E2E711";
name = "Oct 23 19, 23:53";
shapes = (
{
closed = 1;
nodes = (
(600,0,l),
(600,100,l),
(350,100,l),
(350,0,l)
);
},
{
closed = 1;
nodes = (
(122,362,l),
(305,44,ls),
(310,35,o),
(313,24,o),
(313,13,cs),
(313,-22,o),
(285,-50,o),
(250,-50,cs),
(215,-50,o),
(187,-22,o),
(187,13,cs),
(187,24,o),
(190,35,o),
(195,44,cs),
(392,388,ls),
(443,476,o),
(502,645,o),
(502,841,cs),
(502,1060,o),
(386,1200,o),
(230,1200,cs),
(92,1200,o),
(0,1088,o),
(0,950,c),
(16,1022,o),
(66,1111,o),
(188,1111,cs),
(327,1111,o),
(408,997,o),
(402,818,cs),
(397,679,o),
(363,532,o),
(287,402,cs),
(115,105,l),
(97,79,o),
(87,47,o),
(87,13,cs),
(87,-77,o),
(159,-150,o),
(249,-150,cs),
(339,-150,o),
(412,-77,o),
(412,13,cs),
(412,47,o),
(402,79,o),
(384,105,c),
(196,430,l)
);
},
{
closed = 1;
nodes = (
(578,69,l),
(250,637,l),
(230,614,o),
(208,591,o),
(174,572,c),
(477,44,l)
);
},
{
closed = 1;
nodes = (
(124,358,l),
(209,408,l),
(204,417,ls),
(191,441,o),
(197,474,o),
(222,485,cs),
(233,490,l),
(183,577,l),
(174,572,ls),
(102,530,o),
(79,439,o),
(119,367,cs)
);
},
{
closed = 1;
nodes = (
(320,714,l),
(320,1000,l),
(220,1000,l),
(220,714,l)
);
},
{
closed = 1;
nodes = (
(279,68,l),
(136,316,l),
(145,321,l),
(288,73,l)
);
},
{
closed = 1;
nodes = (
(205,435,l),
(393,110,l),
(384,105,l),
(196,430,l)
);
},
{
closed = 1;
nodes = (
(247,352,l),
(355,539,l),
(364,534,l),
(256,347,l)
);
},
{
closed = 1;
nodes = (
(417,505,l),
(295,291,l),
(286,296,l),
(408,510,l)
);
}
);
visible = 1;
width = 650;
}
);
},
{
glyphname = "kashida-ar";
layers = (
{
layerId = "299DE00D-7BC2-4DFB-A399-2750234EE670";
shapes = (
{
closed = 1;
nodes = (
(-50,0,l),
(50,0,l),
(50,100,l),
(-50,100,l)
);
}
);
width = 50;
}
);
unicode = 1600;
},
{
glyphname = "kashida-ar.10";
layers = (
{
layerId = "299DE00D-7BC2-4DFB-A399-2750234EE670";
shapes = (
{
closed = 1;
nodes = (
(-10,0,l),
(10,0,l),
(10,100,l),
(-10,100,l)
);
}
);
width = 10;
}
);
},
{
glyphname = "alef_lam-ar.init.dlig";
kernRight = "straight-l";
layers = (
{
anchors = (
{
name = caret_1;
pos = (175,0);
}
);
layerId = "299DE00D-7BC2-4DFB-A399-2750234EE670";
shapes = (
{
closed = 1;
nodes = (
(300,705,l),
(300,1000,l),
(200,1000,l),
(200,705,l)
);
},
{
closed = 1;
nodes = (
(150,0,l),
(150,395,l),
(50,395,l),
(50,0,l)
);
},
{
closed = 1;
nodes = (
(300,0,l),
(300,395,l),
(200,395,l),
(200,0,l)
);
},
{
closed = 1;
nodes = (
(150,705,l),
(150,1000,l),
(50,1000,l),
(50,705,l)
);
},
{
alignment = -1;
ref = "kashida-ar";
},
{
ref = "-aleflam";
},
{
angle = 90;
pos = (200,1000);
ref = _zuluf150;
scale = (1,-1);
},
{
angle = 90;
pos = (150,1000);
ref = _zuluf150;
}
);
width = 300;
}
);
},
{
glyphname = "alef_lam-ar.init.dlig.02.00";
kernRight = "alef-wide";
layers = (
{
anchors = (
{
name = caret_1;
pos = (175,0);
}
);
layerId = "299DE00D-7BC2-4DFB-A399-2750234EE670";
shapes = (
{
closed = 1;
nodes = (
(300,705,l),
(300,1000,l),
(200,1000,l),
(200,705,l)
);
},
{
closed = 1;
nodes = (
(150,0,l),
(150,395,l),
(50,395,l),
(50,0,l)
);
},
{
closed = 1;
nodes = (
(300,0,l),
(300,395,l),
(200,395,l),
(200,0,l)
);
},
{
closed = 1;
nodes = (
(150,705,l),
(150,1000,l),
(50,1000,l),
(50,705,l)
);
},
{
alignment = -1;
ref = "kashida-ar";
},
{
ref = "-aleflam";
},
{
angle = 90;
pos = (200,1000);
ref = _zuluf150;
scale = (1,-1);
},
{
angle = 90;
pos = (150,1000);
ref = _zuluf150;
},
{
pos = (300,0);
ref = _zuluf100;
}
);
width = 450;
}
);
},
{
glyphname = "alef_lam-ar.init.dlig.03.00";
kernRight = "alef-wide";
layers = (
{
anchors = (
{
name = caret_1;
pos = (175,0);
}
);
layerId = "299DE00D-7BC2-4DFB-A399-2750234EE670";
shapes = (
{
closed = 1;
nodes = (
(300,705,l),
(300,1000,l),
(200,1000,l),
(200,705,l)
);
},
{
closed = 1;
nodes = (
(150,0,l),
(150,395,l),
(50,395,l),
(50,0,l)
);
},
{
closed = 1;
nodes = (
(300,0,l),
(300,395,l),
(200,395,l),
(200,0,l)
);
},
{
closed = 1;
nodes = (
(150,705,l),
(150,1000,l),
(50,1000,l),
(50,705,l)
);
},
{
closed = 1;
nodes = (
(250,100,l),
(250,0,l),
(350,0,l),
(350,100,l)
);
},
{
alignment = -1;
ref = "kashida-ar";
},
{
ref = "-aleflam";
},
{
angle = 90;
pos = (200,1000);
ref = _zuluf150;
scale = (1,-1);
},
{
angle = 90;
pos = (150,1000);
ref = _zuluf150;
},
{
pos = (350,0);
ref = _zuluf100;
}
);
width = 500;
}
);
},
{
glyphname = "alef_lam-ar.init.dlig.04.00";
kernRight = "alef-wide";
layers = (
{
anchors = (
{
name = caret_1;
pos = (175,0);
}
);
layerId = "299DE00D-7BC2-4DFB-A399-2750234EE670";
shapes = (
{
closed = 1;
nodes = (
(300,705,l),
(300,1000,l),
(200,1000,l),
(200,705,l)
);
},
{
closed = 1;
nodes = (
(150,0,l),
(150,395,l),
(50,395,l),
(50,0,l)
);
},
{
closed = 1;
nodes = (
(300,0,l),
(300,395,l),
(200,395,l),
(200,0,l)
);
},
{
closed = 1;
nodes = (
(150,705,l),
(150,1000,l),
(50,1000,l),
(50,705,l)
);
},
{
closed = 1;
nodes = (
(250,100,l),
(250,0,l),
(400,0,l),
(400,100,l)
);
},
{
alignment = -1;
ref = "kashida-ar";
},
{
ref = "-aleflam";
},
{
angle = 90;
pos = (200,1000);
ref = _zuluf150;
scale = (1,-1);
},
{
angle = 90;
pos = (150,1000);
ref = _zuluf150;
},
{
pos = (400,0);
ref = _zuluf100;
}
);
width = 550;
}
);
},
{
glyphname = "alef_lam-ar.init.dlig.05.00";
kernRight = "alef-wide";
layers = (
{
anchors = (
{
name = caret_1;
pos = (175,0);
}
);
layerId = "299DE00D-7BC2-4DFB-A399-2750234EE670";
shapes = (
{
closed = 1;
nodes = (
(300,705,l),
(300,1000,l),
(200,1000,l),
(200,705,l)
);
},
{
closed = 1;
nodes = (
(150,0,l),
(150,395,l),
(50,395,l),
(50,0,l)
);
},
{
closed = 1;
nodes = (
(300,0,l),
(300,395,l),
(200,395,l),
(200,0,l)
);
},
{
closed = 1;
nodes = (
(150,705,l),
(150,1000,l),
(50,1000,l),
(50,705,l)
);
},
{
alignment = -1;
ref = "kashida-ar";
},
{
ref = "-aleflam";
},
{
angle = 90;
pos = (200,1000);
ref = _zuluf150;
scale = (1,-1);
},
{
angle = 90;
pos = (150,1000);
ref = _zuluf150;
},
{
angle = -90;
pos = (200,0);
ref = _zuluf100;
},
{
pos = (300,0);
ref = _zuluf100;
}
);
width = 450;
}
);
},
{
glyphname = "alef_lam-ar.init.dlig.06.00";
kernRight = "alef-wide";
layers = (
{
anchors = (
{
name = caret_1;
pos = (175,0);
}
);
layerId = "299DE00D-7BC2-4DFB-A399-2750234EE670";
shapes = (
{
closed = 1;
nodes = (
(300,705,l),
(300,1000,l),
(200,1000,l),
(200,705,l)
);
},
{
closed = 1;
nodes = (
(150,0,l),
(150,395,l),
(50,395,l),
(50,0,l)
);
},
{
closed = 1;
nodes = (
(300,0,l),
(300,395,l),
(200,395,l),
(200,0,l)
);
},
{
closed = 1;
nodes = (
(150,705,l),
(150,1000,l),
(50,1000,l),
(50,705,l)
);
},
{
closed = 1;
nodes = (
(200,50,l),
(200,-150,l),
(250,-150,o),
(300,-50,o),
(300,0,c),
(300,50,l)
);
},
{
alignment = -1;
ref = "kashida-ar";
},
{
ref = "-aleflam";
},
{
angle = 90;
pos = (200,1000);
ref = _zuluf150;
scale = (1,-1);
},
{
angle = 90;
pos = (150,1000);
ref = _zuluf150;
},
{
pos = (300,0);
ref = _zuluf100;
}
);
width = 450;
}
);
},
{
glyphname = "alef_lam-ar.init.short.dlig";
kernRight = "straight-l";
layers = (
{
anchors = (
{
name = caret_1;
pos = (175,0);
},
{
name = exit;
pos = (-50,150);
}
);
layerId = "299DE00D-7BC2-4DFB-A399-2750234EE670";
shapes = (
{
closed = 1;
nodes = (
(300,705,l),
(300,1000,l),
(200,1000,l),
(200,705,l)
);
},
{
closed = 1;
nodes = (
(150,150,l),
(150,395,l),
(50,395,l),
(50,150,l)
);
},
{
closed = 1;
nodes = (
(300,0,l),
(300,395,l),
(200,395,l),
(200,0,l)
);
},
{
closed = 1;
nodes = (
(150,705,l),
(150,1000,l),
(50,1000,l),
(50,705,l)
);
},
{
closed = 1;
nodes = (
(-50,150,l),
(70,150,l),
(70,250,l),
(-50,250,l)
);
},
{
ref = "-aleflam";
},
{
angle = 90;
pos = (200,1000);
ref = _zuluf150;
scale = (1,-1);
},
{
angle = 90;
pos = (150,1000);
ref = _zuluf150;
}
);
width = 300;
}
);
},
{
glyphname = "alef_lam-ar.init.short.dlig.02.00";
kernRight = "alef-wide";
layers = (
{
anchors = (
{
name = caret_1;
pos = (175,0);
},
{
name = exit;
pos = (-50,150);
}
);
layerId = "299DE00D-7BC2-4DFB-A399-2750234EE670";
shapes = (
{
closed = 1;
nodes = (
(300,705,l),
(300,1000,l),
(200,1000,l),
(200,705,l)
);
},
{
closed = 1;
nodes = (
(300,0,l),
(300,395,l),
(200,395,l),
(200,0,l)
);
},
{
closed = 1;
nodes = (
(150,705,l),
(150,1000,l),
(50,1000,l),
(50,705,l)
);
},
{
closed = 1;
nodes = (
(-50,150,l),
(70,150,l),
(70,250,l),
(-50,250,l)
);
},
{
closed = 1;
nodes = (
(150,150,l),
(150,395,l),
(50,395,l),
(50,150,l)
);
},
{
ref = "-aleflam";
},
{
angle = 90;
pos = (200,1000);
ref = _zuluf150;
scale = (1,-1);
},
{
angle = 90;
pos = (150,1000);
ref = _zuluf150;
},
{
pos = (300,0);
ref = _zuluf100;
}
);
width = 450;
}
);
},
{
glyphname = "alef_lam-ar.init.short.dlig.03.00";
kernRight = "alef-wide";
layers = (
{
anchors = (
{
name = caret_1;
pos = (175,0);
},
{
name = exit;
pos = (-50,150);
}
);
layerId = "299DE00D-7BC2-4DFB-A399-2750234EE670";
shapes = (
{
closed = 1;
nodes = (
(300,705,l),
(300,1000,l),
(200,1000,l),
(200,705,l)
);
},
{
closed = 1;
nodes = (
(300,0,l),
(300,395,l),
(200,395,l),
(200,0,l)
);
},
{
closed = 1;
nodes = (
(150,705,l),
(150,1000,l),
(50,1000,l),
(50,705,l)
);
},
{
closed = 1;
nodes = (
(250,100,l),
(250,0,l),
(350,0,l),
(350,100,l)
);
},
{
closed = 1;
nodes = (
(-50,150,l),
(70,150,l),
(70,250,l),
(-50,250,l)
);
},
{
closed = 1;
nodes = (
(150,150,l),
(150,395,l),
(50,395,l),
(50,150,l)
);
},
{
ref = "-aleflam";
},
{
angle = 90;
pos = (200,1000);
ref = _zuluf150;
scale = (1,-1);
},
{
angle = 90;
pos = (150,1000);
ref = _zuluf150;
},
{
pos = (350,0);
ref = _zuluf100;
}
);
width = 500;
}
);
},
{
glyphname = "alef_lam-ar.init.short.dlig.04.00";
kernRight = "alef-wide";
layers = (
{
anchors = (
{
name = caret_1;
pos = (175,0);
},
{
name = exit;
pos = (-50,150);
}
);
layerId = "299DE00D-7BC2-4DFB-A399-2750234EE670";
shapes = (
{
closed = 1;
nodes = (
(300,705,l),
(300,1000,l),
(200,1000,l),
(200,705,l)
);
},
{
closed = 1;
nodes = (
(300,0,l),
(300,395,l),
(200,395,l),
(200,0,l)
);
},
{
closed = 1;
nodes = (
(150,705,l),
(150,1000,l),
(50,1000,l),
(50,705,l)
);
},
{
closed = 1;
nodes = (
(250,100,l),
(250,0,l),
(400,0,l),
(400,100,l)
);
},
{
closed = 1;
nodes = (
(-50,150,l),
(70,150,l),
(70,250,l),
(-50,250,l)
);
},
{
closed = 1;
nodes = (
(150,150,l),
(150,395,l),
(50,395,l),
(50,150,l)
);
},
{
ref = "-aleflam";
},
{
angle = 90;
pos = (200,1000);
ref = _zuluf150;
scale = (1,-1);
},
{
angle = 90;
pos = (150,1000);
ref = _zuluf150;
},
{
pos = (400,0);
ref = _zuluf100;
}
);
width = 550;
}
);
},
{
glyphname = "alef_lam-ar.init.short.dlig.05.00";
kernRight = "alef-wide";
layers = (
{
anchors = (
{
name = caret_1;
pos = (175,0);
},
{
name = exit;
pos = (-50,150);
}
);
layerId = "299DE00D-7BC2-4DFB-A399-2750234EE670";
shapes = (
{
closed = 1;
nodes = (
(300,705,l),
(300,1000,l),
(200,1000,l),
(200,705,l)
);
},
{
closed = 1;
nodes = (
(300,0,l),
(300,395,l),
(200,395,l),
(200,0,l)
);
},
{
closed = 1;
nodes = (
(150,705,l),
(150,1000,l),
(50,1000,l),
(50,705,l)
);
},
{
closed = 1;
nodes = (
(-50,150,l),
(70,150,l),
(70,250,l),
(-50,250,l)
);
},
{
closed = 1;
nodes = (
(150,150,l),
(150,395,l),
(50,395,l),
(50,150,l)
);
},
{
ref = "-aleflam";
},
{
angle = 90;
pos = (200,1000);
ref = _zuluf150;
scale = (1,-1);
},
{
angle = 90;
pos = (150,1000);
ref = _zuluf150;
},
{
angle = -90;
pos = (200,0);
ref = _zuluf100;
},
{
pos = (300,0);
ref = _zuluf100;
}
);
width = 450;
}
);
},
{
glyphname = "alef_lam-ar.init.short.dlig.06.00";
kernRight = "alef-wide";
layers = (
{
anchors = (
{
name = caret_1;
pos = (175,0);
},
{
name = exit;
pos = (-50,150);
}
);
layerId = "299DE00D-7BC2-4DFB-A399-2750234EE670";
shapes = (
{
closed = 1;
nodes = (
(300,705,l),
(300,1000,l),
(200,1000,l),
(200,705,l)
);
},
{
closed = 1;
nodes = (
(300,0,l),
(300,395,l),
(200,395,l),
(200,0,l)
);
},
{
closed = 1;
nodes = (
(150,705,l),
(150,1000,l),
(50,1000,l),
(50,705,l)
);
},
{
closed = 1;
nodes = (
(200,50,l),
(200,-150,l),
(250,-150,o),
(300,-50,o),
(300,0,c),
(300,50,l)
);
},
{
closed = 1;
nodes = (
(-50,150,l),
(70,150,l),
(70,250,l),
(-50,250,l)
);
},
{
closed = 1;
nodes = (
(150,150,l),
(150,395,l),
(50,395,l),
(50,150,l)
);
},
{
ref = "-aleflam";
},
{
angle = 90;
pos = (200,1000);
ref = _zuluf150;
scale = (1,-1);
},
{
angle = 90;
pos = (150,1000);
ref = _zuluf150;
},
{
pos = (300,0);
ref = _zuluf100;
}
);
width = 450;
}
);
},
{
glyphname = "alef_lam_lam_heh-ar.liga";
kernRight = "alef-wide";
layers = (
{
anchors = (
{
name = caret_1;
pos = (1450,0);
},
{
name = caret_2;
pos = (1300,0);
},
{
name = caret_3;
pos = (325,0);
}
);
layerId = "299DE00D-7BC2-4DFB-A399-2750234EE670";
shapes = (
{
closed = 1;
nodes = (
(914,0,l),
(1278,0,l),
(1278,100,l),
(914,100,l)
);
},
{
closed = 1;
nodes = (
(500,0,l),
(864,0,l),
(864,100,l),
(500,100,l)
);
},
{
closed = 1;
nodes = (
(914,50,l),
(914,-150,l),
(999,-126,o),
(1014,-60,o),
(1014,0,c),
(1014,50,l)
);
},
{
closed = 1;
nodes = (
(1014,0,l),
(1014,350,l),
(914,350,l),
(914,0,l)
);
},
{
closed = 1;
nodes = (
(764,0,l),
(764,-60,o),
(779,-129,o),
(864,-150,c),
(864,50,l),
(764,50,l)
);
},
{
closed = 1;
nodes = (
(864,350,l),
(764,350,l),
(764,0,l),
(864,0,l)
);
},
{
closed = 1;
nodes = (
(300,1000,l),
(200,1000,l),
(200,790,l),
(300,790,l)
);
},
{
closed = 1;
nodes = (
(450,790,l),
(450,1000,l),
(350,1000,l),
(350,790,l)
);
},
{
closed = 1;
nodes = (
(300,460,l),
(200,460,l),
(200,0,l),
(300,0,l)
);
},
{
closed = 1;
nodes = (
(450,0,l),
(450,460,l),
(350,460,l),
(350,0,l)
);
},
{
closed = 1;
nodes = (
(1428,1000,l),
(1328,1000,l),
(1328,790,l),
(1428,790,l)
);
},
{
closed = 1;
nodes = (
(1528,100,l),
(1528,0,l),
(1678,0,l),
(1678,100,l)
);
},
{
closed = 1;
nodes = (
(1578,790,l),
(1578,1000,l),
(1478,1000,l),
(1478,790,l)
);
},
{
closed = 1;
nodes = (
(1428,460,l),
(1328,460,l),
(1328,0,l),
(1428,0,l)
);
},
{
closed = 1;
nodes = (
(1578,0,l),
(1578,460,l),
(1478,460,l),
(1478,0,l)
);
},
{
closed = 1;
nodes = (
(200,0,l),
(400,0,l),
(400,100,l),
(200,100,l)
);
},
{
alignment = -1;
pos = (500,300);
ref = _deco.01;
},
{
pos = (200,455);
ref = _deco.06;
},
{
pos = (1328,455);
ref = _deco.06;
},
{
pos = (1178,0);
ref = _elbow.1;
},
{
pos = (600,0);
ref = _elbow.1;
scale = (-1,1);
},
{
ref = "heh-ar";
},
{
angle = 90;
pos = (300,1000);
ref = _zuluf150;
},
{
angle = 90;
pos = (350,1000);
ref = _zuluf150;
scale = (1,-1);
},
{
pos = (1678,0);
ref = _zuluf100;
},
{
angle = 90;
pos = (1428,1000);
ref = _zuluf150;
},
{
angle = 90;
pos = (1478,1000);
ref = _zuluf150;
scale = (1,-1);
}
);
width = 1828;
},
{
associatedMasterId = "299DE00D-7BC2-4DFB-A399-2750234EE670";
layerId = "EBCEFDF2-7E22-4175-B90F-57F70E814291";
name = "Oct 26 19, 14:34";
shapes = (
{
closed = 1;
nodes = (
(0,150,l),
(550,150,l),
(550,250,l),
(0,250,l)
);
},
{
closed = 1;
nodes = (
(0,300,l),
(550,300,l),
(550,400,l),
(0,400,l)
);
},
{
closed = 1;
nodes = (
(300,450,l),
(550,450,l),
(550,550,l),
(300,550,l)
);
},
{
closed = 1;
nodes = (
(150,0,l),
(250,0,l),
(250,550,l),
(150,550,l)
);
},
{
closed = 1;
nodes = (
(300,0,l),
(400,0,l),
(400,550,l),
(300,550,l)
);
},
{
closed = 1;
nodes = (
(450,0,l),
(550,0,l),
(550,250,l),
(450,250,l)
);
},
{
closed = 1;
nodes = (
(0,450,l),
(250,450,l),
(250,550,l),
(0,550,l)
);
},
{
closed = 1;
nodes = (
(450,300,l),
(550,300,l),
(550,550,l),
(450,550,l)
);
},
{
closed = 1;
nodes = (
(0,0,l),
(100,0,l),
(100,250,l),
(0,250,l)
);
},
{
closed = 1;
nodes = (
(0,300,l),
(100,300,l),
(100,550,l),
(0,550,l)
);
},
{
closed = 1;
nodes = (
(300,0,l),
(550,0,l),
(550,100,l),
(300,100,l)
);
},
{
closed = 1;
nodes = (
(0,0,l),
(250,0,l),
(250,100,l),
(0,100,l)
);
}
);
width = 550;
}
);
},
{
glyphname = "alef_lam_lam_heh-ar.liga.01.01";
kernRight = "alef-wide";
layers = (
{
anchors = (
{
name = caret_1;
pos = (1450,0);
},
{
name = caret_2;
pos = (1300,0);
},
{
name = caret_3;
pos = (325,0);
}
);
layerId = "299DE00D-7BC2-4DFB-A399-2750234EE670";
shapes = (
{
closed = 1;
nodes = (
(914,0,l),
(1278,0,l),
(1278,100,l),
(914,100,l)
);
},
{
closed = 1;
nodes = (
(500,0,l),
(864,0,l),
(864,100,l),
(500,100,l)
);
},
{
closed = 1;
nodes = (
(914,50,l),
(914,-150,l),
(999,-126,o),
(1014,-60,o),
(1014,0,c),
(1014,50,l)
);
},
{
closed = 1;
nodes = (
(1014,0,l),
(1014,250,l),
(914,250,l),
(914,0,l)
);
},
{
closed = 1;
nodes = (
(764,0,l),
(764,-60,o),
(779,-129,o),
(864,-150,c),
(864,50,l),
(764,50,l)
);
},
{
closed = 1;
nodes = (
(864,250,l),
(764,250,l),
(764,0,l),
(864,0,l)
);
},
{
closed = 1;
nodes = (
(300,460,l),
(200,460,l),
(200,0,l),
(300,0,l)
);
},
{
closed = 1;
nodes = (
(450,0,l),
(450,460,l),
(350,460,l),
(350,0,l)
);
},
{
closed = 1;
nodes = (
(1528,100,l),
(1528,0,l),
(1678,0,l),
(1678,100,l)
);
},
{
closed = 1;
nodes = (
(1428,460,l),
(1328,460,l),
(1328,0,l),
(1428,0,l)
);
},
{
closed = 1;
nodes = (
(1578,0,l),
(1578,460,l),
(1478,460,l),
(1478,0,l)
);
},
{
closed = 1;
nodes = (
(200,0,l),
(400,0,l),
(400,100,l),
(200,100,l)
);
},
{
closed = 1;
nodes = (
(1428,1000,l),
(1328,1000,l),
(1328,790,l),
(1428,790,l)
);
},
{
closed = 1;
nodes = (
(1578,790,l),
(1578,1000,l),
(1478,1000,l),
(1478,790,l)
);
},
{
closed = 1;
nodes = (
(300,1000,l),
(200,1000,l),
(200,790,l),
(300,790,l)
);
},
{
closed = 1;
nodes = (
(450,790,l),
(450,1000,l),
(350,1000,l),
(350,790,l)
);
},
{
alignment = -1;
pos = (500,200);
ref = _deco.02;
},
{
pos = (1178,0);
ref = _elbow.1;
},
{
pos = (600,0);
ref = _elbow.1;
scale = (-1,1);
},
{
ref = "heh-ar";
},
{
pos = (1328,455);
ref = _deco.06;
},
{
pos = (200,455);
ref = _deco.06;
},
{
pos = (1678,0);
ref = _zuluf100;
},
{
angle = 90;
pos = (1428,1000);
ref = _zuluf150;
},
{
angle = 90;
pos = (1478,1000);
ref = _zuluf150;
scale = (1,-1);
},
{
angle = 90;
pos = (300,1000);
ref = _zuluf150;
},
{
angle = 90;
pos = (350,1000);
ref = _zuluf150;
scale = (1,-1);
}
);
width = 1828;
},
{
associatedMasterId = "299DE00D-7BC2-4DFB-A399-2750234EE670";
layerId = "EBCEFDF2-7E22-4175-B90F-57F70E814291";
name = "Oct 26 19, 14:34";
shapes = (
{
closed = 1;
nodes = (
(0,150,l),
(550,150,l),
(550,250,l),
(0,250,l)
);
},
{
closed = 1;
nodes = (
(0,300,l),
(550,300,l),
(550,400,l),
(0,400,l)
);
},
{
closed = 1;
nodes = (
(300,450,l),
(550,450,l),
(550,550,l),
(300,550,l)
);
},
{
closed = 1;
nodes = (
(150,0,l),
(250,0,l),
(250,550,l),
(150,550,l)
);
},
{
closed = 1;
nodes = (
(300,0,l),
(400,0,l),
(400,550,l),
(300,550,l)
);
},
{
closed = 1;
nodes = (
(450,0,l),
(550,0,l),
(550,250,l),
(450,250,l)
);
},
{
closed = 1;
nodes = (
(0,450,l),
(250,450,l),
(250,550,l),
(0,550,l)
);
},
{
closed = 1;
nodes = (
(450,300,l),
(550,300,l),
(550,550,l),
(450,550,l)
);
},
{
closed = 1;
nodes = (
(0,0,l),
(100,0,l),
(100,250,l),
(0,250,l)
);
},
{
closed = 1;
nodes = (
(0,300,l),
(100,300,l),
(100,550,l),
(0,550,l)
);
},
{
closed = 1;
nodes = (
(300,0,l),
(550,0,l),
(550,100,l),
(300,100,l)
);
},
{
closed = 1;
nodes = (
(0,0,l),
(250,0,l),
(250,100,l),
(0,100,l)
);
}
);
width = 550;
}
);
},
{
glyphname = "alef_lam_lam_heh-ar.liga.01.02";
kernRight = "alef-wide";
layers = (
{
anchors = (
{
name = caret_1;
pos = (625,0);
},
{
name = caret_2;
pos = (475,0);
},
{
name = caret_3;
pos = (325,0);
}
);
layerId = "299DE00D-7BC2-4DFB-A399-2750234EE670";
shapes = (
{
closed = 1;
nodes = (
(450,0,l),
(450,893,l),
(350,893,l),
(350,0,l)
);
},
{
closed = 1;
nodes = (
(200,0,l),
(400,0,l),
(400,100,l),
(200,100,l)
);
},
{
closed = 1;
nodes = (
(300,0,l),
(300,500,l),
(200,500,l),
(200,0,l)
);
},
{
closed = 1;
nodes = (
(291,1052,l),
(221,981,l),
(379,822,l),
(450,893,l)
);
},
{
closed = 1;
nodes = (
(600,500,l),
(500,500,l),
(500,0,l),
(600,0,l)
);
},
{
closed = 1;
nodes = (
(750,0,l),
(750,500,l),
(650,500,l),
(650,0,l)
);
},
{
closed = 1;
nodes = (
(600,1000,l),
(500,1000,l),
(500,790,l),
(600,790,l)
);
},
{
closed = 1;
nodes = (
(750,790,l),
(750,1000,l),
(650,1000,l),
(650,790,l)
);
},
{
pos = (600,0);
ref = _elbow.1;
scale = (-1,1);
},
{
ref = "heh-ar";
},
{
angle = 90;
pos = (300,500);
ref = _zuluf100;
},
{
angle = 135;
pos = (291,1052);
ref = _zuluf150;
},
{
pos = (500,476);
ref = _deco.14;
},
{
angle = 90;
pos = (600,1000);
ref = _zuluf150;
},
{
angle = 90;
pos = (650,1000);
ref = _zuluf150;
scale = (1,-1);
},
{
pos = (750,0);
ref = _zuluf100;
}
);
width = 900;
},
{
associatedMasterId = "299DE00D-7BC2-4DFB-A399-2750234EE670";
layerId = "EBCEFDF2-7E22-4175-B90F-57F70E814291";
name = "Oct 26 19, 14:34";
shapes = (
{
closed = 1;
nodes = (
(0,150,l),
(550,150,l),
(550,250,l),
(0,250,l)
);
},
{
closed = 1;
nodes = (
(0,300,l),
(550,300,l),
(550,400,l),
(0,400,l)
);
},
{
closed = 1;
nodes = (
(300,450,l),
(550,450,l),
(550,550,l),
(300,550,l)
);
},
{
closed = 1;
nodes = (
(150,0,l),
(250,0,l),
(250,550,l),
(150,550,l)
);
},
{
closed = 1;
nodes = (
(300,0,l),
(400,0,l),
(400,550,l),
(300,550,l)
);
},
{
closed = 1;
nodes = (
(450,0,l),
(550,0,l),
(550,250,l),
(450,250,l)
);
},
{
closed = 1;
nodes = (
(0,450,l),
(250,450,l),
(250,550,l),
(0,550,l)
);
},
{
closed = 1;
nodes = (
(450,300,l),
(550,300,l),
(550,550,l),
(450,550,l)
);
},
{
closed = 1;
nodes = (
(0,0,l),
(100,0,l),
(100,250,l),
(0,250,l)
);
},
{
closed = 1;
nodes = (
(0,300,l),
(100,300,l),
(100,550,l),
(0,550,l)
);
},
{
closed = 1;
nodes = (
(300,0,l),
(550,0,l),
(550,100,l),
(300,100,l)
);
},
{
closed = 1;
nodes = (
(0,0,l),
(250,0,l),
(250,100,l),
(0,100,l)
);
}
);
width = 550;
}
);
},
{
glyphname = "lam_alef-ar.liga";
kernLeft = "straight-r";
kernRight = "straight-l";
layers = (
{
anchors = (
{
name = bottom_1;
pos = (200,0);
},
{
name = bottom_2;
pos = (50,0);
},
{
name = caret_1;
pos = (125,0);
},
{
name = top_1;
pos = (350,1066);
},
{
name = top_2;
pos = (-100,1066);
}
);
layerId = "299DE00D-7BC2-4DFB-A399-2750234EE670";
shapes = (
{
closed = 1;
nodes = (
(250,0,l),
(250,100,l),
(0,100,l),
(0,0,l)
);
},
{
closed = 1;
nodes = (
(250,192,l),
(44,398,l),
(0,368,l),
(0,300,l),
(150,150,l)
);
},
{
closed = 1;
nodes = (
(100,342,l),
(100,1000,l),
(0,1000,l),
(0,342,l)
);
},
{
closed = 1;
nodes = (
(100,162,l),
(0,192,l),
(0,34,l),
(100,34,l)
);
},
{
closed = 1;
nodes = (
(250,300,l),
(250,368,l),
(206,398,l),
(0,192,l),
(100,150,l)
);
},
{
closed = 1;
nodes = (
(250,1000,l),
(150,1000,l),
(150,342,l),
(250,342,l)
);
},
{
closed = 1;
nodes = (
(250,192,l),
(150,162,l),
(150,34,l),
(250,34,l)
);
},
{
closed = 1;
nodes = (
(125,175,l),
(118,168,l),
(47,239,l),
(54,246,l)
);
},
{
closed = 1;
nodes = (
(203,253,l),
(196,246,l),
(125,317,l),
(132,324,l)
);
},
{
angle = 90;
pos = (100,1000);
ref = _zuluf150;
},
{
angle = 90;
pos = (150,1000);
ref = _zuluf150;
scale = (1,-1);
}
);
width = 250;
},
{
anchors = (
{
name = bottom_1;
pos = (200,0);
},
{
name = bottom_2;
pos = (50,0);
},
{
name = caret_1;
pos = (125,0);
},
{
name = top_1;
pos = (350,666);
},
{
name = top_2;
pos = (-100,666);
}
);
associatedMasterId = "299DE00D-7BC2-4DFB-A399-2750234EE670";
layerId = "5FC3DA15-B0C2-406B-A956-4700B543B3B1";
name = Short;
shapes = (
{
closed = 1;
nodes = (
(250,0,l),
(250,100,l),
(0,100,l),
(0,0,l)
);
},
{
closed = 1;
nodes = (
(250,192,l),
(44,398,l),
(0,368,l),
(0,300,l),
(150,150,l)
);
},
{
closed = 1;
nodes = (
(100,342,l),
(100,600,l),
(0,600,l),
(0,342,l)
);
},
{
closed = 1;
nodes = (
(100,162,l),
(0,192,l),
(0,34,l),
(100,34,l)
);
},
{
closed = 1;
nodes = (
(250,300,l),
(250,368,l),
(206,398,l),
(0,192,l),
(100,150,l)
);
},
{
closed = 1;
nodes = (
(250,600,l),
(150,600,l),
(150,342,l),
(250,342,l)
);
},
{
closed = 1;
nodes = (
(250,192,l),
(150,162,l),
(150,34,l),
(250,34,l)
);
},
{
closed = 1;
nodes = (
(125,175,l),
(118,168,l),
(47,239,l),
(54,246,l)
);
},
{
closed = 1;
nodes = (
(203,253,l),
(196,246,l),
(125,317,l),
(132,324,l)
);
},
{
angle = 90;
pos = (100,600);
ref = _zuluf150;
},
{
angle = 90;
pos = (150,600);
ref = _zuluf150;
scale = (1,-1);
}
);
width = 250;
}
);
},
{
glyphname = "lam_alef-ar.fina.liga.01.08";
layers = (
{
layerId = "299DE00D-7BC2-4DFB-A399-2750234EE670";
shapes = (
{
closed = 1;
nodes = (
(400,100,l),
(400,0,l),
(500,0,l),
(500,100,l)
);
},
{
alignment = -1;
ref = "lam_alef-ar.liga.01.08";
}
);
width = 450;
}
);
},
{
glyphname = "lam_alef-ar.liga.01.01";
layers = (
{
anchors = (
{
name = bottom_1;
pos = (305,0);
},
{
name = bottom_2;
pos = (95,0);
},
{
name = caret_1;
pos = (200,0);
},
{
name = top_1;
pos = (430,1066);
},
{
name = top_2;
pos = (-25,1066);
}
);
layerId = "299DE00D-7BC2-4DFB-A399-2750234EE670";
shapes = (
{
closed = 1;
nodes = (
(175,302,l),
(175,1000,l),
(75,1000,l),
(75,302,l)
);
},
{
closed = 1;
nodes = (
(325,1000,l),
(225,1000,l),
(225,302,l),
(325,302,l)
);
},
{
closed = 1;
nodes = (
(60,0,l),
(60,100,l),
(50,100,l),
(50,59,o),
(30,23,o),
(0,0,c)
);
},
{
closed = 1;
nodes = (
(370,23,o),
(350,59,o),
(350,100,c),
(340,100,l),
(340,0,l),
(400,0,l)
);
},
{
closed = 1;
nodes = (
(350,0,l),
(350,100,l),
(50,100,l),
(50,0,l)
);
},
{
closed = 1;
nodes = (
(200,50,l),
(200,-150,l),
(235,-124,o),
(250,-46,o),
(250,0,cs),
(250,50,l)
);
},
{
closed = 1;
nodes = (
(150,0,ls),
(150,-46,o),
(165,-124,o),
(200,-150,c),
(200,50,l),
(150,50,l)
);
},
{
closed = 1;
nodes = (
(269,150,o),
(325,207,o),
(325,276,cs),
(325,320,l),
(225,320,l),
(225,274,ls),
(225,261,o),
(214,250,o),
(200,250,cs),
(117,250,o),
(50,183,o),
(50,100,cs),
(50,50,l),
(350,50,l),
(350,100,ls),
(350,138,o),
(336,174,o),
(312,200,c),
(292,171,o),
(262,150,o),
(226,143,c),
(241,134,o),
(250,118,o),
(250,100,cs),
(250,72,o),
(228,50,o),
(200,50,cs),
(172,50,o),
(150,72,o),
(150,100,cs),
(150,128,o),
(172,150,o),
(200,150,cs)
);
},
{
closed = 1;
nodes = (
(177,263,o),
(175,268,o),
(175,274,cs),
(175,320,l),
(75,320,l),
(75,276,ls),
(75,254,o),
(80,234,o),
(90,216,c),
(114,239,o),
(146,255,o),
(181,259,c)
);
},
{
angle = 90;
pos = (175,1000);
ref = _zuluf150;
},
{
angle = 90;
pos = (225,1000);
ref = _zuluf150;
scale = (1,-1);
}
);
width = 400;
},
{
anchors = (
{
name = bottom_1;
pos = (305,0);
},
{
name = bottom_2;
pos = (95,0);
},
{
name = caret_1;
pos = (200,0);
},
{
name = top_1;
pos = (430,666);
},
{
name = top_2;
pos = (-25,666);
}
);
associatedMasterId = "299DE00D-7BC2-4DFB-A399-2750234EE670";
layerId = "6B0A57E9-6AE8-4BB7-8A8F-C7A5E93C1532";
name = Short;
shapes = (
{
closed = 1;
nodes = (
(175,302,l),
(175,600,l),
(75,600,l),
(75,302,l)
);
},
{
closed = 1;
nodes = (
(325,600,l),
(225,600,l),
(225,302,l),
(325,302,l)
);
},
{
closed = 1;
nodes = (
(60,0,l),
(60,100,l),
(50,100,l),
(50,59,o),
(30,23,o),
(0,0,c)
);
},
{
closed = 1;
nodes = (
(370,23,o),
(350,59,o),
(350,100,c),
(340,100,l),
(340,0,l),
(400,0,l)
);
},
{
closed = 1;
nodes = (
(350,0,l),
(350,100,l),
(50,100,l),
(50,0,l)
);
},
{
closed = 1;
nodes = (
(200,50,l),
(200,-150,l),
(235,-124,o),
(250,-46,o),
(250,0,cs),
(250,50,l)
);
},
{
closed = 1;
nodes = (
(150,0,ls),
(150,-46,o),
(165,-124,o),
(200,-150,c),
(200,50,l),
(150,50,l)
);
},
{
closed = 1;
nodes = (
(269,150,o),
(325,207,o),
(325,276,cs),
(325,320,l),
(225,320,l),
(225,274,ls),
(225,261,o),
(214,250,o),
(200,250,cs),
(117,250,o),
(50,183,o),
(50,100,cs),
(50,50,l),
(350,50,l),
(350,100,ls),
(350,138,o),
(336,174,o),
(312,200,c),
(292,171,o),
(262,150,o),
(226,143,c),
(241,134,o),
(250,118,o),
(250,100,cs),
(250,72,o),
(228,50,o),
(200,50,cs),
(172,50,o),
(150,72,o),
(150,100,cs),
(150,128,o),
(172,150,o),
(200,150,cs)
);
},
{
closed = 1;
nodes = (
(177,263,o),
(175,268,o),
(175,274,cs),
(175,320,l),
(75,320,l),
(75,276,ls),
(75,254,o),
(80,234,o),
(90,216,c),
(114,239,o),
(146,255,o),
(181,259,c)
);
},
{
angle = 90;
pos = (175,600);
ref = _zuluf150;
},
{
angle = 90;
pos = (225,600);
ref = _zuluf150;
scale = (1,-1);
}
);
width = 400;
},
{
associatedMasterId = "299DE00D-7BC2-4DFB-A399-2750234EE670";
hints = (
{
name = _corner.150;
origin = (0,1);
scale = (-1,-1);
type = Corner;
},
{
name = _corner.150;
options = 1;
origin = (1,1);
scale = (1,-1);
type = Corner;
}
);
layerId = "0695E9F1-7972-44E5-A405-D03BC663E747";
name = "Oct 24 19, 17:53";
shapes = (
{
closed = 1;
nodes = (
(175,302,l),
(175,1000,l),
(75,1000,l),
(75,302,l)
);
},
{
closed = 1;
nodes = (
(325,1000,l),
(225,1000,l),
(225,302,l),
(325,302,l)
);
},
{
closed = 1;
nodes = (
(60,0,l),
(60,100,l),
(50,100,l),
(50,59,o),
(30,23,o),
(0,0,c)
);
},
{
closed = 1;
nodes = (
(370,23,o),
(350,59,o),
(350,100,c),
(340,100,l),
(340,0,l),
(400,0,l)
);
},
{
closed = 1;
nodes = (
(350,0,l),
(350,100,l),
(50,100,l),
(50,0,l)
);
},
{
closed = 1;
nodes = (
(200,50,l),
(200,-150,l),
(235,-124,o),
(250,-46,o),
(250,0,c),
(250,50,l)
);
},
{
closed = 1;
nodes = (
(150,0,l),
(150,-46,o),
(165,-124,o),
(200,-150,c),
(200,50,l),
(150,50,l)
);
},
{
closed = 1;
nodes = (
(350,50,l),
(350,100,ls),
(350,183,o),
(283,250,o),
(200,250,cs),
(117,250,o),
(50,183,o),
(50,100,cs),
(50,50,l)
);
},
{
closed = 1;
nodes = (
(172,50,o),
(150,72,o),
(150,100,cs),
(150,128,o),
(172,150,o),
(200,150,cs),
(228,150,o),
(250,128,o),
(250,100,cs),
(250,72,o),
(228,50,o),
(200,50,cs)
);
},
{
closed = 1;
nodes = (
(269,150,o),
(325,207,o),
(325,276,c),
(325,320,l),
(225,320,l),
(225,274,ls),
(225,261,o),
(214,250,o),
(200,250,c),
(186,250,o),
(175,261,o),
(175,274,cs),
(175,320,l),
(75,320,l),
(75,276,l),
(75,207,o),
(130,150,o),
(200,150,c)
);
},
{
closed = 1;
nodes = (
(325,207,o),
(269,150,o),
(200,150,c),
(200,140,l),
(274,140,o),
(335,201,o),
(335,276,c),
(325,276,l)
);
},
{
closed = 1;
nodes = (
(40,100,l),
(40,188,o),
(112,260,o),
(200,260,c),
(200,250,l),
(117,250,o),
(50,183,o),
(50,100,c)
);
}
);
visible = 1;
width = 400;
}
);
},
{
glyphname = "lam_alef-ar.liga.01.02";
kernLeft = "straight-r";
kernRight = "straight-l";
layers = (
{
anchors = (
{
name = bottom_1;
pos = (270,0);
},
{
name = bottom_2;
pos = (-20,0);
},
{
name = caret_1;
pos = (125,0);
},
{
name = top_1;
pos = (350,1066);
},
{
name = top_2;
pos = (-100,1066);
}
);
layerId = "299DE00D-7BC2-4DFB-A399-2750234EE670";
shapes = (
{
closed = 0;
nodes = (
(100,238,l)
);
},
{
closed = 1;
nodes = (
(110,233,o),
(105,236,o),
(100,238,c),
(100,1000,l),
(0,1000,l),
(0,180,l),
(13,174,o),
(25,168,o),
(37,161,c),
(56,188,o),
(82,211,o),
(115,231,c)
);
},
{
closed = 1;
nodes = (
(100,97,o),
(166,138,o),
(250,180,c),
(250,1000,l),
(150,1000,l),
(150,238,l),
(36,185,o),
(0,99,o),
(0,0,c),
(57,-45,o),
(98,-95,o),
(125,-150,c),
(152,-95,o),
(193,-45,o),
(250,0,c),
(250,55,o),
(239,105,o),
(210,148,c),
(173,127,o),
(147,108,o),
(131,90,c),
(143,74,o),
(150,57,o),
(150,39,cs),
(150,33,o),
(148,28,o),
(145,24,cs),
(141,18,o),
(133,14,o),
(125,14,cs),
(117,14,o),
(109,18,o),
(105,24,cs),
(102,28,o),
(100,33,o),
(100,39,cs)
);
},
{
angle = 90;
pos = (150,1000);
ref = _zuluf150;
scale = (1,-1);
},
{
angle = 90;
pos = (100,1000);
ref = _zuluf150;
}
);
width = 250;
},
{
anchors = (
{
name = bottom_1;
pos = (270,0);
},
{
name = bottom_2;
pos = (-20,0);
},
{
name = caret_1;
pos = (125,0);
},
{
name = top_1;
pos = (350,666);
},
{
name = top_2;
pos = (-100,666);
}
);
associatedMasterId = "299DE00D-7BC2-4DFB-A399-2750234EE670";
layerId = "24E2D4C4-775E-46E5-B44D-E2641E61DF5F";
name = Short;
shapes = (
{
closed = 0;
nodes = (
(100,238,l)
);
},
{
closed = 1;
nodes = (
(110,233,o),
(105,236,o),
(100,238,c),
(100,600,l),
(0,600,l),
(0,180,l),
(13,174,o),
(25,168,o),
(37,161,c),
(56,188,o),
(82,211,o),
(115,231,c)
);
},
{
closed = 1;
nodes = (
(100,97,o),
(166,138,o),
(250,180,c),
(250,600,l),
(150,600,l),
(150,238,l),
(36,185,o),
(0,99,o),
(0,0,c),
(57,-45,o),
(98,-95,o),
(125,-150,c),
(152,-95,o),
(193,-45,o),
(250,0,c),
(250,55,o),
(239,105,o),
(210,148,c),
(173,127,o),
(147,108,o),
(131,90,c),
(143,74,o),
(150,57,o),
(150,39,cs),
(150,33,o),
(148,28,o),
(145,24,cs),
(141,18,o),
(133,14,o),
(125,14,cs),
(117,14,o),
(109,18,o),
(105,24,cs),
(102,28,o),
(100,33,o),
(100,39,cs)
);
},
{
angle = 90;
pos = (150,600);
ref = _zuluf150;
scale = (1,-1);
},
{
angle = 90;
pos = (100,600);
ref = _zuluf150;
}
);
width = 250;
},
{
associatedMasterId = "299DE00D-7BC2-4DFB-A399-2750234EE670";
layerId = "D190BAFC-69F2-423C-8846-DECFD87C2618";
name = "Oct 28 19, 18:13";
shapes = (
{
closed = 0;
nodes = (
(125,-240,l),
(125,1300,l)
);
},
{
closed = 0;
nodes = (
(50,0,l),
(50,94,o),
(128,175,o),
(227,225,c)
);
},
{
closed = 1;
nodes = (
(100,97,o),
(166,138,o),
(250,180,c),
(204,270,l),
(77,205,o),
(0,105,o),
(0,0,c),
(57,-45,o),
(98,-95,o),
(125,-150,c),
(152,-95,o),
(193,-45,o),
(250,0,c),
(250,105,o),
(173,205,o),
(46,270,c),
(0,180,l),
(84,138,o),
(150,97,o),
(150,39,cs),
(150,33,o),
(148,28,o),
(145,24,cs),
(141,18,o),
(133,14,o),
(125,14,cs),
(117,14,o),
(109,18,o),
(105,24,cs),
(102,28,o),
(100,33,o),
(100,39,cs)
);
},
{
alignment = -1;
pos = (150,0);
ref = "alef-ar";
},
{
pos = (100,0);
ref = "alef-ar";
scale = (-1,1);
}
);
visible = 1;
width = 250;
},
{
associatedMasterId = "299DE00D-7BC2-4DFB-A399-2750234EE670";
hints = (
{
name = _corner.150;
options = 1;
origin = (1,19);
scale = (1,-1);
type = Corner;
},
{
name = _corner.150;
origin = (1,33);
scale = (-1,-1);
type = Corner;
}
);
layerId = "755F9BFB-944F-4232-A987-C4525BC9CD07";
name = "Oct 28 19, 18:33";
shapes = (
{
closed = 0;
nodes = (
(100,238,l)
);
},
{
closed = 1;
nodes = (
(84,138,o),
(150,97,o),
(150,39,cs),
(150,33,o),
(148,28,o),
(145,24,cs),
(141,18,o),
(133,14,o),
(125,14,cs),
(117,14,o),
(109,18,o),
(105,24,cs),
(102,28,o),
(100,33,o),
(100,39,cs),
(100,97,o),
(166,138,o),
(250,180,c),
(250,1000,l),
(150,1000,l),
(150,238,l),
(36,185,o),
(0,99,o),
(0,0,c),
(57,-45,o),
(98,-95,o),
(125,-150,c),
(152,-95,o),
(193,-45,o),
(250,0,c),
(250,99,o),
(214,185,o),
(100,238,c),
(100,1000,l),
(0,1000,l),
(0,180,l)
);
}
);
visible = 1;
width = 250;
}
);
},
{
glyphname = "lam_alef-ar.liga.01.03";
layers = (
{
anchors = (
{
name = bottom_1;
pos = (305,0);
},
{
name = bottom_2;
pos = (95,0);
},
{
name = caret_1;
pos = (200,0);
},
{
name = top_1;
pos = (430,1066);
},
{
name = top_2;
pos = (-25,1066);
}
);
layerId = "299DE00D-7BC2-4DFB-A399-2750234EE670";
shapes = (
{
closed = 1;
nodes = (
(60,0,l),
(60,100,l),
(50,100,l),
(50,59,o),
(30,23,o),
(0,0,c)
);
},
{
closed = 1;
nodes = (
(200,50,l),
(150,50,l),
(150,0,ls),
(150,-46,o),
(165,-124,o),
(200,-150,c)
);
},
{
closed = 1;
nodes = (
(235,-124,o),
(250,-46,o),
(250,0,cs),
(250,50,l),
(200,50,l),
(200,-150,l)
);
},
{
closed = 1;
nodes = (
(350,0,l),
(350,100,l),
(50,100,l),
(50,0,l)
);
},
{
closed = 1;
nodes = (
(400,0,l),
(370,23,o),
(350,59,o),
(350,100,c),
(340,100,l),
(340,0,l)
);
},
{
closed = 1;
nodes = (
(350,50,l),
(350,100,ls),
(350,138,o),
(336,174,o),
(312,200,c),
(292,171,o),
(262,150,o),
(226,143,c),
(241,134,o),
(250,118,o),
(250,100,cs),
(250,72,o),
(228,50,o),
(200,50,cs),
(172,50,o),
(150,72,o),
(150,100,cs),
(150,128,o),
(172,150,o),
(200,150,cs),
(269,150,o),
(325,207,o),
(325,275,cs),
(325,301,o),
(319,325,o),
(306,347,c),
(265,338,o),
(229,324,o),
(208,308,c),
(219,296,o),
(225,284,o),
(225,274,cs),
(225,261,o),
(214,250,o),
(200,250,cs),
(117,250,o),
(50,183,o),
(50,100,cs),
(50,50,l)
);
},
{
closed = 1;
nodes = (
(114,239,o),
(146,255,o),
(181,259,c),
(177,263,o),
(175,269,o),
(175,275,cs),
(175,304,o),
(224,345,o),
(325,360,c),
(325,1000,l),
(225,1000,l),
(225,430,l),
(134,407,o),
(75,360,o),
(75,275,cs),
(75,254,o),
(80,233,o),
(90,216,c)
);
},
{
closed = 1;
nodes = (
(108,388,o),
(140,411,o),
(184,428,c),
(175,430,l),
(175,1000,l),
(75,1000,l),
(75,360,l),
(80,360,o),
(84,360,o),
(89,359,c)
);
},
{
angle = 90;
pos = (175,1000);
ref = _zuluf150;
},
{
angle = 90;
pos = (225,1000);
ref = _zuluf150;
scale = (1,-1);
}
);
width = 400;
},
{
anchors = (
{
name = bottom_1;
pos = (305,0);
},
{
name = bottom_2;
pos = (95,0);
},
{
name = caret_1;
pos = (200,0);
},
{
name = top_1;
pos = (430,666);
},
{
name = top_2;
pos = (-25,666);
}
);
associatedMasterId = "299DE00D-7BC2-4DFB-A399-2750234EE670";
layerId = "63CCB03F-5FB3-4C5A-B8E1-1668358A41ED";
name = Short;
shapes = (
{
closed = 1;
nodes = (
(60,0,l),
(60,100,l),
(50,100,l),
(50,59,o),
(30,23,o),
(0,0,c)
);
},
{
closed = 1;
nodes = (
(200,50,l),
(150,50,l),
(150,0,ls),
(150,-46,o),
(165,-124,o),
(200,-150,c)
);
},
{
closed = 1;
nodes = (
(235,-124,o),
(250,-46,o),
(250,0,cs),
(250,50,l),
(200,50,l),
(200,-150,l)
);
},
{
closed = 1;
nodes = (
(350,0,l),
(350,100,l),
(50,100,l),
(50,0,l)
);
},
{
closed = 1;
nodes = (
(400,0,l),
(370,23,o),
(350,59,o),
(350,100,c),
(340,100,l),
(340,0,l)
);
},
{
closed = 1;
nodes = (
(350,50,l),
(350,100,ls),
(350,138,o),
(336,174,o),
(312,200,c),
(292,171,o),
(262,150,o),
(226,143,c),
(241,134,o),
(250,118,o),
(250,100,cs),
(250,72,o),
(228,50,o),
(200,50,cs),
(172,50,o),
(150,72,o),
(150,100,cs),
(150,128,o),
(172,150,o),
(200,150,cs),
(269,150,o),
(325,207,o),
(325,275,cs),
(325,301,o),
(319,325,o),
(306,347,c),
(265,338,o),
(229,324,o),
(208,308,c),
(219,296,o),
(225,284,o),
(225,274,cs),
(225,261,o),
(214,250,o),
(200,250,cs),
(117,250,o),
(50,183,o),
(50,100,cs),
(50,50,l)
);
},
{
closed = 1;
nodes = (
(114,239,o),
(146,255,o),
(181,259,c),
(177,263,o),
(175,269,o),
(175,275,cs),
(175,304,o),
(224,345,o),
(325,360,c),
(325,600,l),
(225,600,l),
(225,430,l),
(134,407,o),
(75,360,o),
(75,275,cs),
(75,254,o),
(80,233,o),
(90,216,c)
);
},
{
closed = 1;
nodes = (
(108,388,o),
(140,411,o),
(184,428,c),
(175,430,l),
(175,600,l),
(75,600,l),
(75,360,l),
(80,360,o),
(84,360,o),
(89,359,c)
);
},
{
angle = 90;
pos = (175,600);
ref = _zuluf150;
},
{
angle = 90;
pos = (225,600);
ref = _zuluf150;
scale = (1,-1);
}
);
width = 400;
},
{
associatedMasterId = "299DE00D-7BC2-4DFB-A399-2750234EE670";
layerId = "5EFF6C70-4372-41C6-877A-86FA747989CC";
name = "Oct 24 19, 17:52";
shapes = (
{
closed = 1;
nodes = (
(60,0,l),
(60,100,l),
(50,100,l),
(50,59,o),
(30,23,o),
(0,0,c)
);
},
{
closed = 1;
nodes = (
(200,50,l),
(150,50,l),
(150,0,ls),
(150,-46,o),
(165,-124,o),
(200,-150,c)
);
},
{
closed = 1;
nodes = (
(235,-124,o),
(250,-46,o),
(250,0,cs),
(250,50,l),
(200,50,l),
(200,-150,l)
);
},
{
closed = 1;
nodes = (
(350,0,l),
(350,100,l),
(50,100,l),
(50,0,l)
);
},
{
closed = 1;
nodes = (
(400,0,l),
(370,23,o),
(350,59,o),
(350,100,c),
(340,100,l),
(340,0,l)
);
},
{
closed = 1;
nodes = (
(325,351,o),
(273,407,o),
(175,430,c),
(175,1000,l),
(75,1000,l),
(75,360,l),
(170,353,o),
(225,304,o),
(225,275,cs),
(225,261,o),
(214,250,o),
(200,250,cs),
(186,250,o),
(175,261,o),
(175,275,cs),
(175,304,o),
(224,345,o),
(325,360,c),
(325,1000,l),
(225,1000,l),
(225,430,l),
(134,407,o),
(75,360,o),
(75,275,cs),
(75,206,o),
(131,150,o),
(200,150,cs),
(269,150,o),
(325,206,o),
(325,275,cs)
);
},
{
closed = 1;
nodes = (
(350,50,l),
(350,100,ls),
(350,183,o),
(283,250,o),
(200,250,cs),
(117,250,o),
(50,183,o),
(50,100,cs),
(50,50,l)
);
},
{
closed = 1;
nodes = (
(172,50,o),
(150,72,o),
(150,100,cs),
(150,128,o),
(172,150,o),
(200,150,cs),
(228,150,o),
(250,128,o),
(250,100,cs),
(250,72,o),
(228,50,o),
(200,50,cs)
);
},
{
closed = 1;
nodes = (
(326,350,l),
(247,338,o),
(185,304,o),
(185,275,c),
(175,275,l),
(175,304,o),
(224,345,o),
(325,360,c)
);
},
{
closed = 1;
nodes = (
(65,275,l),
(65,358,o),
(118,413,o),
(223,440,c),
(225,430,l),
(134,407,o),
(75,360,o),
(75,275,c)
);
}
);
visible = 1;
width = 400;
}
);
},
{
glyphname = "lam_alef-ar.liga.01.04";
layers = (
{
anchors = (
{
name = bottom_1;
pos = (305,0);
},
{
name = bottom_2;
pos = (95,0);
},
{
name = caret_1;
pos = (200,0);
},
{
name = top_1;
pos = (450,550);
},
{
name = top_2;
pos = (-50,550);
}
);
layerId = "299DE00D-7BC2-4DFB-A399-2750234EE670";
shapes = (
{
closed = 1;
nodes = (
(60,0,l),
(60,100,l),
(50,100,l),
(50,59,o),
(30,23,o),
(0,0,c)
);
},
{
closed = 1;
nodes = (
(200,50,l),
(150,50,l),
(150,0,ls),
(150,-46,o),
(165,-124,o),
(200,-150,c)
);
},
{
closed = 1;
nodes = (
(235,-124,o),
(250,-46,o),
(250,0,cs),
(250,50,l),
(200,50,l),
(200,-150,l)
);
},
{
closed = 1;
nodes = (
(350,0,l),
(350,100,l),
(50,100,l),
(50,0,l)
);
},
{
closed = 1;
nodes = (
(400,0,l),
(370,23,o),
(350,59,o),
(350,100,c),
(340,100,l),
(340,0,l)
);
},
{
closed = 1;
nodes = (
(350,50,l),
(350,100,ls),
(350,138,o),
(336,174,o),
(312,200,c),
(292,171,o),
(262,150,o),
(226,143,c),
(241,134,o),
(250,118,o),
(250,100,cs),
(250,72,o),
(228,50,o),
(200,50,cs),
(172,50,o),
(150,72,o),
(150,100,cs),
(150,128,o),
(172,150,o),
(200,150,cs),
(269,150,o),
(325,207,o),
(325,275,cs),
(325,301,o),
(319,325,o),
(306,347,c),
(265,338,o),
(229,324,o),
(208,308,c),
(219,296,o),
(225,284,o),
(225,274,cs),
(225,261,o),
(214,250,o),
(200,250,cs),
(117,250,o),
(50,183,o),
(50,100,cs),
(50,50,l)
);
},
{
closed = 1;
nodes = (
(114,239,o),
(146,255,o),
(181,259,c),
(177,263,o),
(175,269,o),
(175,275,cs),
(175,304,o),
(224,345,o),
(325,360,c),
(325,1060,l),
(225,1060,l),
(225,430,l),
(134,407,o),
(75,360,o),
(75,275,cs),
(75,254,o),
(80,233,o),
(90,216,c)
);
},
{
closed = 1;
nodes = (
(108,388,o),
(140,411,o),
(184,428,c),
(175,430,l),
(175,1060,l),
(75,1060,l),
(75,360,l),
(80,360,o),
(84,360,o),
(89,359,c)
);
},
{
closed = 1;
nodes = (
(-75,802,l),
(25,802,l),
(25,1060,l),
(-75,1060,l)
);
},
{
closed = 1;
nodes = (
(375,1060,l),
(375,802,l),
(475,802,l),
(475,1060,l)
);
},
{
pos = (-75,1050);
ref = _elbow.1;
scale = (1,-1);
},
{
pos = (225,1050);
ref = _elbow.1;
scale = (1,-1);
},
{
angle = 90;
pos = (25,802);
ref = _zuluf150;
scale = (-1,1);
},
{
angle = -90;
pos = (375,802);
ref = _zuluf150;
}
);
width = 400;
},
{
anchors = (
{
name = bottom_1;
pos = (305,0);
},
{
name = bottom_2;
pos = (95,0);
},
{
name = caret_1;
pos = (200,0);
},
{
name = top_1;
pos = (450,126);
},
{
name = top_2;
pos = (-50,126);
}
);
associatedMasterId = "299DE00D-7BC2-4DFB-A399-2750234EE670";
layerId = "63CCB03F-5FB3-4C5A-B8E1-1668358A41ED";
name = Short;
shapes = (
{
closed = 1;
nodes = (
(60,0,l),
(60,100,l),
(50,100,l),
(50,59,o),
(30,23,o),
(0,0,c)
);
},
{
closed = 1;
nodes = (
(200,50,l),
(150,50,l),
(150,0,ls),
(150,-46,o),
(165,-124,o),
(200,-150,c)
);
},
{
closed = 1;
nodes = (
(235,-124,o),
(250,-46,o),
(250,0,cs),
(250,50,l),
(200,50,l),
(200,-150,l)
);
},
{
closed = 1;
nodes = (
(350,0,l),
(350,100,l),
(50,100,l),
(50,0,l)
);
},
{
closed = 1;
nodes = (
(400,0,l),
(370,23,o),
(350,59,o),
(350,100,c),
(340,100,l),
(340,0,l)
);
},
{
closed = 1;
nodes = (
(350,50,l),
(350,100,ls),
(350,138,o),
(336,174,o),
(312,200,c),
(292,171,o),
(262,150,o),
(226,143,c),
(241,134,o),
(250,118,o),
(250,100,cs),
(250,72,o),
(228,50,o),
(200,50,cs),
(172,50,o),
(150,72,o),
(150,100,cs),
(150,128,o),
(172,150,o),
(200,150,cs),
(269,150,o),
(325,207,o),
(325,275,cs),
(325,301,o),
(319,325,o),
(306,347,c),
(265,338,o),
(229,324,o),
(208,308,c),
(219,296,o),
(225,284,o),
(225,274,cs),
(225,261,o),
(214,250,o),
(200,250,cs),
(117,250,o),
(50,183,o),
(50,100,cs),
(50,50,l)
);
},
{
closed = 1;
nodes = (
(114,239,o),
(146,255,o),
(181,259,c),
(177,263,o),
(175,269,o),
(175,275,cs),
(175,304,o),
(224,345,o),
(325,360,c),
(325,660,l),
(225,660,l),
(225,430,l),
(134,407,o),
(75,360,o),
(75,275,cs),
(75,254,o),
(80,233,o),
(90,216,c)
);
},
{
closed = 1;
nodes = (
(108,388,o),
(140,411,o),
(184,428,c),
(175,430,l),
(175,660,l),
(75,660,l),
(75,360,l),
(80,360,o),
(84,360,o),
(89,359,c)
);
},
{
closed = 1;
nodes = (
(-75,402,l),
(25,402,l),
(25,660,l),
(-75,660,l)
);
},
{
closed = 1;
nodes = (
(375,660,l),
(375,402,l),
(475,402,l),
(475,660,l)
);
},
{
pos = (-75,650);
ref = _elbow.1;
scale = (1,-1);
},
{
pos = (225,650);
ref = _elbow.1;
scale = (1,-1);
},
{
angle = 90;
pos = (25,402);
ref = _zuluf150;
scale = (-1,1);
},
{
angle = -90;
pos = (375,402);
ref = _zuluf150;
}
);
width = 400;
}
);
},
{
glyphname = "lam_alef-ar.liga.01.05";
layers = (
{
anchors = (
{
name = bottom_1;
pos = (305,0);
},
{
name = bottom_2;
pos = (95,0);
},
{
name = caret_1;
pos = (200,0);
},
{
name = top_1;
pos = (400,946);
},
{
name = top_2;
pos = (-50,946);
}
);
layerId = "299DE00D-7BC2-4DFB-A399-2750234EE670";
shapes = (
{
closed = 1;
nodes = (
(60,0,l),
(60,100,l),
(50,100,l),
(50,59,o),
(30,23,o),
(0,0,c)
);
},
{
closed = 1;
nodes = (
(200,50,l),
(150,50,l),
(150,0,ls),
(150,-46,o),
(165,-124,o),
(200,-150,c)
);
},
{
closed = 1;
nodes = (
(235,-124,o),
(250,-46,o),
(250,0,cs),
(250,50,l),
(200,50,l),
(200,-150,l)
);
},
{
closed = 1;
nodes = (
(350,0,l),
(350,100,l),
(50,100,l),
(50,0,l)
);
},
{
closed = 1;
nodes = (
(400,0,l),
(370,23,o),
(350,59,o),
(350,100,c),
(340,100,l),
(340,0,l)
);
},
{
closed = 1;
nodes = (
(350,50,l),
(350,100,ls),
(350,138,o),
(336,174,o),
(312,200,c),
(292,171,o),
(262,150,o),
(226,143,c),
(241,134,o),
(250,118,o),
(250,100,cs),
(250,72,o),
(228,50,o),
(200,50,cs),
(172,50,o),
(150,72,o),
(150,100,cs),
(150,128,o),
(172,150,o),
(200,150,cs),
(269,150,o),
(325,207,o),
(325,275,cs),
(325,301,o),
(319,325,o),
(306,347,c),
(265,338,o),
(229,324,o),
(208,308,c),
(219,296,o),
(225,284,o),
(225,274,cs),
(225,261,o),
(214,250,o),
(200,250,cs),
(117,250,o),
(50,183,o),
(50,100,cs),
(50,50,l)
);
},
{
closed = 1;
nodes = (
(6,1135,o),
(-8,1169,o),
(-25,1200,c),
(75,1200,ls),
(213,1200,o),
(325,1088,o),
(325,950,cs),
(325,360,l),
(224,345,o),
(175,304,o),
(175,275,cs),
(175,269,o),
(177,263,o),
(181,259,c),
(146,255,o),
(114,239,o),
(90,216,c),
(80,233,o),
(75,254,o),
(75,275,cs),
(75,360,o),
(134,407,o),
(225,430,c),
(225,950,ls),
(225,1033,o),
(158,1100,o),
(75,1100,cs),
(15,1100,l)
);
},
{
closed = 1;
nodes = (
(75,1050,ls),
(130,1050,o),
(175,1005,o),
(175,950,cs),
(175,430,l),
(184,428,l),
(140,411,o),
(108,388,o),
(89,359,c),
(84,360,o),
(80,360,o),
(75,360,c),
(75,910,ls),
(75,932,o),
(57,950,o),
(35,950,cs),
(25,950,l),
(30,982,o),
(29,1016,o),
(25,1050,c)
);
}
);
width = 400;
},
{
anchors = (
{
name = bottom_1;
pos = (305,0);
},
{
name = bottom_2;
pos = (95,0);
},
{
name = caret_1;
pos = (200,0);
},
{
name = top_1;
pos = (400,546);
},
{
name = top_2;
pos = (-50,546);
}
);
associatedMasterId = "299DE00D-7BC2-4DFB-A399-2750234EE670";
layerId = "63CCB03F-5FB3-4C5A-B8E1-1668358A41ED";
name = Short;
shapes = (
{
closed = 1;
nodes = (
(60,0,l),
(60,100,l),
(50,100,l),
(50,59,o),
(30,23,o),
(0,0,c)
);
},
{
closed = 1;
nodes = (
(200,50,l),
(150,50,l),
(150,0,ls),
(150,-46,o),
(165,-124,o),
(200,-150,c)
);
},
{
closed = 1;
nodes = (
(235,-124,o),
(250,-46,o),
(250,0,cs),
(250,50,l),
(200,50,l),
(200,-150,l)
);
},
{
closed = 1;
nodes = (
(350,0,l),
(350,100,l),
(50,100,l),
(50,0,l)
);
},
{
closed = 1;
nodes = (
(400,0,l),
(370,23,o),
(350,59,o),
(350,100,c),
(340,100,l),
(340,0,l)
);
},
{
closed = 1;
nodes = (
(350,50,l),
(350,100,ls),
(350,138,o),
(336,174,o),
(312,200,c),
(292,171,o),
(262,150,o),
(226,143,c),
(241,134,o),
(250,118,o),
(250,100,cs),
(250,72,o),
(228,50,o),
(200,50,cs),
(172,50,o),
(150,72,o),
(150,100,cs),
(150,128,o),
(172,150,o),
(200,150,cs),
(269,150,o),
(325,207,o),
(325,275,cs),
(325,301,o),
(319,325,o),
(306,347,c),
(265,338,o),
(229,324,o),
(208,308,c),
(219,296,o),
(225,284,o),
(225,274,cs),
(225,261,o),
(214,250,o),
(200,250,cs),
(117,250,o),
(50,183,o),
(50,100,cs),
(50,50,l)
);
},
{
closed = 1;
nodes = (
(6,735,o),
(-8,769,o),
(-25,800,c),
(75,800,ls),
(213,800,o),
(325,688,o),
(325,550,cs),
(325,360,l),
(224,345,o),
(175,304,o),
(175,275,cs),
(175,269,o),
(177,263,o),
(181,259,c),
(146,255,o),
(114,239,o),
(90,216,c),
(80,233,o),
(75,254,o),
(75,275,cs),
(75,360,o),
(134,407,o),
(225,430,c),
(225,550,ls),
(225,633,o),
(158,700,o),
(75,700,cs),
(15,700,l)
);
},
{
closed = 1;
nodes = (
(75,650,ls),
(130,650,o),
(175,605,o),
(175,550,cs),
(175,430,l),
(184,428,l),
(140,411,o),
(108,388,o),
(89,359,c),
(84,360,o),
(80,360,o),
(75,360,c),
(75,510,ls),
(75,532,o),
(57,550,o),
(35,550,cs),
(25,550,l),
(30,582,o),
(29,616,o),
(25,650,c)
);
}
);
width = 400;
}
);
},
